%TF.GenerationSoftware,KiCad,Pcbnew,10.0.5-10.0.5~ubuntu24.04.1*%
%TF.CreationDate,2026-09-02T10:40:14-06:00*%
%TF.ProjectId,quad_relay_controller,71756164-5f72-4656-9c61-795f636f6e74,rev?*%
%TF.SameCoordinates,Original*%
%TF.FileFunction,Copper,L1,Top*%
%TF.FilePolarity,Positive*%
%FSLAX46Y46*%
G04 Gerber Fmt 4.6, Leading zero omitted, Abs format (unit mm)*
G04 Created by KiCad (PCBNEW 10.0.5-10.0.5~ubuntu24.04.1) date 2026-09-02 10:40:14*
%MOMM*%
%LPD*%
G01*
G04 APERTURE LIST*
G04 Aperture macros list*
%AMRoundRect*
0 Rectangle with rounded corners*
0 $1 Rounding radius*
0 $2 $3 $4 $5 $6 $7 $8 $9 X,Y pos of 4 corners*
0 Add a 4 corners polygon primitive as box body*
4,1,4,$2,$3,$4,$5,$6,$7,$8,$9,$2,$3,0*
0 Add four circle primitives for the rounded corners*
1,1,$1+$1,$2,$3*
1,1,$1+$1,$4,$5*
1,1,$1+$1,$6,$7*
1,1,$1+$1,$8,$9*
0 Add four rect primitives between the rounded corners*
20,1,$1+$1,$2,$3,$4,$5,0*
20,1,$1+$1,$4,$5,$6,$7,0*
20,1,$1+$1,$6,$7,$8,$9,0*
20,1,$1+$1,$8,$9,$2,$3,0*%
G04 Aperture macros list end*
%TA.AperFunction,SMDPad,CuDef*%
%ADD10RoundRect,0.225000X0.225000X0.250000X-0.225000X0.250000X-0.225000X-0.250000X0.225000X-0.250000X0*%
%TD*%
%TA.AperFunction,SMDPad,CuDef*%
%ADD11RoundRect,0.218750X-0.218750X-0.256250X0.218750X-0.256250X0.218750X0.256250X-0.218750X0.256250X0*%
%TD*%
%TA.AperFunction,SMDPad,CuDef*%
%ADD12RoundRect,0.200000X0.200000X0.275000X-0.200000X0.275000X-0.200000X-0.275000X0.200000X-0.275000X0*%
%TD*%
%TA.AperFunction,SMDPad,CuDef*%
%ADD13RoundRect,0.050010X0.199990X-0.099990X0.199990X0.099990X-0.199990X0.099990X-0.199990X-0.099990X0*%
%TD*%
%TA.AperFunction,SMDPad,CuDef*%
%ADD14C,1.000000*%
%TD*%
%TA.AperFunction,SMDPad,CuDef*%
%ADD15RoundRect,0.150000X0.587500X0.150000X-0.587500X0.150000X-0.587500X-0.150000X0.587500X-0.150000X0*%
%TD*%
%TA.AperFunction,SMDPad,CuDef*%
%ADD16RoundRect,0.225000X-0.225000X-0.375000X0.225000X-0.375000X0.225000X0.375000X-0.225000X0.375000X0*%
%TD*%
%TA.AperFunction,SMDPad,CuDef*%
%ADD17RoundRect,0.200000X-0.200000X-0.275000X0.200000X-0.275000X0.200000X0.275000X-0.200000X0.275000X0*%
%TD*%
%TA.AperFunction,ComponentPad*%
%ADD18R,1.700000X1.700000*%
%TD*%
%TA.AperFunction,ComponentPad*%
%ADD19C,1.700000*%
%TD*%
%TA.AperFunction,SMDPad,CuDef*%
%ADD20RoundRect,0.200000X0.275000X-0.200000X0.275000X0.200000X-0.275000X0.200000X-0.275000X-0.200000X0*%
%TD*%
%TA.AperFunction,ComponentPad*%
%ADD21C,2.000000*%
%TD*%
%TA.AperFunction,ComponentPad*%
%ADD22R,2.000000X2.000000*%
%TD*%
%TA.AperFunction,SMDPad,CuDef*%
%ADD23RoundRect,0.050010X-0.199990X0.099990X-0.199990X-0.099990X0.199990X-0.099990X0.199990X0.099990X0*%
%TD*%
%TA.AperFunction,ComponentPad*%
%ADD24RoundRect,0.250001X-1.399999X-3.049999X1.399999X-3.049999X1.399999X3.049999X-1.399999X3.049999X0*%
%TD*%
%TA.AperFunction,ComponentPad*%
%ADD25O,3.300000X6.600000*%
%TD*%
%TA.AperFunction,SMDPad,CuDef*%
%ADD26RoundRect,0.250000X0.475000X-0.250000X0.475000X0.250000X-0.475000X0.250000X-0.475000X-0.250000X0*%
%TD*%
%TA.AperFunction,SMDPad,CuDef*%
%ADD27RoundRect,0.100000X0.100000X-0.637500X0.100000X0.637500X-0.100000X0.637500X-0.100000X-0.637500X0*%
%TD*%
%TA.AperFunction,SMDPad,CuDef*%
%ADD28RoundRect,0.218750X-0.256250X0.218750X-0.256250X-0.218750X0.256250X-0.218750X0.256250X0.218750X0*%
%TD*%
%TA.AperFunction,SMDPad,CuDef*%
%ADD29RoundRect,0.150000X-0.150000X0.587500X-0.150000X-0.587500X0.150000X-0.587500X0.150000X0.587500X0*%
%TD*%
%TA.AperFunction,SMDPad,CuDef*%
%ADD30RoundRect,0.050010X-0.099990X-0.199990X0.099990X-0.199990X0.099990X0.199990X-0.099990X0.199990X0*%
%TD*%
%TA.AperFunction,ComponentPad*%
%ADD31R,2.600000X2.600000*%
%TD*%
%TA.AperFunction,ComponentPad*%
%ADD32C,2.600000*%
%TD*%
%TA.AperFunction,SMDPad,CuDef*%
%ADD33RoundRect,0.225000X-0.225000X-0.250000X0.225000X-0.250000X0.225000X0.250000X-0.225000X0.250000X0*%
%TD*%
%TA.AperFunction,SMDPad,CuDef*%
%ADD34RoundRect,0.200000X-0.275000X0.200000X-0.275000X-0.200000X0.275000X-0.200000X0.275000X0.200000X0*%
%TD*%
%TA.AperFunction,ViaPad*%
%ADD35C,0.600000*%
%TD*%
%TA.AperFunction,Conductor*%
%ADD36C,0.250000*%
%TD*%
%TA.AperFunction,Conductor*%
%ADD37C,0.400000*%
%TD*%
%TA.AperFunction,Conductor*%
%ADD38C,2.000000*%
%TD*%
G04 APERTURE END LIST*
D10*
%TO.P,C6,1*%
%TO.N,NRST*%
X85775000Y-37000000D03*
%TO.P,C6,2*%
%TO.N,GND*%
X84225000Y-37000000D03*
%TD*%
D11*
%TO.P,D8,1*%
%TO.N,GND*%
X153712500Y-58500000D03*
%TO.P,D8,2*%
%TO.N,LED4_A*%
X155287500Y-58500000D03*
%TD*%
D12*
%TO.P,R14,1*%
%TO.N,PFET_G*%
X58825000Y-43000000D03*
%TO.P,R14,2*%
%TO.N,GND*%
X57175000Y-43000000D03*
%TD*%
D13*
%TO.P,D12,1*%
%TO.N,GND*%
X111000000Y-41350000D03*
%TO.P,D12,2*%
%TO.N,NRST*%
X111000000Y-40650000D03*
%TD*%
D14*
%TO.P,TP7,1*%
%TO.N,RLY3_G*%
X115000000Y-58000000D03*
%TD*%
%TO.P,TP1,1*%
%TO.N,V5IN*%
X55000000Y-38000000D03*
%TD*%
D15*
%TO.P,Q2,1*%
%TO.N,RLY2_G*%
X79937500Y-65950000D03*
%TO.P,Q2,2*%
%TO.N,GND*%
X79937500Y-64050000D03*
%TO.P,Q2,3*%
%TO.N,RLY2_C*%
X78062500Y-65000000D03*
%TD*%
D10*
%TO.P,C5,1*%
%TO.N,+5V*%
X93775000Y-47000000D03*
%TO.P,C5,2*%
%TO.N,GND*%
X92225000Y-47000000D03*
%TD*%
D16*
%TO.P,D2,1*%
%TO.N,VCOIL*%
X71850000Y-65000000D03*
%TO.P,D2,2*%
%TO.N,RLY2_C*%
X75150000Y-65000000D03*
%TD*%
D14*
%TO.P,TP12,1*%
%TO.N,RLY4_C*%
X143000000Y-58000000D03*
%TD*%
D15*
%TO.P,Q5,1*%
%TO.N,PFET_G*%
X59937500Y-39950000D03*
%TO.P,Q5,2*%
%TO.N,VCOIL*%
X59937500Y-38050000D03*
%TO.P,Q5,3*%
%TO.N,V5IN*%
X58062500Y-39000000D03*
%TD*%
D17*
%TO.P,R7,1*%
%TO.N,RLY3_G*%
X114675000Y-61500000D03*
%TO.P,R7,2*%
%TO.N,GND*%
X116325000Y-61500000D03*
%TD*%
D11*
%TO.P,D6,1*%
%TO.N,GND*%
X86712500Y-58500000D03*
%TO.P,D6,2*%
%TO.N,LED2_A*%
X88287500Y-58500000D03*
%TD*%
D17*
%TO.P,R13,1*%
%TO.N,VCOIL*%
X68675000Y-42000000D03*
%TO.P,R13,2*%
%TO.N,PWR_LED_A*%
X70325000Y-42000000D03*
%TD*%
D18*
%TO.P,J6,1*%
%TO.N,+5V*%
X106000000Y-33000000D03*
D19*
%TO.P,J6,2*%
%TO.N,SWDIO*%
X106000000Y-35540000D03*
%TO.P,J6,3*%
%TO.N,SWCLK*%
X106000000Y-38080000D03*
%TO.P,J6,4*%
%TO.N,NRST*%
X106000000Y-40620000D03*
%TO.P,J6,5*%
%TO.N,GND*%
X106000000Y-43160000D03*
%TD*%
D20*
%TO.P,R12,1*%
%TO.N,RLY4_CMD*%
X154500000Y-63325000D03*
%TO.P,R12,2*%
%TO.N,LED4_A*%
X154500000Y-61675000D03*
%TD*%
D17*
%TO.P,R10,1*%
%TO.N,RLY2_CMD*%
X87675000Y-61500000D03*
%TO.P,R10,2*%
%TO.N,LED2_A*%
X89325000Y-61500000D03*
%TD*%
D21*
%TO.P,K1,11*%
%TO.N,CH1_COM*%
X35750000Y-91000000D03*
X43250000Y-91000000D03*
%TO.P,K1,12*%
%TO.N,CH1_NC*%
X35750000Y-86000000D03*
X43250000Y-86000000D03*
%TO.P,K1,14*%
%TO.N,CH1_NO*%
X35750000Y-96000000D03*
X43250000Y-96000000D03*
D22*
%TO.P,K1,A1*%
%TO.N,VCOIL*%
X35750000Y-71000000D03*
D21*
%TO.P,K1,A2*%
%TO.N,RLY1_C*%
X43250000Y-71000000D03*
%TD*%
D23*
%TO.P,D10,1*%
%TO.N,GND*%
X55000000Y-34650000D03*
%TO.P,D10,2*%
%TO.N,V5IN*%
X55000000Y-35350000D03*
%TD*%
D24*
%TO.P,J5,1*%
%TO.N,CH4_NO*%
X141500000Y-105000000D03*
D25*
%TO.P,J5,2*%
%TO.N,CH4_COM*%
X151000000Y-105000000D03*
%TO.P,J5,3*%
%TO.N,CH4_NC*%
X160500000Y-105000000D03*
%TD*%
D15*
%TO.P,Q1,1*%
%TO.N,RLY1_G*%
X46937500Y-64950000D03*
%TO.P,Q1,2*%
%TO.N,GND*%
X46937500Y-63050000D03*
%TO.P,Q1,3*%
%TO.N,RLY1_C*%
X45062500Y-64000000D03*
%TD*%
D14*
%TO.P,TP11,1*%
%TO.N,RLY3_C*%
X110000000Y-59000000D03*
%TD*%
D24*
%TO.P,J2,1*%
%TO.N,CH1_NO*%
X39500000Y-105000000D03*
D25*
%TO.P,J2,2*%
%TO.N,CH1_COM*%
X49000000Y-105000000D03*
%TO.P,J2,3*%
%TO.N,CH1_NC*%
X58500000Y-105000000D03*
%TD*%
D20*
%TO.P,R4,1*%
%TO.N,RLY4_CMD*%
X151500000Y-65825000D03*
%TO.P,R4,2*%
%TO.N,RLY4_G*%
X151500000Y-64175000D03*
%TD*%
D21*
%TO.P,K4,11*%
%TO.N,CH4_COM*%
X137750000Y-91000000D03*
X145250000Y-91000000D03*
%TO.P,K4,12*%
%TO.N,CH4_NC*%
X137750000Y-86000000D03*
X145250000Y-86000000D03*
%TO.P,K4,14*%
%TO.N,CH4_NO*%
X137750000Y-96000000D03*
X145250000Y-96000000D03*
D22*
%TO.P,K4,A1*%
%TO.N,VCOIL*%
X137750000Y-71000000D03*
D21*
%TO.P,K4,A2*%
%TO.N,RLY4_C*%
X145250000Y-71000000D03*
%TD*%
D26*
%TO.P,C1,1*%
%TO.N,VCOIL*%
X64000000Y-37950000D03*
%TO.P,C1,2*%
%TO.N,GND*%
X64000000Y-36050000D03*
%TD*%
D17*
%TO.P,R5,1*%
%TO.N,RLY1_G*%
X46675000Y-60500000D03*
%TO.P,R5,2*%
%TO.N,GND*%
X48325000Y-60500000D03*
%TD*%
D12*
%TO.P,R1,1*%
%TO.N,RLY1_CMD*%
X52325000Y-64000000D03*
%TO.P,R1,2*%
%TO.N,RLY1_G*%
X50675000Y-64000000D03*
%TD*%
D27*
%TO.P,U1,1*%
%TO.N,UART_TX*%
X89075000Y-42862500D03*
%TO.P,U1,2*%
%TO.N,UART_RX*%
X89725000Y-42862500D03*
%TO.P,U1,3*%
%TO.N,RLY1_CMD*%
X90375000Y-42862500D03*
%TO.P,U1,4*%
%TO.N,RLY2_CMD*%
X91025000Y-42862500D03*
%TO.P,U1,5*%
%TO.N,RLY3_CMD*%
X91675000Y-42862500D03*
%TO.P,U1,6*%
%TO.N,RLY4_CMD*%
X92325000Y-42862500D03*
%TO.P,U1,7*%
%TO.N,GND*%
X92975000Y-42862500D03*
%TO.P,U1,8*%
%TO.N,unconnected-(U1-PA12-Pad8)*%
X93625000Y-42862500D03*
%TO.P,U1,9*%
%TO.N,+5V*%
X94275000Y-42862500D03*
%TO.P,U1,10*%
%TO.N,SWDIO*%
X94925000Y-42862500D03*
%TO.P,U1,11*%
%TO.N,SWCLK*%
X94925000Y-37137500D03*
%TO.P,U1,12*%
%TO.N,unconnected-(U1-PB5-Pad12)*%
X94275000Y-37137500D03*
%TO.P,U1,13*%
%TO.N,unconnected-(U1-PB6-Pad13)*%
X93625000Y-37137500D03*
%TO.P,U1,14*%
%TO.N,unconnected-(U1-PB7-Pad14)*%
X92975000Y-37137500D03*
%TO.P,U1,15*%
%TO.N,BOOT0*%
X92325000Y-37137500D03*
%TO.P,U1,16*%
%TO.N,unconnected-(U1-PF0-Pad16)*%
X91675000Y-37137500D03*
%TO.P,U1,17*%
%TO.N,unconnected-(U1-PF1-Pad17)*%
X91025000Y-37137500D03*
%TO.P,U1,18*%
%TO.N,NRST*%
X90375000Y-37137500D03*
%TO.P,U1,19*%
%TO.N,unconnected-(U1-PA0-Pad19)*%
X89725000Y-37137500D03*
%TO.P,U1,20*%
%TO.N,unconnected-(U1-PA1-Pad20)*%
X89075000Y-37137500D03*
%TD*%
D14*
%TO.P,TP4,1*%
%TO.N,GND*%
X84500000Y-41000000D03*
%TD*%
D21*
%TO.P,K2,11*%
%TO.N,CH2_COM*%
X69750000Y-91000000D03*
X77250000Y-91000000D03*
%TO.P,K2,12*%
%TO.N,CH2_NC*%
X69750000Y-86000000D03*
X77250000Y-86000000D03*
%TO.P,K2,14*%
%TO.N,CH2_NO*%
X69750000Y-96000000D03*
X77250000Y-96000000D03*
D22*
%TO.P,K2,A1*%
%TO.N,VCOIL*%
X69750000Y-71000000D03*
D21*
%TO.P,K2,A2*%
%TO.N,RLY2_C*%
X77250000Y-71000000D03*
%TD*%
D20*
%TO.P,R8,1*%
%TO.N,RLY4_G*%
X150500000Y-61325000D03*
%TO.P,R8,2*%
%TO.N,GND*%
X150500000Y-59675000D03*
%TD*%
D14*
%TO.P,TP8,1*%
%TO.N,RLY4_G*%
X148000000Y-57000000D03*
%TD*%
D16*
%TO.P,D4,1*%
%TO.N,VCOIL*%
X139850000Y-65000000D03*
%TO.P,D4,2*%
%TO.N,RLY4_C*%
X143150000Y-65000000D03*
%TD*%
D17*
%TO.P,R11,1*%
%TO.N,RLY3_CMD*%
X119675000Y-59500000D03*
%TO.P,R11,2*%
%TO.N,LED3_A*%
X121325000Y-59500000D03*
%TD*%
D12*
%TO.P,R9,1*%
%TO.N,RLY1_CMD*%
X56325000Y-61500000D03*
%TO.P,R9,2*%
%TO.N,LED1_A*%
X54675000Y-61500000D03*
%TD*%
D28*
%TO.P,D9,1*%
%TO.N,GND*%
X73000000Y-40212500D03*
%TO.P,D9,2*%
%TO.N,PWR_LED_A*%
X73000000Y-41787500D03*
%TD*%
%TO.P,D7,1*%
%TO.N,GND*%
X124500000Y-57712500D03*
%TO.P,D7,2*%
%TO.N,LED3_A*%
X124500000Y-59287500D03*
%TD*%
D13*
%TO.P,D13,1*%
%TO.N,GND*%
X111000000Y-38350000D03*
%TO.P,D13,2*%
%TO.N,SWDIO*%
X111000000Y-37650000D03*
%TD*%
D18*
%TO.P,J7,1*%
%TO.N,+5V*%
X122000000Y-33000000D03*
D19*
%TO.P,J7,2*%
%TO.N,UART_TX*%
X122000000Y-35540000D03*
%TO.P,J7,3*%
%TO.N,UART_RX*%
X122000000Y-38080000D03*
%TO.P,J7,4*%
%TO.N,GND*%
X122000000Y-40620000D03*
%TD*%
D12*
%TO.P,R15,1*%
%TO.N,BOOT0*%
X94825000Y-33000000D03*
%TO.P,R15,2*%
%TO.N,GND*%
X93175000Y-33000000D03*
%TD*%
D24*
%TO.P,J3,1*%
%TO.N,CH2_NO*%
X73500000Y-105000000D03*
D25*
%TO.P,J3,2*%
%TO.N,CH2_COM*%
X83000000Y-105000000D03*
%TO.P,J3,3*%
%TO.N,CH2_NC*%
X92500000Y-105000000D03*
%TD*%
D13*
%TO.P,D14,1*%
%TO.N,GND*%
X109000000Y-38350000D03*
%TO.P,D14,2*%
%TO.N,SWCLK*%
X109000000Y-37650000D03*
%TD*%
D14*
%TO.P,TP10,1*%
%TO.N,RLY2_C*%
X76000000Y-59000000D03*
%TD*%
D13*
%TO.P,D16,1*%
%TO.N,GND*%
X125000000Y-38350000D03*
%TO.P,D16,2*%
%TO.N,UART_RX*%
X125000000Y-37650000D03*
%TD*%
D11*
%TO.P,D5,1*%
%TO.N,GND*%
X51712500Y-58500000D03*
%TO.P,D5,2*%
%TO.N,LED1_A*%
X53287500Y-58500000D03*
%TD*%
D24*
%TO.P,J4,1*%
%TO.N,CH3_NO*%
X107500000Y-105000000D03*
D25*
%TO.P,J4,2*%
%TO.N,CH3_COM*%
X117000000Y-105000000D03*
%TO.P,J4,3*%
%TO.N,CH3_NC*%
X126500000Y-105000000D03*
%TD*%
D29*
%TO.P,Q4,1*%
%TO.N,RLY4_G*%
X147950000Y-61062500D03*
%TO.P,Q4,2*%
%TO.N,GND*%
X146050000Y-61062500D03*
%TO.P,Q4,3*%
%TO.N,RLY4_C*%
X147000000Y-62937500D03*
%TD*%
D14*
%TO.P,TP5,1*%
%TO.N,RLY1_G*%
X47000000Y-57000000D03*
%TD*%
%TO.P,TP3,1*%
%TO.N,+5V*%
X80500000Y-40000000D03*
%TD*%
%TO.P,TP6,1*%
%TO.N,RLY2_G*%
X80000000Y-58000000D03*
%TD*%
D17*
%TO.P,R16,1*%
%TO.N,VCOIL*%
X73175000Y-37000000D03*
%TO.P,R16,2*%
%TO.N,+5V*%
X74825000Y-37000000D03*
%TD*%
D16*
%TO.P,D3,1*%
%TO.N,VCOIL*%
X105850000Y-65000000D03*
%TO.P,D3,2*%
%TO.N,RLY3_C*%
X109150000Y-65000000D03*
%TD*%
D21*
%TO.P,K3,11*%
%TO.N,CH3_COM*%
X103750000Y-91000000D03*
X111250000Y-91000000D03*
%TO.P,K3,12*%
%TO.N,CH3_NC*%
X103750000Y-86000000D03*
X111250000Y-86000000D03*
%TO.P,K3,14*%
%TO.N,CH3_NO*%
X103750000Y-96000000D03*
X111250000Y-96000000D03*
D22*
%TO.P,K3,A1*%
%TO.N,VCOIL*%
X103750000Y-71000000D03*
D21*
%TO.P,K3,A2*%
%TO.N,RLY3_C*%
X111250000Y-71000000D03*
%TD*%
D30*
%TO.P,D11,1*%
%TO.N,GND*%
X88650000Y-47000000D03*
%TO.P,D11,2*%
%TO.N,+5V*%
X89350000Y-47000000D03*
%TD*%
D31*
%TO.P,J1,1*%
%TO.N,V5IN*%
X44460000Y-37000000D03*
D32*
%TO.P,J1,2*%
%TO.N,GND*%
X49540000Y-37000000D03*
%TD*%
D17*
%TO.P,R6,1*%
%TO.N,RLY2_G*%
X79675000Y-61500000D03*
%TO.P,R6,2*%
%TO.N,GND*%
X81325000Y-61500000D03*
%TD*%
D33*
%TO.P,C4,1*%
%TO.N,+5V*%
X84225000Y-44000000D03*
%TO.P,C4,2*%
%TO.N,GND*%
X85775000Y-44000000D03*
%TD*%
D26*
%TO.P,C3,1*%
%TO.N,+5V*%
X78500000Y-35950000D03*
%TO.P,C3,2*%
%TO.N,GND*%
X78500000Y-34050000D03*
%TD*%
D13*
%TO.P,D15,1*%
%TO.N,GND*%
X127000000Y-37350000D03*
%TO.P,D15,2*%
%TO.N,UART_TX*%
X127000000Y-36650000D03*
%TD*%
D12*
%TO.P,R2,1*%
%TO.N,RLY2_CMD*%
X85325000Y-64000000D03*
%TO.P,R2,2*%
%TO.N,RLY2_G*%
X83675000Y-64000000D03*
%TD*%
D14*
%TO.P,TP2,1*%
%TO.N,VCOIL*%
X67000000Y-39000000D03*
%TD*%
%TO.P,TP9,1*%
%TO.N,RLY1_C*%
X42000000Y-59000000D03*
%TD*%
D34*
%TO.P,R3,1*%
%TO.N,RLY3_CMD*%
X119500000Y-62175000D03*
%TO.P,R3,2*%
%TO.N,RLY3_G*%
X119500000Y-63825000D03*
%TD*%
D26*
%TO.P,C2,1*%
%TO.N,VCOIL*%
X70500000Y-37950000D03*
%TO.P,C2,2*%
%TO.N,GND*%
X70500000Y-36050000D03*
%TD*%
D16*
%TO.P,D1,1*%
%TO.N,VCOIL*%
X37850000Y-65000000D03*
%TO.P,D1,2*%
%TO.N,RLY1_C*%
X41150000Y-65000000D03*
%TD*%
D15*
%TO.P,Q3,1*%
%TO.N,RLY3_G*%
X114937500Y-65950000D03*
%TO.P,Q3,2*%
%TO.N,GND*%
X114937500Y-64050000D03*
%TO.P,Q3,3*%
%TO.N,RLY3_C*%
X113062500Y-65000000D03*
%TD*%
D35*
%TO.N,NRST*%
X89100000Y-35800000D03*
X87700000Y-35800000D03*
%TO.N,GND*%
X56050000Y-43000000D03*
X50587500Y-58500000D03*
X81325000Y-64050000D03*
X78500000Y-32675000D03*
X92050000Y-33000000D03*
X150500000Y-58550000D03*
X91100000Y-47000000D03*
X125000000Y-39250000D03*
X109000000Y-39250000D03*
X73000000Y-39087500D03*
X82450000Y-61500000D03*
X86900000Y-44000000D03*
X111000000Y-39250000D03*
X48325000Y-63050000D03*
X83100000Y-37000000D03*
X111000000Y-42250000D03*
X92975000Y-44250000D03*
X55000000Y-33750000D03*
X152587500Y-58500000D03*
X49450000Y-60500000D03*
X64000000Y-34675000D03*
X85587500Y-58500000D03*
X116325000Y-64050000D03*
X117450000Y-61500000D03*
X87750000Y-47000000D03*
X127000000Y-38250000D03*
X146050000Y-59675000D03*
X84500000Y-39850000D03*
X124500000Y-56587500D03*
X70500000Y-34675000D03*
%TO.N,RLY3_G*%
X113600000Y-61500000D03*
X114100000Y-58800000D03*
%TO.N,RLY2_C*%
X75400000Y-69000000D03*
%TO.N,+5V*%
X107800000Y-34500000D03*
X102400000Y-40500000D03*
X119200000Y-31700000D03*
X91700000Y-48800000D03*
X82700000Y-43600000D03*
X82700000Y-42200000D03*
X90300000Y-48300000D03*
X118200000Y-32700000D03*
X99100000Y-47000000D03*
%TO.N,VCOIL*%
X68700000Y-48100000D03*
X68700000Y-50100000D03*
%TO.N,RLY4_C*%
X143000000Y-59200000D03*
X143000000Y-60600000D03*
%TO.N,SWDIO*%
X108000000Y-36000000D03*
X102900000Y-37400000D03*
X96600000Y-43700000D03*
%TO.N,SWCLK*%
X99200000Y-38100000D03*
X98200000Y-37100000D03*
X107600000Y-36800000D03*
%TO.N,UART_TX*%
X88200000Y-43200000D03*
X99300000Y-31400000D03*
%TO.N,UART_RX*%
X90300000Y-44300000D03*
X99100000Y-44200000D03*
%TO.N,RLY3_CMD*%
X118600000Y-61300000D03*
X95600000Y-41700000D03*
X118500000Y-59900000D03*
X94600000Y-40700000D03*
%TD*%
%TO.N,NRST*%
D36*
X109300000Y-40600000D02*
X111000000Y-40600000D01*
X89900000Y-35900000D02*
X89100000Y-35800000D01*
X90100000Y-36000000D02*
X90000000Y-36000000D01*
X107200000Y-36000000D02*
X107200000Y-36100000D01*
X107200000Y-38700000D02*
X106000000Y-39900000D01*
X107300000Y-35200000D02*
X107300000Y-35900000D01*
X90400000Y-37100000D02*
X90400000Y-36200000D01*
X107200000Y-36100000D02*
X107100000Y-36200000D01*
X90000000Y-36000000D02*
X89900000Y-35900000D01*
X94000000Y-32400000D02*
X94300000Y-32100000D01*
X107000000Y-31700000D02*
X107300000Y-32000000D01*
X107100000Y-37300000D02*
X107100000Y-37400000D01*
X107100000Y-37400000D02*
X107200000Y-37500000D01*
X107200000Y-38600000D02*
X107200000Y-38700000D01*
X90700000Y-36000000D02*
X90800000Y-35900000D01*
X107300000Y-32000000D02*
X107300000Y-34000000D01*
X87700000Y-35800000D02*
X86500000Y-37000000D01*
X108200000Y-39400000D02*
X108200000Y-39500000D01*
X111000000Y-40600000D02*
X111000000Y-40650000D01*
X86500000Y-37000000D02*
X85775000Y-37000000D01*
X91700000Y-35900000D02*
X94000000Y-33600000D01*
X106900000Y-34400000D02*
X106900000Y-34600000D01*
X107100000Y-36300000D02*
X106700000Y-36700000D01*
X107200000Y-37600000D02*
X107300000Y-37700000D01*
X90400000Y-36300000D02*
X90100000Y-36000000D01*
X94000000Y-33600000D02*
X94000000Y-32400000D01*
X90400000Y-36200000D02*
X90600000Y-36000000D01*
X106700000Y-36900000D02*
X107100000Y-37300000D01*
X90375000Y-37137500D02*
X90400000Y-37100000D01*
X106900000Y-34600000D02*
X107200000Y-34900000D01*
X107200000Y-37500000D02*
X107200000Y-37600000D01*
X107300000Y-35900000D02*
X107200000Y-36000000D01*
X107300000Y-38500000D02*
X108200000Y-39400000D01*
X107300000Y-38500000D02*
X107200000Y-38600000D01*
X100000000Y-31700000D02*
X107000000Y-31700000D01*
X106000000Y-39900000D02*
X106000000Y-40600000D01*
X90800000Y-35900000D02*
X91700000Y-35900000D01*
X99600000Y-32100000D02*
X100000000Y-31700000D01*
X90600000Y-36000000D02*
X90700000Y-36000000D01*
X107300000Y-37700000D02*
X107300000Y-38500000D01*
X106700000Y-36700000D02*
X106700000Y-36900000D01*
X107300000Y-34000000D02*
X106900000Y-34400000D01*
X107200000Y-34900000D02*
X107200000Y-35100000D01*
X108200000Y-39500000D02*
X109300000Y-40600000D01*
X107100000Y-36200000D02*
X107100000Y-36300000D01*
X94300000Y-32100000D02*
X99600000Y-32100000D01*
X107200000Y-35100000D02*
X107300000Y-35200000D01*
%TO.N,GND*%
D37*
X153712500Y-58500000D02*
X152587500Y-58500000D01*
X86712500Y-58500000D02*
X85587500Y-58500000D01*
X125000000Y-38350000D02*
X125000000Y-39250000D01*
X84500000Y-41000000D02*
X84500000Y-39850000D01*
X46937500Y-63050000D02*
X48325000Y-63050000D01*
X111000000Y-41350000D02*
X111000000Y-42250000D01*
X55000000Y-34650000D02*
X55000000Y-33750000D01*
X70500000Y-36050000D02*
X70500000Y-34675000D01*
X124500000Y-57712500D02*
X124500000Y-56587500D01*
X146050000Y-61062500D02*
X146050000Y-59675000D01*
X93175000Y-33000000D02*
X92050000Y-33000000D01*
X111000000Y-38350000D02*
X111000000Y-39250000D01*
X81325000Y-61500000D02*
X82450000Y-61500000D01*
X109000000Y-38350000D02*
X109000000Y-39250000D01*
X114937500Y-64050000D02*
X116325000Y-64050000D01*
X79937500Y-64050000D02*
X81325000Y-64050000D01*
X64000000Y-36050000D02*
X64000000Y-34675000D01*
X92225000Y-47000000D02*
X91100000Y-47000000D01*
X73000000Y-40212500D02*
X73000000Y-39087500D01*
X127000000Y-37350000D02*
X127000000Y-38250000D01*
X92975000Y-42862500D02*
X92975000Y-44250000D01*
X48325000Y-60500000D02*
X49450000Y-60500000D01*
X88650000Y-47000000D02*
X87750000Y-47000000D01*
X116325000Y-61500000D02*
X117450000Y-61500000D01*
X85775000Y-44000000D02*
X86900000Y-44000000D01*
X57175000Y-43000000D02*
X56050000Y-43000000D01*
X150500000Y-59675000D02*
X150500000Y-58550000D01*
X78500000Y-34050000D02*
X78500000Y-32675000D01*
X84225000Y-37000000D02*
X83100000Y-37000000D01*
X51712500Y-58500000D02*
X50587500Y-58500000D01*
%TO.N,LED4_A*%
D36*
X155300000Y-58500000D02*
X154500000Y-59300000D01*
X154500000Y-59300000D02*
X154500000Y-61700000D01*
X154500000Y-61700000D02*
X154500000Y-61675000D01*
%TO.N,PFET_G*%
X59900000Y-41900000D02*
X59900000Y-40000000D01*
X58825000Y-43000000D02*
X58800000Y-43000000D01*
X59900000Y-40000000D02*
X59937500Y-39950000D01*
X58800000Y-43000000D02*
X59900000Y-41900000D01*
%TO.N,RLY3_G*%
X114700000Y-61500000D02*
X113600000Y-61500000D01*
X114900000Y-58000000D02*
X115000000Y-58000000D01*
X114937500Y-65950000D02*
X114900000Y-66000000D01*
X114100000Y-58800000D02*
X114900000Y-58000000D01*
X116100000Y-64800000D02*
X118500000Y-64800000D01*
X114700000Y-61500000D02*
X114675000Y-61500000D01*
X114900000Y-66000000D02*
X116100000Y-64800000D01*
X117100000Y-64800000D02*
X117100000Y-63700000D01*
X119500000Y-63800000D02*
X119500000Y-63825000D01*
X114900000Y-61500000D02*
X114700000Y-61500000D01*
X118500000Y-64800000D02*
X119500000Y-63800000D01*
X117100000Y-63700000D02*
X114900000Y-61500000D01*
%TO.N,V5IN*%
X48700000Y-38600000D02*
X48800000Y-38600000D01*
X48100000Y-38000000D02*
X48700000Y-38600000D01*
X48800000Y-38600000D02*
X48900000Y-38700000D01*
X54300000Y-38700000D02*
X55000000Y-38000000D01*
X56000000Y-39000000D02*
X58100000Y-39000000D01*
X44500000Y-37000000D02*
X45500000Y-38000000D01*
X45500000Y-38000000D02*
X48100000Y-38000000D01*
X55000000Y-38000000D02*
X56000000Y-39000000D01*
X55000000Y-38000000D02*
X55000000Y-35350000D01*
X48900000Y-38700000D02*
X54300000Y-38700000D01*
X58100000Y-39000000D02*
X58062500Y-39000000D01*
%TO.N,RLY2_G*%
X79900000Y-66000000D02*
X81100000Y-64800000D01*
X82900000Y-64800000D02*
X83700000Y-64000000D01*
X83700000Y-64000000D02*
X83675000Y-64000000D01*
X81100000Y-64800000D02*
X82900000Y-64800000D01*
X82100000Y-64800000D02*
X82100000Y-63700000D01*
X80000000Y-61400000D02*
X80000000Y-58000000D01*
X79900000Y-61500000D02*
X79675000Y-61500000D01*
X79937500Y-65950000D02*
X79900000Y-66000000D01*
X82100000Y-63700000D02*
X79900000Y-61500000D01*
X79900000Y-61500000D02*
X80000000Y-61400000D01*
%TO.N,RLY2_C*%
X78100000Y-65000000D02*
X78062500Y-65000000D01*
X76000000Y-64200000D02*
X76000000Y-59000000D01*
X77200000Y-67200000D02*
X75400000Y-69000000D01*
X75200000Y-65000000D02*
X76000000Y-64200000D01*
X77200000Y-65000000D02*
X77200000Y-67200000D01*
X76000000Y-64200000D02*
X76800000Y-65000000D01*
X75150000Y-65000000D02*
X75200000Y-65000000D01*
X76800000Y-65000000D02*
X78100000Y-65000000D01*
%TO.N,+5V*%
X103300000Y-33000000D02*
X106000000Y-33000000D01*
X98100000Y-38200000D02*
X100400000Y-40500000D01*
X85100000Y-44900000D02*
X84200000Y-44000000D01*
X93800000Y-47000000D02*
X93700000Y-47000000D01*
X78500000Y-38000000D02*
X78500000Y-35950000D01*
X89400000Y-47400000D02*
X89400000Y-47000000D01*
X93700000Y-47000000D02*
X92100000Y-48600000D01*
X78500000Y-37000000D02*
X74800000Y-37000000D01*
X94300000Y-42000000D02*
X103300000Y-33000000D01*
X84200000Y-44000000D02*
X83800000Y-43600000D01*
X90300000Y-48300000D02*
X89400000Y-47400000D01*
X80500000Y-40000000D02*
X78500000Y-38000000D01*
X119200000Y-31700000D02*
X120500000Y-33000000D01*
X93800000Y-47000000D02*
X93775000Y-47000000D01*
X120500000Y-33000000D02*
X122000000Y-33000000D01*
X74800000Y-37000000D02*
X74825000Y-37000000D01*
X94275000Y-42862500D02*
X94300000Y-42900000D01*
X84200000Y-44000000D02*
X84225000Y-44000000D01*
X107800000Y-34500000D02*
X109300000Y-33000000D01*
X94300000Y-42900000D02*
X94300000Y-42000000D01*
X109300000Y-33000000D02*
X117900000Y-33000000D01*
X83800000Y-43600000D02*
X82700000Y-43600000D01*
X82700000Y-42200000D02*
X80500000Y-40000000D01*
X89400000Y-47000000D02*
X89350000Y-47000000D01*
X89300000Y-46700000D02*
X87500000Y-44900000D01*
X87500000Y-44900000D02*
X85100000Y-44900000D01*
X99100000Y-47000000D02*
X93800000Y-47000000D01*
X92100000Y-48600000D02*
X91900000Y-48600000D01*
X91900000Y-48600000D02*
X91700000Y-48800000D01*
X89400000Y-47000000D02*
X89300000Y-46900000D01*
X89300000Y-46900000D02*
X89300000Y-46700000D01*
X117900000Y-33000000D02*
X118200000Y-32700000D01*
X100400000Y-40500000D02*
X102400000Y-40500000D01*
%TO.N,VCOIL*%
X76600000Y-69700000D02*
X76700000Y-69600000D01*
X71800000Y-71000000D02*
X71800000Y-65000000D01*
X68700000Y-65000000D02*
X68700000Y-50100000D01*
X76700000Y-69600000D02*
X76900000Y-69600000D01*
X139800000Y-69000000D02*
X139800000Y-65000000D01*
X51300000Y-65000000D02*
X43900000Y-72400000D01*
X70500000Y-38000000D02*
X71500000Y-37000000D01*
X110500000Y-72300000D02*
X110600000Y-72300000D01*
X109200000Y-71000000D02*
X110500000Y-72300000D01*
X66000000Y-38000000D02*
X64000000Y-38000000D01*
X71800000Y-65000000D02*
X51300000Y-65000000D01*
X76900000Y-69600000D02*
X77000000Y-69500000D01*
X77000000Y-69500000D02*
X102300000Y-69500000D01*
X102300000Y-69500000D02*
X103800000Y-71000000D01*
X43900000Y-72400000D02*
X42700000Y-72400000D01*
X137800000Y-71000000D02*
X139800000Y-69000000D01*
X102300000Y-69500000D02*
X105800000Y-66000000D01*
X67000000Y-39000000D02*
X66000000Y-38000000D01*
X110700000Y-72400000D02*
X136400000Y-72400000D01*
X68700000Y-48100000D02*
X68700000Y-42000000D01*
X136400000Y-72400000D02*
X137800000Y-71000000D01*
X37800000Y-67600000D02*
X37800000Y-65000000D01*
X68700000Y-42000000D02*
X67000000Y-40300000D01*
X139800000Y-65000000D02*
X139850000Y-65000000D01*
X67000000Y-39000000D02*
X68000000Y-38000000D01*
X103800000Y-71000000D02*
X109200000Y-71000000D01*
X67000000Y-40300000D02*
X67000000Y-39000000D01*
X64000000Y-38000000D02*
X59900000Y-38000000D01*
X110600000Y-72300000D02*
X110700000Y-72400000D01*
X71800000Y-65000000D02*
X71850000Y-65000000D01*
X59900000Y-38000000D02*
X59937500Y-38050000D01*
X70500000Y-38000000D02*
X70500000Y-37950000D01*
X64000000Y-38000000D02*
X64000000Y-37950000D01*
X105800000Y-65000000D02*
X105850000Y-65000000D01*
X42700000Y-72400000D02*
X42600000Y-72300000D01*
X76500000Y-69700000D02*
X76600000Y-69700000D01*
X73200000Y-37000000D02*
X73175000Y-37000000D01*
X105800000Y-66000000D02*
X105800000Y-65000000D01*
X42600000Y-72300000D02*
X42500000Y-72300000D01*
X68000000Y-38000000D02*
X70500000Y-38000000D01*
X42500000Y-72300000D02*
X37800000Y-67600000D01*
X37800000Y-65000000D02*
X37850000Y-65000000D01*
X75200000Y-71000000D02*
X76500000Y-69700000D01*
X68700000Y-42000000D02*
X68675000Y-42000000D01*
X38500000Y-68300000D02*
X35800000Y-71000000D01*
X69800000Y-71000000D02*
X75200000Y-71000000D01*
X71500000Y-37000000D02*
X73200000Y-37000000D01*
%TO.N,RLY4_C*%
X143200000Y-65000000D02*
X145200000Y-67000000D01*
X143100000Y-57900000D02*
X145300000Y-57900000D01*
X145300000Y-57900000D02*
X147000000Y-59600000D01*
X143000000Y-64800000D02*
X143000000Y-60600000D01*
X143000000Y-59200000D02*
X143000000Y-58000000D01*
X143000000Y-58000000D02*
X143100000Y-57900000D01*
X147000000Y-59600000D02*
X147000000Y-62937500D01*
X143150000Y-65000000D02*
X143200000Y-65000000D01*
X143200000Y-65000000D02*
X143000000Y-64800000D01*
X145200000Y-67000000D02*
X145200000Y-71000000D01*
%TO.N,LED2_A*%
X89300000Y-61500000D02*
X89325000Y-61500000D01*
X88300000Y-58500000D02*
X89300000Y-59500000D01*
X89300000Y-59500000D02*
X89300000Y-61500000D01*
%TO.N,PWR_LED_A*%
X70300000Y-42000000D02*
X70500000Y-41800000D01*
X70500000Y-41800000D02*
X73000000Y-41800000D01*
X70325000Y-42000000D02*
X70300000Y-42000000D01*
%TO.N,SWDIO*%
X94925000Y-42862500D02*
X94900000Y-42900000D01*
X109000000Y-37000000D02*
X110400000Y-37000000D01*
X110400000Y-37000000D02*
X111000000Y-37600000D01*
X102900000Y-37400000D02*
X104800000Y-35500000D01*
X104800000Y-35500000D02*
X106000000Y-35500000D01*
X108000000Y-36000000D02*
X109000000Y-37000000D01*
X95700000Y-43700000D02*
X96600000Y-43700000D01*
X111000000Y-37600000D02*
X111000000Y-37650000D01*
X94900000Y-42900000D02*
X95700000Y-43700000D01*
%TO.N,SWCLK*%
X107600000Y-36800000D02*
X108400000Y-37600000D01*
X109000000Y-37600000D02*
X109000000Y-37650000D01*
X94925000Y-37137500D02*
X94900000Y-37100000D01*
X99200000Y-38100000D02*
X106000000Y-38100000D01*
X108400000Y-37600000D02*
X109000000Y-37600000D01*
X94900000Y-37100000D02*
X98200000Y-37100000D01*
%TO.N,RLY4_CMD*%
X146300000Y-63700000D02*
X146300000Y-63800000D01*
X154000000Y-63300000D02*
X154500000Y-63300000D01*
X129600000Y-60100000D02*
X129700000Y-60100000D01*
X151500000Y-65800000D02*
X151500000Y-65825000D01*
X148300000Y-65800000D02*
X151500000Y-65800000D01*
X143300000Y-59900000D02*
X146200000Y-62800000D01*
X129800000Y-60000000D02*
X130100000Y-60000000D01*
X129400000Y-60200000D02*
X129500000Y-60200000D01*
X113700000Y-60600000D02*
X129000000Y-60600000D01*
X154500000Y-63300000D02*
X154500000Y-63325000D01*
X92325000Y-42862500D02*
X92300000Y-42900000D01*
X146200000Y-63600000D02*
X146300000Y-63700000D01*
X151500000Y-65800000D02*
X154000000Y-63300000D01*
X93800000Y-46100000D02*
X99200000Y-46100000D01*
X129500000Y-60200000D02*
X129600000Y-60100000D01*
X146300000Y-63800000D02*
X148300000Y-65800000D01*
X92300000Y-44600000D02*
X93800000Y-46100000D01*
X130100000Y-60000000D02*
X130200000Y-59900000D01*
X146200000Y-62800000D02*
X146200000Y-63600000D01*
X130200000Y-59900000D02*
X143300000Y-59900000D01*
X92300000Y-42900000D02*
X92300000Y-44600000D01*
X129700000Y-60100000D02*
X129800000Y-60000000D01*
X129000000Y-60600000D02*
X129400000Y-60200000D01*
X99200000Y-46100000D02*
X113700000Y-60600000D01*
%TO.N,RLY2_CMD*%
X85300000Y-63900000D02*
X85300000Y-64000000D01*
X91000000Y-48000000D02*
X90300000Y-47300000D01*
X89800000Y-62400000D02*
X91000000Y-61200000D01*
X87900000Y-61500000D02*
X88800000Y-62400000D01*
X90300000Y-47300000D02*
X90300000Y-45300000D01*
X87675000Y-61500000D02*
X87700000Y-61500000D01*
X91000000Y-61200000D02*
X91000000Y-48000000D01*
X85300000Y-64000000D02*
X85325000Y-64000000D01*
X88800000Y-62400000D02*
X89800000Y-62400000D01*
X90300000Y-45300000D02*
X91000000Y-44600000D01*
X87700000Y-61500000D02*
X87900000Y-61500000D01*
X91000000Y-42900000D02*
X91025000Y-42862500D01*
X87700000Y-61500000D02*
X85300000Y-63900000D01*
X91000000Y-44600000D02*
X91000000Y-42900000D01*
%TO.N,CH1_COM*%
D38*
X43250000Y-91000000D02*
X49000000Y-91000000D01*
X35750000Y-91000000D02*
X43250000Y-91000000D01*
X49000000Y-91000000D02*
X49000000Y-105000000D01*
%TO.N,CH1_NC*%
X58500000Y-86000000D02*
X58500000Y-105000000D01*
X43250000Y-86000000D02*
X58500000Y-86000000D01*
X35750000Y-86000000D02*
X43250000Y-86000000D01*
%TO.N,CH1_NO*%
X39500000Y-96000000D02*
X43250000Y-96000000D01*
X39500000Y-96000000D02*
X39500000Y-105000000D01*
X35750000Y-96000000D02*
X39500000Y-96000000D01*
%TO.N,RLY1_C*%
D36*
X43200000Y-67000000D02*
X43200000Y-71000000D01*
X47200000Y-59600000D02*
X47500000Y-59900000D01*
X41200000Y-65000000D02*
X43200000Y-67000000D01*
X45100000Y-64000000D02*
X45062500Y-64000000D01*
X42000000Y-59600000D02*
X47200000Y-59600000D01*
X41150000Y-65000000D02*
X41200000Y-65000000D01*
X47500000Y-59900000D02*
X47500000Y-61100000D01*
X45100000Y-63300000D02*
X45100000Y-64000000D01*
X42000000Y-64200000D02*
X42000000Y-59000000D01*
X47500000Y-61100000D02*
X47200000Y-61400000D01*
X47000000Y-61400000D02*
X45100000Y-63300000D01*
X41200000Y-65000000D02*
X42000000Y-64200000D01*
X47200000Y-61400000D02*
X47000000Y-61400000D01*
%TO.N,CH4_NO*%
D38*
X141500000Y-96000000D02*
X141500000Y-105000000D01*
X141500000Y-96000000D02*
X145250000Y-96000000D01*
X137750000Y-96000000D02*
X141500000Y-96000000D01*
%TO.N,CH4_COM*%
X151000000Y-91000000D02*
X151000000Y-105000000D01*
X145250000Y-91000000D02*
X151000000Y-91000000D01*
X137750000Y-91000000D02*
X145250000Y-91000000D01*
%TO.N,CH4_NC*%
X137750000Y-86000000D02*
X145250000Y-86000000D01*
X145250000Y-86000000D02*
X160500000Y-86000000D01*
X160500000Y-86000000D02*
X160500000Y-105000000D01*
%TO.N,RLY1_G*%
D36*
X47900000Y-64000000D02*
X50700000Y-64000000D01*
X46700000Y-60500000D02*
X46700000Y-60700000D01*
X46700000Y-60700000D02*
X43900000Y-63500000D01*
X43900000Y-64400000D02*
X44500000Y-65000000D01*
X46900000Y-65000000D02*
X47900000Y-64000000D01*
X49900000Y-62500000D02*
X50100000Y-62300000D01*
X49800000Y-63200000D02*
X49800000Y-62800000D01*
X50700000Y-64000000D02*
X50675000Y-64000000D01*
X49900000Y-62700000D02*
X49900000Y-62500000D01*
X46675000Y-60500000D02*
X46700000Y-60500000D01*
X46900000Y-65000000D02*
X46937500Y-64950000D01*
X50200000Y-62000000D02*
X50200000Y-60200000D01*
X49800000Y-62800000D02*
X49900000Y-62700000D01*
X44500000Y-65000000D02*
X46900000Y-65000000D01*
X49200000Y-64000000D02*
X49700000Y-63500000D01*
X50100000Y-62300000D02*
X50100000Y-62100000D01*
X49700000Y-63500000D02*
X49700000Y-63300000D01*
X43900000Y-63500000D02*
X43900000Y-64400000D01*
X49700000Y-63300000D02*
X49800000Y-63200000D01*
X50100000Y-62100000D02*
X50200000Y-62000000D01*
X50200000Y-60200000D02*
X47000000Y-57000000D01*
%TO.N,RLY3_C*%
X111200000Y-66900000D02*
X109300000Y-65000000D01*
X113100000Y-65000000D02*
X111200000Y-66900000D01*
X110000000Y-64300000D02*
X110000000Y-59000000D01*
X111200000Y-66900000D02*
X111200000Y-71000000D01*
X109300000Y-65000000D02*
X109150000Y-65000000D01*
X109300000Y-65000000D02*
X110000000Y-64300000D01*
X113062500Y-65000000D02*
X113100000Y-65000000D01*
%TO.N,RLY4_G*%
X148200000Y-61300000D02*
X150500000Y-61300000D01*
X151500000Y-62300000D02*
X151500000Y-64200000D01*
X148000000Y-61100000D02*
X148200000Y-61300000D01*
X148000000Y-61100000D02*
X148000000Y-57000000D01*
X150500000Y-61300000D02*
X150500000Y-61325000D01*
X150500000Y-61300000D02*
X151500000Y-62300000D01*
X151500000Y-64200000D02*
X151500000Y-64175000D01*
X147950000Y-61062500D02*
X148000000Y-61100000D01*
%TO.N,RLY1_CMD*%
X87500000Y-42900000D02*
X88700000Y-41700000D01*
X74900000Y-42900000D02*
X87500000Y-42900000D01*
X56325000Y-61500000D02*
X56300000Y-61500000D01*
X90400000Y-42000000D02*
X90400000Y-42900000D01*
X90400000Y-42900000D02*
X90375000Y-42862500D01*
X90100000Y-41700000D02*
X90400000Y-42000000D01*
X88700000Y-41700000D02*
X90100000Y-41700000D01*
X53800000Y-64000000D02*
X52300000Y-64000000D01*
X52300000Y-64000000D02*
X52325000Y-64000000D01*
X56300000Y-61500000D02*
X74900000Y-42900000D01*
X56300000Y-61500000D02*
X53800000Y-64000000D01*
%TO.N,UART_TX*%
X99700000Y-31300000D02*
X99800000Y-31200000D01*
X88500000Y-42900000D02*
X88200000Y-43200000D01*
X99300000Y-31400000D02*
X99600000Y-31300000D01*
X118600000Y-31200000D02*
X118900000Y-30900000D01*
X122200000Y-30900000D02*
X123300000Y-32000000D01*
X118900000Y-30900000D02*
X122200000Y-30900000D01*
X123300000Y-34000000D02*
X122000000Y-35300000D01*
X123300000Y-32000000D02*
X123300000Y-34000000D01*
X89100000Y-42900000D02*
X88500000Y-42900000D01*
X99600000Y-31300000D02*
X99700000Y-31300000D01*
X127000000Y-36600000D02*
X127000000Y-36650000D01*
X125900000Y-36600000D02*
X127000000Y-36600000D01*
X89075000Y-42862500D02*
X89100000Y-42900000D01*
X99800000Y-31200000D02*
X118600000Y-31200000D01*
X123300000Y-34000000D02*
X125900000Y-36600000D01*
%TO.N,UART_RX*%
X115600000Y-44500000D02*
X99400000Y-44500000D01*
X122500000Y-37600000D02*
X115600000Y-44500000D01*
X99400000Y-44500000D02*
X99100000Y-44200000D01*
X125000000Y-37600000D02*
X122500000Y-37600000D01*
X89700000Y-43700000D02*
X90300000Y-44300000D01*
X89700000Y-42900000D02*
X89700000Y-43700000D01*
X125000000Y-37650000D02*
X125000000Y-37600000D01*
X89725000Y-42862500D02*
X89700000Y-42900000D01*
%TO.N,RLY3_CMD*%
X95600000Y-41700000D02*
X113400000Y-59500000D01*
X119500000Y-62200000D02*
X119500000Y-62175000D01*
X93600000Y-41700000D02*
X94600000Y-40700000D01*
X91700000Y-42900000D02*
X91700000Y-42000000D01*
X118900000Y-59500000D02*
X118500000Y-59900000D01*
X91700000Y-42000000D02*
X92000000Y-41700000D01*
X113400000Y-59500000D02*
X119700000Y-59500000D01*
X118600000Y-61300000D02*
X119500000Y-62200000D01*
X119700000Y-59500000D02*
X119675000Y-59500000D01*
X91675000Y-42862500D02*
X91700000Y-42900000D01*
X92000000Y-41700000D02*
X93600000Y-41700000D01*
%TO.N,BOOT0*%
X92300000Y-36300000D02*
X94800000Y-33800000D01*
X94800000Y-33800000D02*
X94800000Y-33000000D01*
X92300000Y-37100000D02*
X92300000Y-36300000D01*
X94800000Y-33000000D02*
X94825000Y-33000000D01*
X92325000Y-37137500D02*
X92300000Y-37100000D01*
%TO.N,CH2_COM*%
D38*
X77250000Y-91000000D02*
X83000000Y-91000000D01*
X69750000Y-91000000D02*
X77250000Y-91000000D01*
X83000000Y-91000000D02*
X83000000Y-105000000D01*
%TO.N,CH2_NC*%
X69750000Y-86000000D02*
X77250000Y-86000000D01*
X77250000Y-86000000D02*
X92500000Y-86000000D01*
X92500000Y-86000000D02*
X92500000Y-105000000D01*
%TO.N,CH2_NO*%
X73500000Y-96000000D02*
X77250000Y-96000000D01*
X73500000Y-96000000D02*
X73500000Y-105000000D01*
X69750000Y-96000000D02*
X73500000Y-96000000D01*
%TO.N,LED3_A*%
D36*
X121500000Y-59300000D02*
X124500000Y-59300000D01*
X121300000Y-59500000D02*
X121500000Y-59300000D01*
X121325000Y-59500000D02*
X121300000Y-59500000D01*
%TO.N,LED1_A*%
X53300000Y-60100000D02*
X53300000Y-58500000D01*
X54700000Y-61500000D02*
X53300000Y-60100000D01*
X54675000Y-61500000D02*
X54700000Y-61500000D01*
%TO.N,CH3_NO*%
D38*
X103750000Y-96000000D02*
X107500000Y-96000000D01*
X107500000Y-96000000D02*
X111250000Y-96000000D01*
X107500000Y-96000000D02*
X107500000Y-105000000D01*
%TO.N,CH3_COM*%
X111250000Y-91000000D02*
X117000000Y-91000000D01*
X117000000Y-91000000D02*
X117000000Y-105000000D01*
X103750000Y-91000000D02*
X111250000Y-91000000D01*
%TO.N,CH3_NC*%
X111250000Y-86000000D02*
X126500000Y-86000000D01*
X103750000Y-86000000D02*
X111250000Y-86000000D01*
X126500000Y-86000000D02*
X126500000Y-105000000D01*
%TD*%
M02*
