M48
; DRILL file KiCad 10.0.5-10.0.5~ubuntu24.04.1 date 2026-09-02T11:59:12
; FORMAT={-:-/ absolute / metric / decimal}
; #@! TF.CreationDate,2026-09-02T11:59:12-06:00
; #@! TF.GenerationSoftware,Kicad,Pcbnew,10.0.5-10.0.5~ubuntu24.04.1
; #@! TF.FileFunction,Plated,1,2,PTH
FMAT,2
METRIC
; #@! TA.AperFunction,Plated,PTH,ViaDrill
T1C0.300
; #@! TA.AperFunction,Plated,PTH,ComponentDrill
T2C1.000
; #@! TA.AperFunction,Plated,PTH,ComponentDrill
T3C1.300
; #@! TA.AperFunction,Plated,PTH,ComponentDrill
T4C1.400
; #@! TA.AperFunction,Plated,PTH,ComponentDrill
T5C2.000
%
G90
G05
T1
X48.325Y-63.05
X49.45Y-60.5
X50.587Y-58.5
X55.0Y-33.75
X56.05Y-43.0
X64.0Y-34.675
X68.7Y-48.1
X68.7Y-50.1
X70.5Y-34.675
X73.0Y-39.087
X75.4Y-69.0
X78.5Y-32.675
X81.325Y-64.05
X82.45Y-61.5
X82.7Y-42.2
X82.7Y-43.6
X83.1Y-37.0
X84.5Y-39.85
X85.587Y-58.5
X86.9Y-44.0
X87.7Y-35.8
X87.75Y-47.0
X88.2Y-43.2
X89.1Y-35.8
X90.3Y-44.3
X90.3Y-48.3
X91.1Y-47.0
X91.7Y-48.8
X92.05Y-33.0
X92.975Y-44.25
X94.6Y-40.7
X95.6Y-41.7
X96.6Y-43.7
X98.2Y-37.1
X99.1Y-44.2
X99.1Y-47.0
X99.2Y-38.1
X99.3Y-31.4
X102.4Y-40.5
X102.9Y-37.4
X107.6Y-36.8
X107.8Y-34.5
X108.0Y-36.0
X109.0Y-39.25
X111.0Y-39.25
X111.0Y-42.25
X113.6Y-61.5
X114.1Y-58.8
X116.325Y-64.05
X117.45Y-61.5
X118.2Y-32.7
X118.5Y-59.9
X118.6Y-61.3
X119.2Y-31.7
X124.5Y-56.587
X125.0Y-39.25
X127.0Y-38.25
X143.0Y-59.2
X143.0Y-60.6
X146.05Y-59.675
X150.5Y-58.55
X152.588Y-58.5
T2
X106.0Y-33.0
X106.0Y-35.54
X106.0Y-38.08
X106.0Y-40.62
X106.0Y-43.16
X122.0Y-33.0
X122.0Y-35.54
X122.0Y-38.08
X122.0Y-40.62
T3
X35.75Y-71.0
X35.75Y-86.0
X35.75Y-91.0
X35.75Y-96.0
X43.25Y-71.0
X43.25Y-86.0
X43.25Y-91.0
X43.25Y-96.0
X69.75Y-71.0
X69.75Y-86.0
X69.75Y-91.0
X69.75Y-96.0
X77.25Y-71.0
X77.25Y-86.0
X77.25Y-91.0
X77.25Y-96.0
X103.75Y-71.0
X103.75Y-86.0
X103.75Y-91.0
X103.75Y-96.0
X111.25Y-71.0
X111.25Y-86.0
X111.25Y-91.0
X111.25Y-96.0
X137.75Y-71.0
X137.75Y-86.0
X137.75Y-91.0
X137.75Y-96.0
X145.25Y-71.0
X145.25Y-86.0
X145.25Y-91.0
X145.25Y-96.0
T4
X44.46Y-37.0
X49.54Y-37.0
T5
X39.5Y-105.0
X49.0Y-105.0
X58.5Y-105.0
X73.5Y-105.0
X83.0Y-105.0
X92.5Y-105.0
X107.5Y-105.0
X117.0Y-105.0
X126.5Y-105.0
X141.5Y-105.0
X151.0Y-105.0
X160.5Y-105.0
M30
