%TF.GenerationSoftware,KiCad,Pcbnew,10.0.5-10.0.5~ubuntu24.04.1*%
%TF.CreationDate,2026-09-02T12:33:48-06:00*%
%TF.ProjectId,quad_relay_controller,71756164-5f72-4656-9c61-795f636f6e74,rev?*%
%TF.SameCoordinates,Original*%
%TF.FileFunction,Legend,Bot*%
%TF.FilePolarity,Positive*%
%FSLAX46Y46*%
G04 Gerber Fmt 4.6, Leading zero omitted, Abs format (unit mm)*
G04 Created by KiCad (PCBNEW 10.0.5-10.0.5~ubuntu24.04.1) date 2026-09-02 12:33:48*
%MOMM*%
%LPD*%
G01*
G04 APERTURE LIST*
G04 Aperture macros list*
%AMRoundRect*
0 Rectangle with rounded corners*
0 $1 Rounding radius*
0 $2 $3 $4 $5 $6 $7 $8 $9 X,Y pos of 4 corners*
0 Add a 4 corners polygon primitive as box body*
4,1,4,$2,$3,$4,$5,$6,$7,$8,$9,$2,$3,0*
0 Add four circle primitives for the rounded corners*
1,1,$1+$1,$2,$3*
1,1,$1+$1,$4,$5*
1,1,$1+$1,$6,$7*
1,1,$1+$1,$8,$9*
0 Add four rect primitives between the rounded corners*
20,1,$1+$1,$2,$3,$4,$5,0*
20,1,$1+$1,$4,$5,$6,$7,0*
20,1,$1+$1,$6,$7,$8,$9,0*
20,1,$1+$1,$8,$9,$2,$3,0*%
G04 Aperture macros list end*
%ADD10C,3.200000*%
%ADD11R,1.700000X1.700000*%
%ADD12C,1.700000*%
%ADD13C,2.000000*%
%ADD14R,2.000000X2.000000*%
%ADD15RoundRect,0.250001X-1.399999X-3.049999X1.399999X-3.049999X1.399999X3.049999X-1.399999X3.049999X0*%
%ADD16O,3.300000X6.600000*%
%ADD17R,2.600000X2.600000*%
%ADD18C,2.600000*%
G04 APERTURE END LIST*
%LPC*%
D10*
%TO.C,H1*%
X35000000Y-35000000D03*
%TD*%
D11*
%TO.C,J6*%
X106000000Y-33000000D03*
D12*
X106000000Y-35540000D03*
X106000000Y-38080000D03*
X106000000Y-40620000D03*
X106000000Y-43160000D03*
%TD*%
D13*
%TO.C,K1*%
X35750000Y-91000000D03*
X43250000Y-91000000D03*
X35750000Y-86000000D03*
X43250000Y-86000000D03*
X35750000Y-96000000D03*
X43250000Y-96000000D03*
D14*
X35750000Y-71000000D03*
D13*
X43250000Y-71000000D03*
%TD*%
D15*
%TO.C,J5*%
X141500000Y-105000000D03*
D16*
X151000000Y-105000000D03*
X160500000Y-105000000D03*
%TD*%
D10*
%TO.C,H3*%
X62500000Y-62000000D03*
%TD*%
D15*
%TO.C,J2*%
X39500000Y-105000000D03*
D16*
X49000000Y-105000000D03*
X58500000Y-105000000D03*
%TD*%
D13*
%TO.C,K4*%
X137750000Y-91000000D03*
X145250000Y-91000000D03*
X137750000Y-86000000D03*
X145250000Y-86000000D03*
X137750000Y-96000000D03*
X145250000Y-96000000D03*
D14*
X137750000Y-71000000D03*
D13*
X145250000Y-71000000D03*
%TD*%
%TO.C,K2*%
X69750000Y-91000000D03*
X77250000Y-91000000D03*
X69750000Y-86000000D03*
X77250000Y-86000000D03*
X69750000Y-96000000D03*
X77250000Y-96000000D03*
D14*
X69750000Y-71000000D03*
D13*
X77250000Y-71000000D03*
%TD*%
D11*
%TO.C,J7*%
X122000000Y-33000000D03*
D12*
X122000000Y-35540000D03*
X122000000Y-38080000D03*
X122000000Y-40620000D03*
%TD*%
D15*
%TO.C,J3*%
X73500000Y-105000000D03*
D16*
X83000000Y-105000000D03*
X92500000Y-105000000D03*
%TD*%
D10*
%TO.C,H2*%
X165000000Y-35000000D03*
%TD*%
%TO.C,H4*%
X130500000Y-62000000D03*
%TD*%
D15*
%TO.C,J4*%
X107500000Y-105000000D03*
D16*
X117000000Y-105000000D03*
X126500000Y-105000000D03*
%TD*%
D13*
%TO.C,K3*%
X103750000Y-91000000D03*
X111250000Y-91000000D03*
X103750000Y-86000000D03*
X111250000Y-86000000D03*
X103750000Y-96000000D03*
X111250000Y-96000000D03*
D14*
X103750000Y-71000000D03*
D13*
X111250000Y-71000000D03*
%TD*%
D17*
%TO.C,J1*%
X44460000Y-37000000D03*
D18*
X49540000Y-37000000D03*
%TD*%
%LPD*%
M02*
