%TF.GenerationSoftware,KiCad,Pcbnew,10.0.5-10.0.5~ubuntu24.04.1*%
%TF.CreationDate,2026-09-02T12:33:48-06:00*%
%TF.ProjectId,quad_relay_controller,71756164-5f72-4656-9c61-795f636f6e74,rev?*%
%TF.SameCoordinates,Original*%
%TF.FileFunction,Legend,Top*%
%TF.FilePolarity,Positive*%
%FSLAX46Y46*%
G04 Gerber Fmt 4.6, Leading zero omitted, Abs format (unit mm)*
G04 Created by KiCad (PCBNEW 10.0.5-10.0.5~ubuntu24.04.1) date 2026-09-02 12:33:48*
%MOMM*%
%LPD*%
G01*
G04 APERTURE LIST*
G04 Aperture macros list*
%AMRoundRect*
0 Rectangle with rounded corners*
0 $1 Rounding radius*
0 $2 $3 $4 $5 $6 $7 $8 $9 X,Y pos of 4 corners*
0 Add a 4 corners polygon primitive as box body*
4,1,4,$2,$3,$4,$5,$6,$7,$8,$9,$2,$3,0*
0 Add four circle primitives for the rounded corners*
1,1,$1+$1,$2,$3*
1,1,$1+$1,$4,$5*
1,1,$1+$1,$6,$7*
1,1,$1+$1,$8,$9*
0 Add four rect primitives between the rounded corners*
20,1,$1+$1,$2,$3,$4,$5,0*
20,1,$1+$1,$4,$5,$6,$7,0*
20,1,$1+$1,$6,$7,$8,$9,0*
20,1,$1+$1,$8,$9,$2,$3,0*%
G04 Aperture macros list end*
%ADD10C,0.250000*%
%ADD11C,0.200000*%
%ADD12C,0.120000*%
%ADD13RoundRect,0.225000X0.225000X0.250000X-0.225000X0.250000X-0.225000X-0.250000X0.225000X-0.250000X0*%
%ADD14RoundRect,0.218750X-0.218750X-0.256250X0.218750X-0.256250X0.218750X0.256250X-0.218750X0.256250X0*%
%ADD15RoundRect,0.200000X0.200000X0.275000X-0.200000X0.275000X-0.200000X-0.275000X0.200000X-0.275000X0*%
%ADD16RoundRect,0.050010X0.199990X-0.099990X0.199990X0.099990X-0.199990X0.099990X-0.199990X-0.099990X0*%
%ADD17C,1.000000*%
%ADD18RoundRect,0.150000X0.587500X0.150000X-0.587500X0.150000X-0.587500X-0.150000X0.587500X-0.150000X0*%
%ADD19C,3.200000*%
%ADD20RoundRect,0.225000X-0.225000X-0.375000X0.225000X-0.375000X0.225000X0.375000X-0.225000X0.375000X0*%
%ADD21RoundRect,0.200000X-0.200000X-0.275000X0.200000X-0.275000X0.200000X0.275000X-0.200000X0.275000X0*%
%ADD22R,1.700000X1.700000*%
%ADD23C,1.700000*%
%ADD24RoundRect,0.200000X0.275000X-0.200000X0.275000X0.200000X-0.275000X0.200000X-0.275000X-0.200000X0*%
%ADD25C,2.000000*%
%ADD26R,2.000000X2.000000*%
%ADD27RoundRect,0.050010X-0.199990X0.099990X-0.199990X-0.099990X0.199990X-0.099990X0.199990X0.099990X0*%
%ADD28RoundRect,0.250001X-1.399999X-3.049999X1.399999X-3.049999X1.399999X3.049999X-1.399999X3.049999X0*%
%ADD29O,3.300000X6.600000*%
%ADD30RoundRect,0.250000X0.475000X-0.250000X0.475000X0.250000X-0.475000X0.250000X-0.475000X-0.250000X0*%
%ADD31RoundRect,0.100000X0.100000X-0.637500X0.100000X0.637500X-0.100000X0.637500X-0.100000X-0.637500X0*%
%ADD32RoundRect,0.218750X-0.256250X0.218750X-0.256250X-0.218750X0.256250X-0.218750X0.256250X0.218750X0*%
%ADD33RoundRect,0.150000X-0.150000X0.587500X-0.150000X-0.587500X0.150000X-0.587500X0.150000X0.587500X0*%
%ADD34RoundRect,0.050010X-0.099990X-0.199990X0.099990X-0.199990X0.099990X0.199990X-0.099990X0.199990X0*%
%ADD35R,2.600000X2.600000*%
%ADD36C,2.600000*%
%ADD37RoundRect,0.225000X-0.225000X-0.250000X0.225000X-0.250000X0.225000X0.250000X-0.225000X0.250000X0*%
%ADD38RoundRect,0.200000X-0.275000X0.200000X-0.275000X-0.200000X0.275000X-0.200000X0.275000X0.200000X0*%
G04 APERTURE END LIST*
D10*
X47100000Y-77000000D02*
X65599999Y-77000000D01*
X47100000Y-84000000D02*
X65599999Y-84000000D01*
X81100000Y-77000000D02*
X99600000Y-77000000D01*
X81100000Y-84000000D02*
X99600000Y-84000000D01*
X115100000Y-77000000D02*
X133600000Y-77000000D01*
X115100000Y-84000000D02*
X133600000Y-84000000D01*
X149100000Y-77000000D02*
X169000000Y-77000000D01*
X149100000Y-84000000D02*
X169000000Y-84000000D01*
D11*
X43828571Y-59359695D02*
X43371428Y-59359695D01*
X43600000Y-59359695D02*
X43600000Y-58559695D01*
X43600000Y-58559695D02*
X43523809Y-58673980D01*
X43523809Y-58673980D02*
X43447619Y-58750171D01*
X43447619Y-58750171D02*
X43371428Y-58788266D01*
X44628572Y-59283504D02*
X44590476Y-59321600D01*
X44590476Y-59321600D02*
X44476191Y-59359695D01*
X44476191Y-59359695D02*
X44400000Y-59359695D01*
X44400000Y-59359695D02*
X44285714Y-59321600D01*
X44285714Y-59321600D02*
X44209524Y-59245409D01*
X44209524Y-59245409D02*
X44171429Y-59169219D01*
X44171429Y-59169219D02*
X44133333Y-59016838D01*
X44133333Y-59016838D02*
X44133333Y-58902552D01*
X44133333Y-58902552D02*
X44171429Y-58750171D01*
X44171429Y-58750171D02*
X44209524Y-58673980D01*
X44209524Y-58673980D02*
X44285714Y-58597790D01*
X44285714Y-58597790D02*
X44400000Y-58559695D01*
X44400000Y-58559695D02*
X44476191Y-58559695D01*
X44476191Y-58559695D02*
X44590476Y-58597790D01*
X44590476Y-58597790D02*
X44628572Y-58635885D01*
X48828571Y-57359695D02*
X48371428Y-57359695D01*
X48600000Y-57359695D02*
X48600000Y-56559695D01*
X48600000Y-56559695D02*
X48523809Y-56673980D01*
X48523809Y-56673980D02*
X48447619Y-56750171D01*
X48447619Y-56750171D02*
X48371428Y-56788266D01*
X49590476Y-56597790D02*
X49514286Y-56559695D01*
X49514286Y-56559695D02*
X49400000Y-56559695D01*
X49400000Y-56559695D02*
X49285714Y-56597790D01*
X49285714Y-56597790D02*
X49209524Y-56673980D01*
X49209524Y-56673980D02*
X49171429Y-56750171D01*
X49171429Y-56750171D02*
X49133333Y-56902552D01*
X49133333Y-56902552D02*
X49133333Y-57016838D01*
X49133333Y-57016838D02*
X49171429Y-57169219D01*
X49171429Y-57169219D02*
X49209524Y-57245409D01*
X49209524Y-57245409D02*
X49285714Y-57321600D01*
X49285714Y-57321600D02*
X49400000Y-57359695D01*
X49400000Y-57359695D02*
X49476191Y-57359695D01*
X49476191Y-57359695D02*
X49590476Y-57321600D01*
X49590476Y-57321600D02*
X49628572Y-57283504D01*
X49628572Y-57283504D02*
X49628572Y-57016838D01*
X49628572Y-57016838D02*
X49476191Y-57016838D01*
X53742857Y-39559695D02*
X54009524Y-40359695D01*
X54009524Y-40359695D02*
X54276190Y-39559695D01*
X54923809Y-39559695D02*
X54542857Y-39559695D01*
X54542857Y-39559695D02*
X54504761Y-39940647D01*
X54504761Y-39940647D02*
X54542857Y-39902552D01*
X54542857Y-39902552D02*
X54619047Y-39864457D01*
X54619047Y-39864457D02*
X54809523Y-39864457D01*
X54809523Y-39864457D02*
X54885714Y-39902552D01*
X54885714Y-39902552D02*
X54923809Y-39940647D01*
X54923809Y-39940647D02*
X54961904Y-40016838D01*
X54961904Y-40016838D02*
X54961904Y-40207314D01*
X54961904Y-40207314D02*
X54923809Y-40283504D01*
X54923809Y-40283504D02*
X54885714Y-40321600D01*
X54885714Y-40321600D02*
X54809523Y-40359695D01*
X54809523Y-40359695D02*
X54619047Y-40359695D01*
X54619047Y-40359695D02*
X54542857Y-40321600D01*
X54542857Y-40321600D02*
X54504761Y-40283504D01*
X55304762Y-40359695D02*
X55304762Y-39559695D01*
X55685714Y-40359695D02*
X55685714Y-39559695D01*
X55685714Y-39559695D02*
X56142857Y-40359695D01*
X56142857Y-40359695D02*
X56142857Y-39559695D01*
X65400000Y-36559695D02*
X65666667Y-37359695D01*
X65666667Y-37359695D02*
X65933333Y-36559695D01*
X66657143Y-37283504D02*
X66619047Y-37321600D01*
X66619047Y-37321600D02*
X66504762Y-37359695D01*
X66504762Y-37359695D02*
X66428571Y-37359695D01*
X66428571Y-37359695D02*
X66314285Y-37321600D01*
X66314285Y-37321600D02*
X66238095Y-37245409D01*
X66238095Y-37245409D02*
X66200000Y-37169219D01*
X66200000Y-37169219D02*
X66161904Y-37016838D01*
X66161904Y-37016838D02*
X66161904Y-36902552D01*
X66161904Y-36902552D02*
X66200000Y-36750171D01*
X66200000Y-36750171D02*
X66238095Y-36673980D01*
X66238095Y-36673980D02*
X66314285Y-36597790D01*
X66314285Y-36597790D02*
X66428571Y-36559695D01*
X66428571Y-36559695D02*
X66504762Y-36559695D01*
X66504762Y-36559695D02*
X66619047Y-36597790D01*
X66619047Y-36597790D02*
X66657143Y-36635885D01*
X67152381Y-36559695D02*
X67304762Y-36559695D01*
X67304762Y-36559695D02*
X67380952Y-36597790D01*
X67380952Y-36597790D02*
X67457143Y-36673980D01*
X67457143Y-36673980D02*
X67495238Y-36826361D01*
X67495238Y-36826361D02*
X67495238Y-37093028D01*
X67495238Y-37093028D02*
X67457143Y-37245409D01*
X67457143Y-37245409D02*
X67380952Y-37321600D01*
X67380952Y-37321600D02*
X67304762Y-37359695D01*
X67304762Y-37359695D02*
X67152381Y-37359695D01*
X67152381Y-37359695D02*
X67076190Y-37321600D01*
X67076190Y-37321600D02*
X67000000Y-37245409D01*
X67000000Y-37245409D02*
X66961904Y-37093028D01*
X66961904Y-37093028D02*
X66961904Y-36826361D01*
X66961904Y-36826361D02*
X67000000Y-36673980D01*
X67000000Y-36673980D02*
X67076190Y-36597790D01*
X67076190Y-36597790D02*
X67152381Y-36559695D01*
X67838095Y-37359695D02*
X67838095Y-36559695D01*
X68599999Y-37359695D02*
X68219047Y-37359695D01*
X68219047Y-37359695D02*
X68219047Y-36559695D01*
X77371428Y-58635885D02*
X77409524Y-58597790D01*
X77409524Y-58597790D02*
X77485714Y-58559695D01*
X77485714Y-58559695D02*
X77676190Y-58559695D01*
X77676190Y-58559695D02*
X77752381Y-58597790D01*
X77752381Y-58597790D02*
X77790476Y-58635885D01*
X77790476Y-58635885D02*
X77828571Y-58712076D01*
X77828571Y-58712076D02*
X77828571Y-58788266D01*
X77828571Y-58788266D02*
X77790476Y-58902552D01*
X77790476Y-58902552D02*
X77333333Y-59359695D01*
X77333333Y-59359695D02*
X77828571Y-59359695D01*
X78628572Y-59283504D02*
X78590476Y-59321600D01*
X78590476Y-59321600D02*
X78476191Y-59359695D01*
X78476191Y-59359695D02*
X78400000Y-59359695D01*
X78400000Y-59359695D02*
X78285714Y-59321600D01*
X78285714Y-59321600D02*
X78209524Y-59245409D01*
X78209524Y-59245409D02*
X78171429Y-59169219D01*
X78171429Y-59169219D02*
X78133333Y-59016838D01*
X78133333Y-59016838D02*
X78133333Y-58902552D01*
X78133333Y-58902552D02*
X78171429Y-58750171D01*
X78171429Y-58750171D02*
X78209524Y-58673980D01*
X78209524Y-58673980D02*
X78285714Y-58597790D01*
X78285714Y-58597790D02*
X78400000Y-58559695D01*
X78400000Y-58559695D02*
X78476191Y-58559695D01*
X78476191Y-58559695D02*
X78590476Y-58597790D01*
X78590476Y-58597790D02*
X78628572Y-58635885D01*
X77471429Y-40054933D02*
X78080953Y-40054933D01*
X77776191Y-40359695D02*
X77776191Y-39750171D01*
X78842857Y-39559695D02*
X78461905Y-39559695D01*
X78461905Y-39559695D02*
X78423809Y-39940647D01*
X78423809Y-39940647D02*
X78461905Y-39902552D01*
X78461905Y-39902552D02*
X78538095Y-39864457D01*
X78538095Y-39864457D02*
X78728571Y-39864457D01*
X78728571Y-39864457D02*
X78804762Y-39902552D01*
X78804762Y-39902552D02*
X78842857Y-39940647D01*
X78842857Y-39940647D02*
X78880952Y-40016838D01*
X78880952Y-40016838D02*
X78880952Y-40207314D01*
X78880952Y-40207314D02*
X78842857Y-40283504D01*
X78842857Y-40283504D02*
X78804762Y-40321600D01*
X78804762Y-40321600D02*
X78728571Y-40359695D01*
X78728571Y-40359695D02*
X78538095Y-40359695D01*
X78538095Y-40359695D02*
X78461905Y-40321600D01*
X78461905Y-40321600D02*
X78423809Y-40283504D01*
X79109524Y-39559695D02*
X79376191Y-40359695D01*
X79376191Y-40359695D02*
X79642857Y-39559695D01*
X81371428Y-57635885D02*
X81409524Y-57597790D01*
X81409524Y-57597790D02*
X81485714Y-57559695D01*
X81485714Y-57559695D02*
X81676190Y-57559695D01*
X81676190Y-57559695D02*
X81752381Y-57597790D01*
X81752381Y-57597790D02*
X81790476Y-57635885D01*
X81790476Y-57635885D02*
X81828571Y-57712076D01*
X81828571Y-57712076D02*
X81828571Y-57788266D01*
X81828571Y-57788266D02*
X81790476Y-57902552D01*
X81790476Y-57902552D02*
X81333333Y-58359695D01*
X81333333Y-58359695D02*
X81828571Y-58359695D01*
X82590476Y-57597790D02*
X82514286Y-57559695D01*
X82514286Y-57559695D02*
X82400000Y-57559695D01*
X82400000Y-57559695D02*
X82285714Y-57597790D01*
X82285714Y-57597790D02*
X82209524Y-57673980D01*
X82209524Y-57673980D02*
X82171429Y-57750171D01*
X82171429Y-57750171D02*
X82133333Y-57902552D01*
X82133333Y-57902552D02*
X82133333Y-58016838D01*
X82133333Y-58016838D02*
X82171429Y-58169219D01*
X82171429Y-58169219D02*
X82209524Y-58245409D01*
X82209524Y-58245409D02*
X82285714Y-58321600D01*
X82285714Y-58321600D02*
X82400000Y-58359695D01*
X82400000Y-58359695D02*
X82476191Y-58359695D01*
X82476191Y-58359695D02*
X82590476Y-58321600D01*
X82590476Y-58321600D02*
X82628572Y-58283504D01*
X82628572Y-58283504D02*
X82628572Y-58016838D01*
X82628572Y-58016838D02*
X82476191Y-58016838D01*
X85890476Y-40597790D02*
X85814286Y-40559695D01*
X85814286Y-40559695D02*
X85700000Y-40559695D01*
X85700000Y-40559695D02*
X85585714Y-40597790D01*
X85585714Y-40597790D02*
X85509524Y-40673980D01*
X85509524Y-40673980D02*
X85471429Y-40750171D01*
X85471429Y-40750171D02*
X85433333Y-40902552D01*
X85433333Y-40902552D02*
X85433333Y-41016838D01*
X85433333Y-41016838D02*
X85471429Y-41169219D01*
X85471429Y-41169219D02*
X85509524Y-41245409D01*
X85509524Y-41245409D02*
X85585714Y-41321600D01*
X85585714Y-41321600D02*
X85700000Y-41359695D01*
X85700000Y-41359695D02*
X85776191Y-41359695D01*
X85776191Y-41359695D02*
X85890476Y-41321600D01*
X85890476Y-41321600D02*
X85928572Y-41283504D01*
X85928572Y-41283504D02*
X85928572Y-41016838D01*
X85928572Y-41016838D02*
X85776191Y-41016838D01*
X86271429Y-41359695D02*
X86271429Y-40559695D01*
X86271429Y-40559695D02*
X86728572Y-41359695D01*
X86728572Y-41359695D02*
X86728572Y-40559695D01*
X87109524Y-41359695D02*
X87109524Y-40559695D01*
X87109524Y-40559695D02*
X87300000Y-40559695D01*
X87300000Y-40559695D02*
X87414286Y-40597790D01*
X87414286Y-40597790D02*
X87490476Y-40673980D01*
X87490476Y-40673980D02*
X87528571Y-40750171D01*
X87528571Y-40750171D02*
X87566667Y-40902552D01*
X87566667Y-40902552D02*
X87566667Y-41016838D01*
X87566667Y-41016838D02*
X87528571Y-41169219D01*
X87528571Y-41169219D02*
X87490476Y-41245409D01*
X87490476Y-41245409D02*
X87414286Y-41321600D01*
X87414286Y-41321600D02*
X87300000Y-41359695D01*
X87300000Y-41359695D02*
X87109524Y-41359695D01*
X111333333Y-58559695D02*
X111828571Y-58559695D01*
X111828571Y-58559695D02*
X111561905Y-58864457D01*
X111561905Y-58864457D02*
X111676190Y-58864457D01*
X111676190Y-58864457D02*
X111752381Y-58902552D01*
X111752381Y-58902552D02*
X111790476Y-58940647D01*
X111790476Y-58940647D02*
X111828571Y-59016838D01*
X111828571Y-59016838D02*
X111828571Y-59207314D01*
X111828571Y-59207314D02*
X111790476Y-59283504D01*
X111790476Y-59283504D02*
X111752381Y-59321600D01*
X111752381Y-59321600D02*
X111676190Y-59359695D01*
X111676190Y-59359695D02*
X111447619Y-59359695D01*
X111447619Y-59359695D02*
X111371428Y-59321600D01*
X111371428Y-59321600D02*
X111333333Y-59283504D01*
X112628572Y-59283504D02*
X112590476Y-59321600D01*
X112590476Y-59321600D02*
X112476191Y-59359695D01*
X112476191Y-59359695D02*
X112400000Y-59359695D01*
X112400000Y-59359695D02*
X112285714Y-59321600D01*
X112285714Y-59321600D02*
X112209524Y-59245409D01*
X112209524Y-59245409D02*
X112171429Y-59169219D01*
X112171429Y-59169219D02*
X112133333Y-59016838D01*
X112133333Y-59016838D02*
X112133333Y-58902552D01*
X112133333Y-58902552D02*
X112171429Y-58750171D01*
X112171429Y-58750171D02*
X112209524Y-58673980D01*
X112209524Y-58673980D02*
X112285714Y-58597790D01*
X112285714Y-58597790D02*
X112400000Y-58559695D01*
X112400000Y-58559695D02*
X112476191Y-58559695D01*
X112476191Y-58559695D02*
X112590476Y-58597790D01*
X112590476Y-58597790D02*
X112628572Y-58635885D01*
X116333333Y-57559695D02*
X116828571Y-57559695D01*
X116828571Y-57559695D02*
X116561905Y-57864457D01*
X116561905Y-57864457D02*
X116676190Y-57864457D01*
X116676190Y-57864457D02*
X116752381Y-57902552D01*
X116752381Y-57902552D02*
X116790476Y-57940647D01*
X116790476Y-57940647D02*
X116828571Y-58016838D01*
X116828571Y-58016838D02*
X116828571Y-58207314D01*
X116828571Y-58207314D02*
X116790476Y-58283504D01*
X116790476Y-58283504D02*
X116752381Y-58321600D01*
X116752381Y-58321600D02*
X116676190Y-58359695D01*
X116676190Y-58359695D02*
X116447619Y-58359695D01*
X116447619Y-58359695D02*
X116371428Y-58321600D01*
X116371428Y-58321600D02*
X116333333Y-58283504D01*
X117590476Y-57597790D02*
X117514286Y-57559695D01*
X117514286Y-57559695D02*
X117400000Y-57559695D01*
X117400000Y-57559695D02*
X117285714Y-57597790D01*
X117285714Y-57597790D02*
X117209524Y-57673980D01*
X117209524Y-57673980D02*
X117171429Y-57750171D01*
X117171429Y-57750171D02*
X117133333Y-57902552D01*
X117133333Y-57902552D02*
X117133333Y-58016838D01*
X117133333Y-58016838D02*
X117171429Y-58169219D01*
X117171429Y-58169219D02*
X117209524Y-58245409D01*
X117209524Y-58245409D02*
X117285714Y-58321600D01*
X117285714Y-58321600D02*
X117400000Y-58359695D01*
X117400000Y-58359695D02*
X117476191Y-58359695D01*
X117476191Y-58359695D02*
X117590476Y-58321600D01*
X117590476Y-58321600D02*
X117628572Y-58283504D01*
X117628572Y-58283504D02*
X117628572Y-58016838D01*
X117628572Y-58016838D02*
X117476191Y-58016838D01*
X144752381Y-57826361D02*
X144752381Y-58359695D01*
X144561905Y-57521600D02*
X144371428Y-58093028D01*
X144371428Y-58093028D02*
X144866667Y-58093028D01*
X145628572Y-58283504D02*
X145590476Y-58321600D01*
X145590476Y-58321600D02*
X145476191Y-58359695D01*
X145476191Y-58359695D02*
X145400000Y-58359695D01*
X145400000Y-58359695D02*
X145285714Y-58321600D01*
X145285714Y-58321600D02*
X145209524Y-58245409D01*
X145209524Y-58245409D02*
X145171429Y-58169219D01*
X145171429Y-58169219D02*
X145133333Y-58016838D01*
X145133333Y-58016838D02*
X145133333Y-57902552D01*
X145133333Y-57902552D02*
X145171429Y-57750171D01*
X145171429Y-57750171D02*
X145209524Y-57673980D01*
X145209524Y-57673980D02*
X145285714Y-57597790D01*
X145285714Y-57597790D02*
X145400000Y-57559695D01*
X145400000Y-57559695D02*
X145476191Y-57559695D01*
X145476191Y-57559695D02*
X145590476Y-57597790D01*
X145590476Y-57597790D02*
X145628572Y-57635885D01*
X149752381Y-56826361D02*
X149752381Y-57359695D01*
X149561905Y-56521600D02*
X149371428Y-57093028D01*
X149371428Y-57093028D02*
X149866667Y-57093028D01*
X150590476Y-56597790D02*
X150514286Y-56559695D01*
X150514286Y-56559695D02*
X150400000Y-56559695D01*
X150400000Y-56559695D02*
X150285714Y-56597790D01*
X150285714Y-56597790D02*
X150209524Y-56673980D01*
X150209524Y-56673980D02*
X150171429Y-56750171D01*
X150171429Y-56750171D02*
X150133333Y-56902552D01*
X150133333Y-56902552D02*
X150133333Y-57016838D01*
X150133333Y-57016838D02*
X150171429Y-57169219D01*
X150171429Y-57169219D02*
X150209524Y-57245409D01*
X150209524Y-57245409D02*
X150285714Y-57321600D01*
X150285714Y-57321600D02*
X150400000Y-57359695D01*
X150400000Y-57359695D02*
X150476191Y-57359695D01*
X150476191Y-57359695D02*
X150590476Y-57321600D01*
X150590476Y-57321600D02*
X150628572Y-57283504D01*
X150628572Y-57283504D02*
X150628572Y-57016838D01*
X150628572Y-57016838D02*
X150476191Y-57016838D01*
X37380952Y-99756980D02*
X37333333Y-99804600D01*
X37333333Y-99804600D02*
X37190476Y-99852219D01*
X37190476Y-99852219D02*
X37095238Y-99852219D01*
X37095238Y-99852219D02*
X36952381Y-99804600D01*
X36952381Y-99804600D02*
X36857143Y-99709361D01*
X36857143Y-99709361D02*
X36809524Y-99614123D01*
X36809524Y-99614123D02*
X36761905Y-99423647D01*
X36761905Y-99423647D02*
X36761905Y-99280790D01*
X36761905Y-99280790D02*
X36809524Y-99090314D01*
X36809524Y-99090314D02*
X36857143Y-98995076D01*
X36857143Y-98995076D02*
X36952381Y-98899838D01*
X36952381Y-98899838D02*
X37095238Y-98852219D01*
X37095238Y-98852219D02*
X37190476Y-98852219D01*
X37190476Y-98852219D02*
X37333333Y-98899838D01*
X37333333Y-98899838D02*
X37380952Y-98947457D01*
X37809524Y-99852219D02*
X37809524Y-98852219D01*
X37809524Y-99328409D02*
X38380952Y-99328409D01*
X38380952Y-99852219D02*
X38380952Y-98852219D01*
X39380952Y-99852219D02*
X38809524Y-99852219D01*
X39095238Y-99852219D02*
X39095238Y-98852219D01*
X39095238Y-98852219D02*
X39000000Y-98995076D01*
X39000000Y-98995076D02*
X38904762Y-99090314D01*
X38904762Y-99090314D02*
X38809524Y-99137933D01*
X40571429Y-99852219D02*
X40571429Y-98852219D01*
X40571429Y-98852219D02*
X41142857Y-99852219D01*
X41142857Y-99852219D02*
X41142857Y-98852219D01*
X41809524Y-98852219D02*
X42000000Y-98852219D01*
X42000000Y-98852219D02*
X42095238Y-98899838D01*
X42095238Y-98899838D02*
X42190476Y-98995076D01*
X42190476Y-98995076D02*
X42238095Y-99185552D01*
X42238095Y-99185552D02*
X42238095Y-99518885D01*
X42238095Y-99518885D02*
X42190476Y-99709361D01*
X42190476Y-99709361D02*
X42095238Y-99804600D01*
X42095238Y-99804600D02*
X42000000Y-99852219D01*
X42000000Y-99852219D02*
X41809524Y-99852219D01*
X41809524Y-99852219D02*
X41714286Y-99804600D01*
X41714286Y-99804600D02*
X41619048Y-99709361D01*
X41619048Y-99709361D02*
X41571429Y-99518885D01*
X41571429Y-99518885D02*
X41571429Y-99185552D01*
X41571429Y-99185552D02*
X41619048Y-98995076D01*
X41619048Y-98995076D02*
X41714286Y-98899838D01*
X41714286Y-98899838D02*
X41809524Y-98852219D01*
X39261904Y-43852219D02*
X38785714Y-43852219D01*
X38785714Y-43852219D02*
X38738095Y-44328409D01*
X38738095Y-44328409D02*
X38785714Y-44280790D01*
X38785714Y-44280790D02*
X38880952Y-44233171D01*
X38880952Y-44233171D02*
X39119047Y-44233171D01*
X39119047Y-44233171D02*
X39214285Y-44280790D01*
X39214285Y-44280790D02*
X39261904Y-44328409D01*
X39261904Y-44328409D02*
X39309523Y-44423647D01*
X39309523Y-44423647D02*
X39309523Y-44661742D01*
X39309523Y-44661742D02*
X39261904Y-44756980D01*
X39261904Y-44756980D02*
X39214285Y-44804600D01*
X39214285Y-44804600D02*
X39119047Y-44852219D01*
X39119047Y-44852219D02*
X38880952Y-44852219D01*
X38880952Y-44852219D02*
X38785714Y-44804600D01*
X38785714Y-44804600D02*
X38738095Y-44756980D01*
X39595238Y-43852219D02*
X39928571Y-44852219D01*
X39928571Y-44852219D02*
X40261904Y-43852219D01*
X41357143Y-44852219D02*
X41357143Y-43852219D01*
X41833333Y-44852219D02*
X41833333Y-43852219D01*
X41833333Y-43852219D02*
X42404761Y-44852219D01*
X42404761Y-44852219D02*
X42404761Y-43852219D01*
X44071428Y-44185552D02*
X44071428Y-44852219D01*
X43833333Y-43804600D02*
X43595238Y-44518885D01*
X43595238Y-44518885D02*
X44214285Y-44518885D01*
X44595238Y-44756980D02*
X44642857Y-44804600D01*
X44642857Y-44804600D02*
X44595238Y-44852219D01*
X44595238Y-44852219D02*
X44547619Y-44804600D01*
X44547619Y-44804600D02*
X44595238Y-44756980D01*
X44595238Y-44756980D02*
X44595238Y-44852219D01*
X44976190Y-43852219D02*
X45642856Y-43852219D01*
X45642856Y-43852219D02*
X45214285Y-44852219D01*
X46499999Y-43852219D02*
X46023809Y-43852219D01*
X46023809Y-43852219D02*
X45976190Y-44328409D01*
X45976190Y-44328409D02*
X46023809Y-44280790D01*
X46023809Y-44280790D02*
X46119047Y-44233171D01*
X46119047Y-44233171D02*
X46357142Y-44233171D01*
X46357142Y-44233171D02*
X46452380Y-44280790D01*
X46452380Y-44280790D02*
X46499999Y-44328409D01*
X46499999Y-44328409D02*
X46547618Y-44423647D01*
X46547618Y-44423647D02*
X46547618Y-44661742D01*
X46547618Y-44661742D02*
X46499999Y-44756980D01*
X46499999Y-44756980D02*
X46452380Y-44804600D01*
X46452380Y-44804600D02*
X46357142Y-44852219D01*
X46357142Y-44852219D02*
X46119047Y-44852219D01*
X46119047Y-44852219D02*
X46023809Y-44804600D01*
X46023809Y-44804600D02*
X45976190Y-44756980D01*
X46976190Y-44471266D02*
X47738095Y-44471266D01*
X48690475Y-43852219D02*
X48214285Y-43852219D01*
X48214285Y-43852219D02*
X48166666Y-44328409D01*
X48166666Y-44328409D02*
X48214285Y-44280790D01*
X48214285Y-44280790D02*
X48309523Y-44233171D01*
X48309523Y-44233171D02*
X48547618Y-44233171D01*
X48547618Y-44233171D02*
X48642856Y-44280790D01*
X48642856Y-44280790D02*
X48690475Y-44328409D01*
X48690475Y-44328409D02*
X48738094Y-44423647D01*
X48738094Y-44423647D02*
X48738094Y-44661742D01*
X48738094Y-44661742D02*
X48690475Y-44756980D01*
X48690475Y-44756980D02*
X48642856Y-44804600D01*
X48642856Y-44804600D02*
X48547618Y-44852219D01*
X48547618Y-44852219D02*
X48309523Y-44852219D01*
X48309523Y-44852219D02*
X48214285Y-44804600D01*
X48214285Y-44804600D02*
X48166666Y-44756980D01*
X49166666Y-44756980D02*
X49214285Y-44804600D01*
X49214285Y-44804600D02*
X49166666Y-44852219D01*
X49166666Y-44852219D02*
X49119047Y-44804600D01*
X49119047Y-44804600D02*
X49166666Y-44756980D01*
X49166666Y-44756980D02*
X49166666Y-44852219D01*
X49595237Y-43947457D02*
X49642856Y-43899838D01*
X49642856Y-43899838D02*
X49738094Y-43852219D01*
X49738094Y-43852219D02*
X49976189Y-43852219D01*
X49976189Y-43852219D02*
X50071427Y-43899838D01*
X50071427Y-43899838D02*
X50119046Y-43947457D01*
X50119046Y-43947457D02*
X50166665Y-44042695D01*
X50166665Y-44042695D02*
X50166665Y-44137933D01*
X50166665Y-44137933D02*
X50119046Y-44280790D01*
X50119046Y-44280790D02*
X49547618Y-44852219D01*
X49547618Y-44852219D02*
X50166665Y-44852219D01*
X51071427Y-43852219D02*
X50595237Y-43852219D01*
X50595237Y-43852219D02*
X50547618Y-44328409D01*
X50547618Y-44328409D02*
X50595237Y-44280790D01*
X50595237Y-44280790D02*
X50690475Y-44233171D01*
X50690475Y-44233171D02*
X50928570Y-44233171D01*
X50928570Y-44233171D02*
X51023808Y-44280790D01*
X51023808Y-44280790D02*
X51071427Y-44328409D01*
X51071427Y-44328409D02*
X51119046Y-44423647D01*
X51119046Y-44423647D02*
X51119046Y-44661742D01*
X51119046Y-44661742D02*
X51071427Y-44756980D01*
X51071427Y-44756980D02*
X51023808Y-44804600D01*
X51023808Y-44804600D02*
X50928570Y-44852219D01*
X50928570Y-44852219D02*
X50690475Y-44852219D01*
X50690475Y-44852219D02*
X50595237Y-44804600D01*
X50595237Y-44804600D02*
X50547618Y-44756980D01*
X52166666Y-43852219D02*
X52499999Y-44852219D01*
X52499999Y-44852219D02*
X52833332Y-43852219D01*
X54357142Y-44852219D02*
X54357142Y-43852219D01*
X54357142Y-44804600D02*
X54261904Y-44852219D01*
X54261904Y-44852219D02*
X54071428Y-44852219D01*
X54071428Y-44852219D02*
X53976190Y-44804600D01*
X53976190Y-44804600D02*
X53928571Y-44756980D01*
X53928571Y-44756980D02*
X53880952Y-44661742D01*
X53880952Y-44661742D02*
X53880952Y-44376028D01*
X53880952Y-44376028D02*
X53928571Y-44280790D01*
X53928571Y-44280790D02*
X53976190Y-44233171D01*
X53976190Y-44233171D02*
X54071428Y-44185552D01*
X54071428Y-44185552D02*
X54261904Y-44185552D01*
X54261904Y-44185552D02*
X54357142Y-44233171D01*
X55261904Y-44804600D02*
X55166666Y-44852219D01*
X55166666Y-44852219D02*
X54976190Y-44852219D01*
X54976190Y-44852219D02*
X54880952Y-44804600D01*
X54880952Y-44804600D02*
X54833333Y-44756980D01*
X54833333Y-44756980D02*
X54785714Y-44661742D01*
X54785714Y-44661742D02*
X54785714Y-44376028D01*
X54785714Y-44376028D02*
X54833333Y-44280790D01*
X54833333Y-44280790D02*
X54880952Y-44233171D01*
X54880952Y-44233171D02*
X54976190Y-44185552D01*
X54976190Y-44185552D02*
X55166666Y-44185552D01*
X55166666Y-44185552D02*
X55261904Y-44233171D01*
X46333333Y-99756980D02*
X46285714Y-99804600D01*
X46285714Y-99804600D02*
X46142857Y-99852219D01*
X46142857Y-99852219D02*
X46047619Y-99852219D01*
X46047619Y-99852219D02*
X45904762Y-99804600D01*
X45904762Y-99804600D02*
X45809524Y-99709361D01*
X45809524Y-99709361D02*
X45761905Y-99614123D01*
X45761905Y-99614123D02*
X45714286Y-99423647D01*
X45714286Y-99423647D02*
X45714286Y-99280790D01*
X45714286Y-99280790D02*
X45761905Y-99090314D01*
X45761905Y-99090314D02*
X45809524Y-98995076D01*
X45809524Y-98995076D02*
X45904762Y-98899838D01*
X45904762Y-98899838D02*
X46047619Y-98852219D01*
X46047619Y-98852219D02*
X46142857Y-98852219D01*
X46142857Y-98852219D02*
X46285714Y-98899838D01*
X46285714Y-98899838D02*
X46333333Y-98947457D01*
X46761905Y-99852219D02*
X46761905Y-98852219D01*
X46761905Y-99328409D02*
X47333333Y-99328409D01*
X47333333Y-99852219D02*
X47333333Y-98852219D01*
X48333333Y-99852219D02*
X47761905Y-99852219D01*
X48047619Y-99852219D02*
X48047619Y-98852219D01*
X48047619Y-98852219D02*
X47952381Y-98995076D01*
X47952381Y-98995076D02*
X47857143Y-99090314D01*
X47857143Y-99090314D02*
X47761905Y-99137933D01*
X50095238Y-99756980D02*
X50047619Y-99804600D01*
X50047619Y-99804600D02*
X49904762Y-99852219D01*
X49904762Y-99852219D02*
X49809524Y-99852219D01*
X49809524Y-99852219D02*
X49666667Y-99804600D01*
X49666667Y-99804600D02*
X49571429Y-99709361D01*
X49571429Y-99709361D02*
X49523810Y-99614123D01*
X49523810Y-99614123D02*
X49476191Y-99423647D01*
X49476191Y-99423647D02*
X49476191Y-99280790D01*
X49476191Y-99280790D02*
X49523810Y-99090314D01*
X49523810Y-99090314D02*
X49571429Y-98995076D01*
X49571429Y-98995076D02*
X49666667Y-98899838D01*
X49666667Y-98899838D02*
X49809524Y-98852219D01*
X49809524Y-98852219D02*
X49904762Y-98852219D01*
X49904762Y-98852219D02*
X50047619Y-98899838D01*
X50047619Y-98899838D02*
X50095238Y-98947457D01*
X50714286Y-98852219D02*
X50904762Y-98852219D01*
X50904762Y-98852219D02*
X51000000Y-98899838D01*
X51000000Y-98899838D02*
X51095238Y-98995076D01*
X51095238Y-98995076D02*
X51142857Y-99185552D01*
X51142857Y-99185552D02*
X51142857Y-99518885D01*
X51142857Y-99518885D02*
X51095238Y-99709361D01*
X51095238Y-99709361D02*
X51000000Y-99804600D01*
X51000000Y-99804600D02*
X50904762Y-99852219D01*
X50904762Y-99852219D02*
X50714286Y-99852219D01*
X50714286Y-99852219D02*
X50619048Y-99804600D01*
X50619048Y-99804600D02*
X50523810Y-99709361D01*
X50523810Y-99709361D02*
X50476191Y-99518885D01*
X50476191Y-99518885D02*
X50476191Y-99185552D01*
X50476191Y-99185552D02*
X50523810Y-98995076D01*
X50523810Y-98995076D02*
X50619048Y-98899838D01*
X50619048Y-98899838D02*
X50714286Y-98852219D01*
X51571429Y-99852219D02*
X51571429Y-98852219D01*
X51571429Y-98852219D02*
X51904762Y-99566504D01*
X51904762Y-99566504D02*
X52238095Y-98852219D01*
X52238095Y-98852219D02*
X52238095Y-99852219D01*
X56404761Y-99756980D02*
X56357142Y-99804600D01*
X56357142Y-99804600D02*
X56214285Y-99852219D01*
X56214285Y-99852219D02*
X56119047Y-99852219D01*
X56119047Y-99852219D02*
X55976190Y-99804600D01*
X55976190Y-99804600D02*
X55880952Y-99709361D01*
X55880952Y-99709361D02*
X55833333Y-99614123D01*
X55833333Y-99614123D02*
X55785714Y-99423647D01*
X55785714Y-99423647D02*
X55785714Y-99280790D01*
X55785714Y-99280790D02*
X55833333Y-99090314D01*
X55833333Y-99090314D02*
X55880952Y-98995076D01*
X55880952Y-98995076D02*
X55976190Y-98899838D01*
X55976190Y-98899838D02*
X56119047Y-98852219D01*
X56119047Y-98852219D02*
X56214285Y-98852219D01*
X56214285Y-98852219D02*
X56357142Y-98899838D01*
X56357142Y-98899838D02*
X56404761Y-98947457D01*
X56833333Y-99852219D02*
X56833333Y-98852219D01*
X56833333Y-99328409D02*
X57404761Y-99328409D01*
X57404761Y-99852219D02*
X57404761Y-98852219D01*
X58404761Y-99852219D02*
X57833333Y-99852219D01*
X58119047Y-99852219D02*
X58119047Y-98852219D01*
X58119047Y-98852219D02*
X58023809Y-98995076D01*
X58023809Y-98995076D02*
X57928571Y-99090314D01*
X57928571Y-99090314D02*
X57833333Y-99137933D01*
X59595238Y-99852219D02*
X59595238Y-98852219D01*
X59595238Y-98852219D02*
X60166666Y-99852219D01*
X60166666Y-99852219D02*
X60166666Y-98852219D01*
X61214285Y-99756980D02*
X61166666Y-99804600D01*
X61166666Y-99804600D02*
X61023809Y-99852219D01*
X61023809Y-99852219D02*
X60928571Y-99852219D01*
X60928571Y-99852219D02*
X60785714Y-99804600D01*
X60785714Y-99804600D02*
X60690476Y-99709361D01*
X60690476Y-99709361D02*
X60642857Y-99614123D01*
X60642857Y-99614123D02*
X60595238Y-99423647D01*
X60595238Y-99423647D02*
X60595238Y-99280790D01*
X60595238Y-99280790D02*
X60642857Y-99090314D01*
X60642857Y-99090314D02*
X60690476Y-98995076D01*
X60690476Y-98995076D02*
X60785714Y-98899838D01*
X60785714Y-98899838D02*
X60928571Y-98852219D01*
X60928571Y-98852219D02*
X61023809Y-98852219D01*
X61023809Y-98852219D02*
X61166666Y-98899838D01*
X61166666Y-98899838D02*
X61214285Y-98947457D01*
X71380952Y-99756980D02*
X71333333Y-99804600D01*
X71333333Y-99804600D02*
X71190476Y-99852219D01*
X71190476Y-99852219D02*
X71095238Y-99852219D01*
X71095238Y-99852219D02*
X70952381Y-99804600D01*
X70952381Y-99804600D02*
X70857143Y-99709361D01*
X70857143Y-99709361D02*
X70809524Y-99614123D01*
X70809524Y-99614123D02*
X70761905Y-99423647D01*
X70761905Y-99423647D02*
X70761905Y-99280790D01*
X70761905Y-99280790D02*
X70809524Y-99090314D01*
X70809524Y-99090314D02*
X70857143Y-98995076D01*
X70857143Y-98995076D02*
X70952381Y-98899838D01*
X70952381Y-98899838D02*
X71095238Y-98852219D01*
X71095238Y-98852219D02*
X71190476Y-98852219D01*
X71190476Y-98852219D02*
X71333333Y-98899838D01*
X71333333Y-98899838D02*
X71380952Y-98947457D01*
X71809524Y-99852219D02*
X71809524Y-98852219D01*
X71809524Y-99328409D02*
X72380952Y-99328409D01*
X72380952Y-99852219D02*
X72380952Y-98852219D01*
X72809524Y-98947457D02*
X72857143Y-98899838D01*
X72857143Y-98899838D02*
X72952381Y-98852219D01*
X72952381Y-98852219D02*
X73190476Y-98852219D01*
X73190476Y-98852219D02*
X73285714Y-98899838D01*
X73285714Y-98899838D02*
X73333333Y-98947457D01*
X73333333Y-98947457D02*
X73380952Y-99042695D01*
X73380952Y-99042695D02*
X73380952Y-99137933D01*
X73380952Y-99137933D02*
X73333333Y-99280790D01*
X73333333Y-99280790D02*
X72761905Y-99852219D01*
X72761905Y-99852219D02*
X73380952Y-99852219D01*
X74571429Y-99852219D02*
X74571429Y-98852219D01*
X74571429Y-98852219D02*
X75142857Y-99852219D01*
X75142857Y-99852219D02*
X75142857Y-98852219D01*
X75809524Y-98852219D02*
X76000000Y-98852219D01*
X76000000Y-98852219D02*
X76095238Y-98899838D01*
X76095238Y-98899838D02*
X76190476Y-98995076D01*
X76190476Y-98995076D02*
X76238095Y-99185552D01*
X76238095Y-99185552D02*
X76238095Y-99518885D01*
X76238095Y-99518885D02*
X76190476Y-99709361D01*
X76190476Y-99709361D02*
X76095238Y-99804600D01*
X76095238Y-99804600D02*
X76000000Y-99852219D01*
X76000000Y-99852219D02*
X75809524Y-99852219D01*
X75809524Y-99852219D02*
X75714286Y-99804600D01*
X75714286Y-99804600D02*
X75619048Y-99709361D01*
X75619048Y-99709361D02*
X75571429Y-99518885D01*
X75571429Y-99518885D02*
X75571429Y-99185552D01*
X75571429Y-99185552D02*
X75619048Y-98995076D01*
X75619048Y-98995076D02*
X75714286Y-98899838D01*
X75714286Y-98899838D02*
X75809524Y-98852219D01*
X80333333Y-99756980D02*
X80285714Y-99804600D01*
X80285714Y-99804600D02*
X80142857Y-99852219D01*
X80142857Y-99852219D02*
X80047619Y-99852219D01*
X80047619Y-99852219D02*
X79904762Y-99804600D01*
X79904762Y-99804600D02*
X79809524Y-99709361D01*
X79809524Y-99709361D02*
X79761905Y-99614123D01*
X79761905Y-99614123D02*
X79714286Y-99423647D01*
X79714286Y-99423647D02*
X79714286Y-99280790D01*
X79714286Y-99280790D02*
X79761905Y-99090314D01*
X79761905Y-99090314D02*
X79809524Y-98995076D01*
X79809524Y-98995076D02*
X79904762Y-98899838D01*
X79904762Y-98899838D02*
X80047619Y-98852219D01*
X80047619Y-98852219D02*
X80142857Y-98852219D01*
X80142857Y-98852219D02*
X80285714Y-98899838D01*
X80285714Y-98899838D02*
X80333333Y-98947457D01*
X80761905Y-99852219D02*
X80761905Y-98852219D01*
X80761905Y-99328409D02*
X81333333Y-99328409D01*
X81333333Y-99852219D02*
X81333333Y-98852219D01*
X81761905Y-98947457D02*
X81809524Y-98899838D01*
X81809524Y-98899838D02*
X81904762Y-98852219D01*
X81904762Y-98852219D02*
X82142857Y-98852219D01*
X82142857Y-98852219D02*
X82238095Y-98899838D01*
X82238095Y-98899838D02*
X82285714Y-98947457D01*
X82285714Y-98947457D02*
X82333333Y-99042695D01*
X82333333Y-99042695D02*
X82333333Y-99137933D01*
X82333333Y-99137933D02*
X82285714Y-99280790D01*
X82285714Y-99280790D02*
X81714286Y-99852219D01*
X81714286Y-99852219D02*
X82333333Y-99852219D01*
X84095238Y-99756980D02*
X84047619Y-99804600D01*
X84047619Y-99804600D02*
X83904762Y-99852219D01*
X83904762Y-99852219D02*
X83809524Y-99852219D01*
X83809524Y-99852219D02*
X83666667Y-99804600D01*
X83666667Y-99804600D02*
X83571429Y-99709361D01*
X83571429Y-99709361D02*
X83523810Y-99614123D01*
X83523810Y-99614123D02*
X83476191Y-99423647D01*
X83476191Y-99423647D02*
X83476191Y-99280790D01*
X83476191Y-99280790D02*
X83523810Y-99090314D01*
X83523810Y-99090314D02*
X83571429Y-98995076D01*
X83571429Y-98995076D02*
X83666667Y-98899838D01*
X83666667Y-98899838D02*
X83809524Y-98852219D01*
X83809524Y-98852219D02*
X83904762Y-98852219D01*
X83904762Y-98852219D02*
X84047619Y-98899838D01*
X84047619Y-98899838D02*
X84095238Y-98947457D01*
X84714286Y-98852219D02*
X84904762Y-98852219D01*
X84904762Y-98852219D02*
X85000000Y-98899838D01*
X85000000Y-98899838D02*
X85095238Y-98995076D01*
X85095238Y-98995076D02*
X85142857Y-99185552D01*
X85142857Y-99185552D02*
X85142857Y-99518885D01*
X85142857Y-99518885D02*
X85095238Y-99709361D01*
X85095238Y-99709361D02*
X85000000Y-99804600D01*
X85000000Y-99804600D02*
X84904762Y-99852219D01*
X84904762Y-99852219D02*
X84714286Y-99852219D01*
X84714286Y-99852219D02*
X84619048Y-99804600D01*
X84619048Y-99804600D02*
X84523810Y-99709361D01*
X84523810Y-99709361D02*
X84476191Y-99518885D01*
X84476191Y-99518885D02*
X84476191Y-99185552D01*
X84476191Y-99185552D02*
X84523810Y-98995076D01*
X84523810Y-98995076D02*
X84619048Y-98899838D01*
X84619048Y-98899838D02*
X84714286Y-98852219D01*
X85571429Y-99852219D02*
X85571429Y-98852219D01*
X85571429Y-98852219D02*
X85904762Y-99566504D01*
X85904762Y-99566504D02*
X86238095Y-98852219D01*
X86238095Y-98852219D02*
X86238095Y-99852219D01*
X90404761Y-99756980D02*
X90357142Y-99804600D01*
X90357142Y-99804600D02*
X90214285Y-99852219D01*
X90214285Y-99852219D02*
X90119047Y-99852219D01*
X90119047Y-99852219D02*
X89976190Y-99804600D01*
X89976190Y-99804600D02*
X89880952Y-99709361D01*
X89880952Y-99709361D02*
X89833333Y-99614123D01*
X89833333Y-99614123D02*
X89785714Y-99423647D01*
X89785714Y-99423647D02*
X89785714Y-99280790D01*
X89785714Y-99280790D02*
X89833333Y-99090314D01*
X89833333Y-99090314D02*
X89880952Y-98995076D01*
X89880952Y-98995076D02*
X89976190Y-98899838D01*
X89976190Y-98899838D02*
X90119047Y-98852219D01*
X90119047Y-98852219D02*
X90214285Y-98852219D01*
X90214285Y-98852219D02*
X90357142Y-98899838D01*
X90357142Y-98899838D02*
X90404761Y-98947457D01*
X90833333Y-99852219D02*
X90833333Y-98852219D01*
X90833333Y-99328409D02*
X91404761Y-99328409D01*
X91404761Y-99852219D02*
X91404761Y-98852219D01*
X91833333Y-98947457D02*
X91880952Y-98899838D01*
X91880952Y-98899838D02*
X91976190Y-98852219D01*
X91976190Y-98852219D02*
X92214285Y-98852219D01*
X92214285Y-98852219D02*
X92309523Y-98899838D01*
X92309523Y-98899838D02*
X92357142Y-98947457D01*
X92357142Y-98947457D02*
X92404761Y-99042695D01*
X92404761Y-99042695D02*
X92404761Y-99137933D01*
X92404761Y-99137933D02*
X92357142Y-99280790D01*
X92357142Y-99280790D02*
X91785714Y-99852219D01*
X91785714Y-99852219D02*
X92404761Y-99852219D01*
X93595238Y-99852219D02*
X93595238Y-98852219D01*
X93595238Y-98852219D02*
X94166666Y-99852219D01*
X94166666Y-99852219D02*
X94166666Y-98852219D01*
X95214285Y-99756980D02*
X95166666Y-99804600D01*
X95166666Y-99804600D02*
X95023809Y-99852219D01*
X95023809Y-99852219D02*
X94928571Y-99852219D01*
X94928571Y-99852219D02*
X94785714Y-99804600D01*
X94785714Y-99804600D02*
X94690476Y-99709361D01*
X94690476Y-99709361D02*
X94642857Y-99614123D01*
X94642857Y-99614123D02*
X94595238Y-99423647D01*
X94595238Y-99423647D02*
X94595238Y-99280790D01*
X94595238Y-99280790D02*
X94642857Y-99090314D01*
X94642857Y-99090314D02*
X94690476Y-98995076D01*
X94690476Y-98995076D02*
X94785714Y-98899838D01*
X94785714Y-98899838D02*
X94928571Y-98852219D01*
X94928571Y-98852219D02*
X95023809Y-98852219D01*
X95023809Y-98852219D02*
X95166666Y-98899838D01*
X95166666Y-98899838D02*
X95214285Y-98947457D01*
X105380952Y-99756980D02*
X105333333Y-99804600D01*
X105333333Y-99804600D02*
X105190476Y-99852219D01*
X105190476Y-99852219D02*
X105095238Y-99852219D01*
X105095238Y-99852219D02*
X104952381Y-99804600D01*
X104952381Y-99804600D02*
X104857143Y-99709361D01*
X104857143Y-99709361D02*
X104809524Y-99614123D01*
X104809524Y-99614123D02*
X104761905Y-99423647D01*
X104761905Y-99423647D02*
X104761905Y-99280790D01*
X104761905Y-99280790D02*
X104809524Y-99090314D01*
X104809524Y-99090314D02*
X104857143Y-98995076D01*
X104857143Y-98995076D02*
X104952381Y-98899838D01*
X104952381Y-98899838D02*
X105095238Y-98852219D01*
X105095238Y-98852219D02*
X105190476Y-98852219D01*
X105190476Y-98852219D02*
X105333333Y-98899838D01*
X105333333Y-98899838D02*
X105380952Y-98947457D01*
X105809524Y-99852219D02*
X105809524Y-98852219D01*
X105809524Y-99328409D02*
X106380952Y-99328409D01*
X106380952Y-99852219D02*
X106380952Y-98852219D01*
X106761905Y-98852219D02*
X107380952Y-98852219D01*
X107380952Y-98852219D02*
X107047619Y-99233171D01*
X107047619Y-99233171D02*
X107190476Y-99233171D01*
X107190476Y-99233171D02*
X107285714Y-99280790D01*
X107285714Y-99280790D02*
X107333333Y-99328409D01*
X107333333Y-99328409D02*
X107380952Y-99423647D01*
X107380952Y-99423647D02*
X107380952Y-99661742D01*
X107380952Y-99661742D02*
X107333333Y-99756980D01*
X107333333Y-99756980D02*
X107285714Y-99804600D01*
X107285714Y-99804600D02*
X107190476Y-99852219D01*
X107190476Y-99852219D02*
X106904762Y-99852219D01*
X106904762Y-99852219D02*
X106809524Y-99804600D01*
X106809524Y-99804600D02*
X106761905Y-99756980D01*
X108571429Y-99852219D02*
X108571429Y-98852219D01*
X108571429Y-98852219D02*
X109142857Y-99852219D01*
X109142857Y-99852219D02*
X109142857Y-98852219D01*
X109809524Y-98852219D02*
X110000000Y-98852219D01*
X110000000Y-98852219D02*
X110095238Y-98899838D01*
X110095238Y-98899838D02*
X110190476Y-98995076D01*
X110190476Y-98995076D02*
X110238095Y-99185552D01*
X110238095Y-99185552D02*
X110238095Y-99518885D01*
X110238095Y-99518885D02*
X110190476Y-99709361D01*
X110190476Y-99709361D02*
X110095238Y-99804600D01*
X110095238Y-99804600D02*
X110000000Y-99852219D01*
X110000000Y-99852219D02*
X109809524Y-99852219D01*
X109809524Y-99852219D02*
X109714286Y-99804600D01*
X109714286Y-99804600D02*
X109619048Y-99709361D01*
X109619048Y-99709361D02*
X109571429Y-99518885D01*
X109571429Y-99518885D02*
X109571429Y-99185552D01*
X109571429Y-99185552D02*
X109619048Y-98995076D01*
X109619048Y-98995076D02*
X109714286Y-98899838D01*
X109714286Y-98899838D02*
X109809524Y-98852219D01*
X108042857Y-33404600D02*
X108185714Y-33452219D01*
X108185714Y-33452219D02*
X108423809Y-33452219D01*
X108423809Y-33452219D02*
X108519047Y-33404600D01*
X108519047Y-33404600D02*
X108566666Y-33356980D01*
X108566666Y-33356980D02*
X108614285Y-33261742D01*
X108614285Y-33261742D02*
X108614285Y-33166504D01*
X108614285Y-33166504D02*
X108566666Y-33071266D01*
X108566666Y-33071266D02*
X108519047Y-33023647D01*
X108519047Y-33023647D02*
X108423809Y-32976028D01*
X108423809Y-32976028D02*
X108233333Y-32928409D01*
X108233333Y-32928409D02*
X108138095Y-32880790D01*
X108138095Y-32880790D02*
X108090476Y-32833171D01*
X108090476Y-32833171D02*
X108042857Y-32737933D01*
X108042857Y-32737933D02*
X108042857Y-32642695D01*
X108042857Y-32642695D02*
X108090476Y-32547457D01*
X108090476Y-32547457D02*
X108138095Y-32499838D01*
X108138095Y-32499838D02*
X108233333Y-32452219D01*
X108233333Y-32452219D02*
X108471428Y-32452219D01*
X108471428Y-32452219D02*
X108614285Y-32499838D01*
X108947619Y-32452219D02*
X109185714Y-33452219D01*
X109185714Y-33452219D02*
X109376190Y-32737933D01*
X109376190Y-32737933D02*
X109566666Y-33452219D01*
X109566666Y-33452219D02*
X109804762Y-32452219D01*
X110185714Y-33452219D02*
X110185714Y-32452219D01*
X110185714Y-32452219D02*
X110423809Y-32452219D01*
X110423809Y-32452219D02*
X110566666Y-32499838D01*
X110566666Y-32499838D02*
X110661904Y-32595076D01*
X110661904Y-32595076D02*
X110709523Y-32690314D01*
X110709523Y-32690314D02*
X110757142Y-32880790D01*
X110757142Y-32880790D02*
X110757142Y-33023647D01*
X110757142Y-33023647D02*
X110709523Y-33214123D01*
X110709523Y-33214123D02*
X110661904Y-33309361D01*
X110661904Y-33309361D02*
X110566666Y-33404600D01*
X110566666Y-33404600D02*
X110423809Y-33452219D01*
X110423809Y-33452219D02*
X110185714Y-33452219D01*
X114333333Y-99756980D02*
X114285714Y-99804600D01*
X114285714Y-99804600D02*
X114142857Y-99852219D01*
X114142857Y-99852219D02*
X114047619Y-99852219D01*
X114047619Y-99852219D02*
X113904762Y-99804600D01*
X113904762Y-99804600D02*
X113809524Y-99709361D01*
X113809524Y-99709361D02*
X113761905Y-99614123D01*
X113761905Y-99614123D02*
X113714286Y-99423647D01*
X113714286Y-99423647D02*
X113714286Y-99280790D01*
X113714286Y-99280790D02*
X113761905Y-99090314D01*
X113761905Y-99090314D02*
X113809524Y-98995076D01*
X113809524Y-98995076D02*
X113904762Y-98899838D01*
X113904762Y-98899838D02*
X114047619Y-98852219D01*
X114047619Y-98852219D02*
X114142857Y-98852219D01*
X114142857Y-98852219D02*
X114285714Y-98899838D01*
X114285714Y-98899838D02*
X114333333Y-98947457D01*
X114761905Y-99852219D02*
X114761905Y-98852219D01*
X114761905Y-99328409D02*
X115333333Y-99328409D01*
X115333333Y-99852219D02*
X115333333Y-98852219D01*
X115714286Y-98852219D02*
X116333333Y-98852219D01*
X116333333Y-98852219D02*
X116000000Y-99233171D01*
X116000000Y-99233171D02*
X116142857Y-99233171D01*
X116142857Y-99233171D02*
X116238095Y-99280790D01*
X116238095Y-99280790D02*
X116285714Y-99328409D01*
X116285714Y-99328409D02*
X116333333Y-99423647D01*
X116333333Y-99423647D02*
X116333333Y-99661742D01*
X116333333Y-99661742D02*
X116285714Y-99756980D01*
X116285714Y-99756980D02*
X116238095Y-99804600D01*
X116238095Y-99804600D02*
X116142857Y-99852219D01*
X116142857Y-99852219D02*
X115857143Y-99852219D01*
X115857143Y-99852219D02*
X115761905Y-99804600D01*
X115761905Y-99804600D02*
X115714286Y-99756980D01*
X118095238Y-99756980D02*
X118047619Y-99804600D01*
X118047619Y-99804600D02*
X117904762Y-99852219D01*
X117904762Y-99852219D02*
X117809524Y-99852219D01*
X117809524Y-99852219D02*
X117666667Y-99804600D01*
X117666667Y-99804600D02*
X117571429Y-99709361D01*
X117571429Y-99709361D02*
X117523810Y-99614123D01*
X117523810Y-99614123D02*
X117476191Y-99423647D01*
X117476191Y-99423647D02*
X117476191Y-99280790D01*
X117476191Y-99280790D02*
X117523810Y-99090314D01*
X117523810Y-99090314D02*
X117571429Y-98995076D01*
X117571429Y-98995076D02*
X117666667Y-98899838D01*
X117666667Y-98899838D02*
X117809524Y-98852219D01*
X117809524Y-98852219D02*
X117904762Y-98852219D01*
X117904762Y-98852219D02*
X118047619Y-98899838D01*
X118047619Y-98899838D02*
X118095238Y-98947457D01*
X118714286Y-98852219D02*
X118904762Y-98852219D01*
X118904762Y-98852219D02*
X119000000Y-98899838D01*
X119000000Y-98899838D02*
X119095238Y-98995076D01*
X119095238Y-98995076D02*
X119142857Y-99185552D01*
X119142857Y-99185552D02*
X119142857Y-99518885D01*
X119142857Y-99518885D02*
X119095238Y-99709361D01*
X119095238Y-99709361D02*
X119000000Y-99804600D01*
X119000000Y-99804600D02*
X118904762Y-99852219D01*
X118904762Y-99852219D02*
X118714286Y-99852219D01*
X118714286Y-99852219D02*
X118619048Y-99804600D01*
X118619048Y-99804600D02*
X118523810Y-99709361D01*
X118523810Y-99709361D02*
X118476191Y-99518885D01*
X118476191Y-99518885D02*
X118476191Y-99185552D01*
X118476191Y-99185552D02*
X118523810Y-98995076D01*
X118523810Y-98995076D02*
X118619048Y-98899838D01*
X118619048Y-98899838D02*
X118714286Y-98852219D01*
X119571429Y-99852219D02*
X119571429Y-98852219D01*
X119571429Y-98852219D02*
X119904762Y-99566504D01*
X119904762Y-99566504D02*
X120238095Y-98852219D01*
X120238095Y-98852219D02*
X120238095Y-99852219D01*
X123804762Y-32452219D02*
X123804762Y-33261742D01*
X123804762Y-33261742D02*
X123852381Y-33356980D01*
X123852381Y-33356980D02*
X123900000Y-33404600D01*
X123900000Y-33404600D02*
X123995238Y-33452219D01*
X123995238Y-33452219D02*
X124185714Y-33452219D01*
X124185714Y-33452219D02*
X124280952Y-33404600D01*
X124280952Y-33404600D02*
X124328571Y-33356980D01*
X124328571Y-33356980D02*
X124376190Y-33261742D01*
X124376190Y-33261742D02*
X124376190Y-32452219D01*
X124804762Y-33166504D02*
X125280952Y-33166504D01*
X124709524Y-33452219D02*
X125042857Y-32452219D01*
X125042857Y-32452219D02*
X125376190Y-33452219D01*
X126280952Y-33452219D02*
X125947619Y-32976028D01*
X125709524Y-33452219D02*
X125709524Y-32452219D01*
X125709524Y-32452219D02*
X126090476Y-32452219D01*
X126090476Y-32452219D02*
X126185714Y-32499838D01*
X126185714Y-32499838D02*
X126233333Y-32547457D01*
X126233333Y-32547457D02*
X126280952Y-32642695D01*
X126280952Y-32642695D02*
X126280952Y-32785552D01*
X126280952Y-32785552D02*
X126233333Y-32880790D01*
X126233333Y-32880790D02*
X126185714Y-32928409D01*
X126185714Y-32928409D02*
X126090476Y-32976028D01*
X126090476Y-32976028D02*
X125709524Y-32976028D01*
X126566667Y-32452219D02*
X127138095Y-32452219D01*
X126852381Y-33452219D02*
X126852381Y-32452219D01*
X124404761Y-99756980D02*
X124357142Y-99804600D01*
X124357142Y-99804600D02*
X124214285Y-99852219D01*
X124214285Y-99852219D02*
X124119047Y-99852219D01*
X124119047Y-99852219D02*
X123976190Y-99804600D01*
X123976190Y-99804600D02*
X123880952Y-99709361D01*
X123880952Y-99709361D02*
X123833333Y-99614123D01*
X123833333Y-99614123D02*
X123785714Y-99423647D01*
X123785714Y-99423647D02*
X123785714Y-99280790D01*
X123785714Y-99280790D02*
X123833333Y-99090314D01*
X123833333Y-99090314D02*
X123880952Y-98995076D01*
X123880952Y-98995076D02*
X123976190Y-98899838D01*
X123976190Y-98899838D02*
X124119047Y-98852219D01*
X124119047Y-98852219D02*
X124214285Y-98852219D01*
X124214285Y-98852219D02*
X124357142Y-98899838D01*
X124357142Y-98899838D02*
X124404761Y-98947457D01*
X124833333Y-99852219D02*
X124833333Y-98852219D01*
X124833333Y-99328409D02*
X125404761Y-99328409D01*
X125404761Y-99852219D02*
X125404761Y-98852219D01*
X125785714Y-98852219D02*
X126404761Y-98852219D01*
X126404761Y-98852219D02*
X126071428Y-99233171D01*
X126071428Y-99233171D02*
X126214285Y-99233171D01*
X126214285Y-99233171D02*
X126309523Y-99280790D01*
X126309523Y-99280790D02*
X126357142Y-99328409D01*
X126357142Y-99328409D02*
X126404761Y-99423647D01*
X126404761Y-99423647D02*
X126404761Y-99661742D01*
X126404761Y-99661742D02*
X126357142Y-99756980D01*
X126357142Y-99756980D02*
X126309523Y-99804600D01*
X126309523Y-99804600D02*
X126214285Y-99852219D01*
X126214285Y-99852219D02*
X125928571Y-99852219D01*
X125928571Y-99852219D02*
X125833333Y-99804600D01*
X125833333Y-99804600D02*
X125785714Y-99756980D01*
X127595238Y-99852219D02*
X127595238Y-98852219D01*
X127595238Y-98852219D02*
X128166666Y-99852219D01*
X128166666Y-99852219D02*
X128166666Y-98852219D01*
X129214285Y-99756980D02*
X129166666Y-99804600D01*
X129166666Y-99804600D02*
X129023809Y-99852219D01*
X129023809Y-99852219D02*
X128928571Y-99852219D01*
X128928571Y-99852219D02*
X128785714Y-99804600D01*
X128785714Y-99804600D02*
X128690476Y-99709361D01*
X128690476Y-99709361D02*
X128642857Y-99614123D01*
X128642857Y-99614123D02*
X128595238Y-99423647D01*
X128595238Y-99423647D02*
X128595238Y-99280790D01*
X128595238Y-99280790D02*
X128642857Y-99090314D01*
X128642857Y-99090314D02*
X128690476Y-98995076D01*
X128690476Y-98995076D02*
X128785714Y-98899838D01*
X128785714Y-98899838D02*
X128928571Y-98852219D01*
X128928571Y-98852219D02*
X129023809Y-98852219D01*
X129023809Y-98852219D02*
X129166666Y-98899838D01*
X129166666Y-98899838D02*
X129214285Y-98947457D01*
X139380952Y-99756980D02*
X139333333Y-99804600D01*
X139333333Y-99804600D02*
X139190476Y-99852219D01*
X139190476Y-99852219D02*
X139095238Y-99852219D01*
X139095238Y-99852219D02*
X138952381Y-99804600D01*
X138952381Y-99804600D02*
X138857143Y-99709361D01*
X138857143Y-99709361D02*
X138809524Y-99614123D01*
X138809524Y-99614123D02*
X138761905Y-99423647D01*
X138761905Y-99423647D02*
X138761905Y-99280790D01*
X138761905Y-99280790D02*
X138809524Y-99090314D01*
X138809524Y-99090314D02*
X138857143Y-98995076D01*
X138857143Y-98995076D02*
X138952381Y-98899838D01*
X138952381Y-98899838D02*
X139095238Y-98852219D01*
X139095238Y-98852219D02*
X139190476Y-98852219D01*
X139190476Y-98852219D02*
X139333333Y-98899838D01*
X139333333Y-98899838D02*
X139380952Y-98947457D01*
X139809524Y-99852219D02*
X139809524Y-98852219D01*
X139809524Y-99328409D02*
X140380952Y-99328409D01*
X140380952Y-99852219D02*
X140380952Y-98852219D01*
X141285714Y-99185552D02*
X141285714Y-99852219D01*
X141047619Y-98804600D02*
X140809524Y-99518885D01*
X140809524Y-99518885D02*
X141428571Y-99518885D01*
X142571429Y-99852219D02*
X142571429Y-98852219D01*
X142571429Y-98852219D02*
X143142857Y-99852219D01*
X143142857Y-99852219D02*
X143142857Y-98852219D01*
X143809524Y-98852219D02*
X144000000Y-98852219D01*
X144000000Y-98852219D02*
X144095238Y-98899838D01*
X144095238Y-98899838D02*
X144190476Y-98995076D01*
X144190476Y-98995076D02*
X144238095Y-99185552D01*
X144238095Y-99185552D02*
X144238095Y-99518885D01*
X144238095Y-99518885D02*
X144190476Y-99709361D01*
X144190476Y-99709361D02*
X144095238Y-99804600D01*
X144095238Y-99804600D02*
X144000000Y-99852219D01*
X144000000Y-99852219D02*
X143809524Y-99852219D01*
X143809524Y-99852219D02*
X143714286Y-99804600D01*
X143714286Y-99804600D02*
X143619048Y-99709361D01*
X143619048Y-99709361D02*
X143571429Y-99518885D01*
X143571429Y-99518885D02*
X143571429Y-99185552D01*
X143571429Y-99185552D02*
X143619048Y-98995076D01*
X143619048Y-98995076D02*
X143714286Y-98899838D01*
X143714286Y-98899838D02*
X143809524Y-98852219D01*
X148333333Y-99756980D02*
X148285714Y-99804600D01*
X148285714Y-99804600D02*
X148142857Y-99852219D01*
X148142857Y-99852219D02*
X148047619Y-99852219D01*
X148047619Y-99852219D02*
X147904762Y-99804600D01*
X147904762Y-99804600D02*
X147809524Y-99709361D01*
X147809524Y-99709361D02*
X147761905Y-99614123D01*
X147761905Y-99614123D02*
X147714286Y-99423647D01*
X147714286Y-99423647D02*
X147714286Y-99280790D01*
X147714286Y-99280790D02*
X147761905Y-99090314D01*
X147761905Y-99090314D02*
X147809524Y-98995076D01*
X147809524Y-98995076D02*
X147904762Y-98899838D01*
X147904762Y-98899838D02*
X148047619Y-98852219D01*
X148047619Y-98852219D02*
X148142857Y-98852219D01*
X148142857Y-98852219D02*
X148285714Y-98899838D01*
X148285714Y-98899838D02*
X148333333Y-98947457D01*
X148761905Y-99852219D02*
X148761905Y-98852219D01*
X148761905Y-99328409D02*
X149333333Y-99328409D01*
X149333333Y-99852219D02*
X149333333Y-98852219D01*
X150238095Y-99185552D02*
X150238095Y-99852219D01*
X150000000Y-98804600D02*
X149761905Y-99518885D01*
X149761905Y-99518885D02*
X150380952Y-99518885D01*
X152095238Y-99756980D02*
X152047619Y-99804600D01*
X152047619Y-99804600D02*
X151904762Y-99852219D01*
X151904762Y-99852219D02*
X151809524Y-99852219D01*
X151809524Y-99852219D02*
X151666667Y-99804600D01*
X151666667Y-99804600D02*
X151571429Y-99709361D01*
X151571429Y-99709361D02*
X151523810Y-99614123D01*
X151523810Y-99614123D02*
X151476191Y-99423647D01*
X151476191Y-99423647D02*
X151476191Y-99280790D01*
X151476191Y-99280790D02*
X151523810Y-99090314D01*
X151523810Y-99090314D02*
X151571429Y-98995076D01*
X151571429Y-98995076D02*
X151666667Y-98899838D01*
X151666667Y-98899838D02*
X151809524Y-98852219D01*
X151809524Y-98852219D02*
X151904762Y-98852219D01*
X151904762Y-98852219D02*
X152047619Y-98899838D01*
X152047619Y-98899838D02*
X152095238Y-98947457D01*
X152714286Y-98852219D02*
X152904762Y-98852219D01*
X152904762Y-98852219D02*
X153000000Y-98899838D01*
X153000000Y-98899838D02*
X153095238Y-98995076D01*
X153095238Y-98995076D02*
X153142857Y-99185552D01*
X153142857Y-99185552D02*
X153142857Y-99518885D01*
X153142857Y-99518885D02*
X153095238Y-99709361D01*
X153095238Y-99709361D02*
X153000000Y-99804600D01*
X153000000Y-99804600D02*
X152904762Y-99852219D01*
X152904762Y-99852219D02*
X152714286Y-99852219D01*
X152714286Y-99852219D02*
X152619048Y-99804600D01*
X152619048Y-99804600D02*
X152523810Y-99709361D01*
X152523810Y-99709361D02*
X152476191Y-99518885D01*
X152476191Y-99518885D02*
X152476191Y-99185552D01*
X152476191Y-99185552D02*
X152523810Y-98995076D01*
X152523810Y-98995076D02*
X152619048Y-98899838D01*
X152619048Y-98899838D02*
X152714286Y-98852219D01*
X153571429Y-99852219D02*
X153571429Y-98852219D01*
X153571429Y-98852219D02*
X153904762Y-99566504D01*
X153904762Y-99566504D02*
X154238095Y-98852219D01*
X154238095Y-98852219D02*
X154238095Y-99852219D01*
X158404761Y-99756980D02*
X158357142Y-99804600D01*
X158357142Y-99804600D02*
X158214285Y-99852219D01*
X158214285Y-99852219D02*
X158119047Y-99852219D01*
X158119047Y-99852219D02*
X157976190Y-99804600D01*
X157976190Y-99804600D02*
X157880952Y-99709361D01*
X157880952Y-99709361D02*
X157833333Y-99614123D01*
X157833333Y-99614123D02*
X157785714Y-99423647D01*
X157785714Y-99423647D02*
X157785714Y-99280790D01*
X157785714Y-99280790D02*
X157833333Y-99090314D01*
X157833333Y-99090314D02*
X157880952Y-98995076D01*
X157880952Y-98995076D02*
X157976190Y-98899838D01*
X157976190Y-98899838D02*
X158119047Y-98852219D01*
X158119047Y-98852219D02*
X158214285Y-98852219D01*
X158214285Y-98852219D02*
X158357142Y-98899838D01*
X158357142Y-98899838D02*
X158404761Y-98947457D01*
X158833333Y-99852219D02*
X158833333Y-98852219D01*
X158833333Y-99328409D02*
X159404761Y-99328409D01*
X159404761Y-99852219D02*
X159404761Y-98852219D01*
X160309523Y-99185552D02*
X160309523Y-99852219D01*
X160071428Y-98804600D02*
X159833333Y-99518885D01*
X159833333Y-99518885D02*
X160452380Y-99518885D01*
X161595238Y-99852219D02*
X161595238Y-98852219D01*
X161595238Y-98852219D02*
X162166666Y-99852219D01*
X162166666Y-99852219D02*
X162166666Y-98852219D01*
X163214285Y-99756980D02*
X163166666Y-99804600D01*
X163166666Y-99804600D02*
X163023809Y-99852219D01*
X163023809Y-99852219D02*
X162928571Y-99852219D01*
X162928571Y-99852219D02*
X162785714Y-99804600D01*
X162785714Y-99804600D02*
X162690476Y-99709361D01*
X162690476Y-99709361D02*
X162642857Y-99614123D01*
X162642857Y-99614123D02*
X162595238Y-99423647D01*
X162595238Y-99423647D02*
X162595238Y-99280790D01*
X162595238Y-99280790D02*
X162642857Y-99090314D01*
X162642857Y-99090314D02*
X162690476Y-98995076D01*
X162690476Y-98995076D02*
X162785714Y-98899838D01*
X162785714Y-98899838D02*
X162928571Y-98852219D01*
X162928571Y-98852219D02*
X163023809Y-98852219D01*
X163023809Y-98852219D02*
X163166666Y-98899838D01*
X163166666Y-98899838D02*
X163214285Y-98947457D01*
X47028572Y-79959028D02*
X47085715Y-79901885D01*
X47085715Y-79901885D02*
X47200001Y-79844742D01*
X47200001Y-79844742D02*
X47485715Y-79844742D01*
X47485715Y-79844742D02*
X47600001Y-79901885D01*
X47600001Y-79901885D02*
X47657143Y-79959028D01*
X47657143Y-79959028D02*
X47714286Y-80073314D01*
X47714286Y-80073314D02*
X47714286Y-80187600D01*
X47714286Y-80187600D02*
X47657143Y-80359028D01*
X47657143Y-80359028D02*
X46971429Y-81044742D01*
X46971429Y-81044742D02*
X47714286Y-81044742D01*
X48800000Y-79844742D02*
X48228572Y-79844742D01*
X48228572Y-79844742D02*
X48171429Y-80416171D01*
X48171429Y-80416171D02*
X48228572Y-80359028D01*
X48228572Y-80359028D02*
X48342858Y-80301885D01*
X48342858Y-80301885D02*
X48628572Y-80301885D01*
X48628572Y-80301885D02*
X48742858Y-80359028D01*
X48742858Y-80359028D02*
X48800000Y-80416171D01*
X48800000Y-80416171D02*
X48857143Y-80530457D01*
X48857143Y-80530457D02*
X48857143Y-80816171D01*
X48857143Y-80816171D02*
X48800000Y-80930457D01*
X48800000Y-80930457D02*
X48742858Y-80987600D01*
X48742858Y-80987600D02*
X48628572Y-81044742D01*
X48628572Y-81044742D02*
X48342858Y-81044742D01*
X48342858Y-81044742D02*
X48228572Y-80987600D01*
X48228572Y-80987600D02*
X48171429Y-80930457D01*
X49600000Y-79844742D02*
X49714286Y-79844742D01*
X49714286Y-79844742D02*
X49828572Y-79901885D01*
X49828572Y-79901885D02*
X49885715Y-79959028D01*
X49885715Y-79959028D02*
X49942857Y-80073314D01*
X49942857Y-80073314D02*
X50000000Y-80301885D01*
X50000000Y-80301885D02*
X50000000Y-80587600D01*
X50000000Y-80587600D02*
X49942857Y-80816171D01*
X49942857Y-80816171D02*
X49885715Y-80930457D01*
X49885715Y-80930457D02*
X49828572Y-80987600D01*
X49828572Y-80987600D02*
X49714286Y-81044742D01*
X49714286Y-81044742D02*
X49600000Y-81044742D01*
X49600000Y-81044742D02*
X49485715Y-80987600D01*
X49485715Y-80987600D02*
X49428572Y-80930457D01*
X49428572Y-80930457D02*
X49371429Y-80816171D01*
X49371429Y-80816171D02*
X49314286Y-80587600D01*
X49314286Y-80587600D02*
X49314286Y-80301885D01*
X49314286Y-80301885D02*
X49371429Y-80073314D01*
X49371429Y-80073314D02*
X49428572Y-79959028D01*
X49428572Y-79959028D02*
X49485715Y-79901885D01*
X49485715Y-79901885D02*
X49600000Y-79844742D01*
X50342857Y-79844742D02*
X50742857Y-81044742D01*
X50742857Y-81044742D02*
X51142857Y-79844742D01*
X51371428Y-80587600D02*
X51428571Y-80530457D01*
X51428571Y-80530457D02*
X51542857Y-80473314D01*
X51542857Y-80473314D02*
X51771428Y-80587600D01*
X51771428Y-80587600D02*
X51885714Y-80530457D01*
X51885714Y-80530457D02*
X51942857Y-80473314D01*
X53828572Y-80244742D02*
X53828572Y-81044742D01*
X53542857Y-79787600D02*
X53257143Y-80644742D01*
X53257143Y-80644742D02*
X54000000Y-80644742D01*
X54400000Y-80701885D02*
X54971429Y-80701885D01*
X54285714Y-81044742D02*
X54685714Y-79844742D01*
X54685714Y-79844742D02*
X55085714Y-81044742D01*
X81028572Y-79959028D02*
X81085715Y-79901885D01*
X81085715Y-79901885D02*
X81200001Y-79844742D01*
X81200001Y-79844742D02*
X81485715Y-79844742D01*
X81485715Y-79844742D02*
X81600001Y-79901885D01*
X81600001Y-79901885D02*
X81657143Y-79959028D01*
X81657143Y-79959028D02*
X81714286Y-80073314D01*
X81714286Y-80073314D02*
X81714286Y-80187600D01*
X81714286Y-80187600D02*
X81657143Y-80359028D01*
X81657143Y-80359028D02*
X80971429Y-81044742D01*
X80971429Y-81044742D02*
X81714286Y-81044742D01*
X82800000Y-79844742D02*
X82228572Y-79844742D01*
X82228572Y-79844742D02*
X82171429Y-80416171D01*
X82171429Y-80416171D02*
X82228572Y-80359028D01*
X82228572Y-80359028D02*
X82342858Y-80301885D01*
X82342858Y-80301885D02*
X82628572Y-80301885D01*
X82628572Y-80301885D02*
X82742858Y-80359028D01*
X82742858Y-80359028D02*
X82800000Y-80416171D01*
X82800000Y-80416171D02*
X82857143Y-80530457D01*
X82857143Y-80530457D02*
X82857143Y-80816171D01*
X82857143Y-80816171D02*
X82800000Y-80930457D01*
X82800000Y-80930457D02*
X82742858Y-80987600D01*
X82742858Y-80987600D02*
X82628572Y-81044742D01*
X82628572Y-81044742D02*
X82342858Y-81044742D01*
X82342858Y-81044742D02*
X82228572Y-80987600D01*
X82228572Y-80987600D02*
X82171429Y-80930457D01*
X83600000Y-79844742D02*
X83714286Y-79844742D01*
X83714286Y-79844742D02*
X83828572Y-79901885D01*
X83828572Y-79901885D02*
X83885715Y-79959028D01*
X83885715Y-79959028D02*
X83942857Y-80073314D01*
X83942857Y-80073314D02*
X84000000Y-80301885D01*
X84000000Y-80301885D02*
X84000000Y-80587600D01*
X84000000Y-80587600D02*
X83942857Y-80816171D01*
X83942857Y-80816171D02*
X83885715Y-80930457D01*
X83885715Y-80930457D02*
X83828572Y-80987600D01*
X83828572Y-80987600D02*
X83714286Y-81044742D01*
X83714286Y-81044742D02*
X83600000Y-81044742D01*
X83600000Y-81044742D02*
X83485715Y-80987600D01*
X83485715Y-80987600D02*
X83428572Y-80930457D01*
X83428572Y-80930457D02*
X83371429Y-80816171D01*
X83371429Y-80816171D02*
X83314286Y-80587600D01*
X83314286Y-80587600D02*
X83314286Y-80301885D01*
X83314286Y-80301885D02*
X83371429Y-80073314D01*
X83371429Y-80073314D02*
X83428572Y-79959028D01*
X83428572Y-79959028D02*
X83485715Y-79901885D01*
X83485715Y-79901885D02*
X83600000Y-79844742D01*
X84342857Y-79844742D02*
X84742857Y-81044742D01*
X84742857Y-81044742D02*
X85142857Y-79844742D01*
X85371428Y-80587600D02*
X85428571Y-80530457D01*
X85428571Y-80530457D02*
X85542857Y-80473314D01*
X85542857Y-80473314D02*
X85771428Y-80587600D01*
X85771428Y-80587600D02*
X85885714Y-80530457D01*
X85885714Y-80530457D02*
X85942857Y-80473314D01*
X87828572Y-80244742D02*
X87828572Y-81044742D01*
X87542857Y-79787600D02*
X87257143Y-80644742D01*
X87257143Y-80644742D02*
X88000000Y-80644742D01*
X88400000Y-80701885D02*
X88971429Y-80701885D01*
X88285714Y-81044742D02*
X88685714Y-79844742D01*
X88685714Y-79844742D02*
X89085714Y-81044742D01*
X115028572Y-79959028D02*
X115085715Y-79901885D01*
X115085715Y-79901885D02*
X115200001Y-79844742D01*
X115200001Y-79844742D02*
X115485715Y-79844742D01*
X115485715Y-79844742D02*
X115600001Y-79901885D01*
X115600001Y-79901885D02*
X115657143Y-79959028D01*
X115657143Y-79959028D02*
X115714286Y-80073314D01*
X115714286Y-80073314D02*
X115714286Y-80187600D01*
X115714286Y-80187600D02*
X115657143Y-80359028D01*
X115657143Y-80359028D02*
X114971429Y-81044742D01*
X114971429Y-81044742D02*
X115714286Y-81044742D01*
X116800000Y-79844742D02*
X116228572Y-79844742D01*
X116228572Y-79844742D02*
X116171429Y-80416171D01*
X116171429Y-80416171D02*
X116228572Y-80359028D01*
X116228572Y-80359028D02*
X116342858Y-80301885D01*
X116342858Y-80301885D02*
X116628572Y-80301885D01*
X116628572Y-80301885D02*
X116742858Y-80359028D01*
X116742858Y-80359028D02*
X116800000Y-80416171D01*
X116800000Y-80416171D02*
X116857143Y-80530457D01*
X116857143Y-80530457D02*
X116857143Y-80816171D01*
X116857143Y-80816171D02*
X116800000Y-80930457D01*
X116800000Y-80930457D02*
X116742858Y-80987600D01*
X116742858Y-80987600D02*
X116628572Y-81044742D01*
X116628572Y-81044742D02*
X116342858Y-81044742D01*
X116342858Y-81044742D02*
X116228572Y-80987600D01*
X116228572Y-80987600D02*
X116171429Y-80930457D01*
X117600000Y-79844742D02*
X117714286Y-79844742D01*
X117714286Y-79844742D02*
X117828572Y-79901885D01*
X117828572Y-79901885D02*
X117885715Y-79959028D01*
X117885715Y-79959028D02*
X117942857Y-80073314D01*
X117942857Y-80073314D02*
X118000000Y-80301885D01*
X118000000Y-80301885D02*
X118000000Y-80587600D01*
X118000000Y-80587600D02*
X117942857Y-80816171D01*
X117942857Y-80816171D02*
X117885715Y-80930457D01*
X117885715Y-80930457D02*
X117828572Y-80987600D01*
X117828572Y-80987600D02*
X117714286Y-81044742D01*
X117714286Y-81044742D02*
X117600000Y-81044742D01*
X117600000Y-81044742D02*
X117485715Y-80987600D01*
X117485715Y-80987600D02*
X117428572Y-80930457D01*
X117428572Y-80930457D02*
X117371429Y-80816171D01*
X117371429Y-80816171D02*
X117314286Y-80587600D01*
X117314286Y-80587600D02*
X117314286Y-80301885D01*
X117314286Y-80301885D02*
X117371429Y-80073314D01*
X117371429Y-80073314D02*
X117428572Y-79959028D01*
X117428572Y-79959028D02*
X117485715Y-79901885D01*
X117485715Y-79901885D02*
X117600000Y-79844742D01*
X118342857Y-79844742D02*
X118742857Y-81044742D01*
X118742857Y-81044742D02*
X119142857Y-79844742D01*
X119371428Y-80587600D02*
X119428571Y-80530457D01*
X119428571Y-80530457D02*
X119542857Y-80473314D01*
X119542857Y-80473314D02*
X119771428Y-80587600D01*
X119771428Y-80587600D02*
X119885714Y-80530457D01*
X119885714Y-80530457D02*
X119942857Y-80473314D01*
X121828572Y-80244742D02*
X121828572Y-81044742D01*
X121542857Y-79787600D02*
X121257143Y-80644742D01*
X121257143Y-80644742D02*
X122000000Y-80644742D01*
X122400000Y-80701885D02*
X122971429Y-80701885D01*
X122285714Y-81044742D02*
X122685714Y-79844742D01*
X122685714Y-79844742D02*
X123085714Y-81044742D01*
X149028572Y-79959028D02*
X149085715Y-79901885D01*
X149085715Y-79901885D02*
X149200001Y-79844742D01*
X149200001Y-79844742D02*
X149485715Y-79844742D01*
X149485715Y-79844742D02*
X149600001Y-79901885D01*
X149600001Y-79901885D02*
X149657143Y-79959028D01*
X149657143Y-79959028D02*
X149714286Y-80073314D01*
X149714286Y-80073314D02*
X149714286Y-80187600D01*
X149714286Y-80187600D02*
X149657143Y-80359028D01*
X149657143Y-80359028D02*
X148971429Y-81044742D01*
X148971429Y-81044742D02*
X149714286Y-81044742D01*
X150800000Y-79844742D02*
X150228572Y-79844742D01*
X150228572Y-79844742D02*
X150171429Y-80416171D01*
X150171429Y-80416171D02*
X150228572Y-80359028D01*
X150228572Y-80359028D02*
X150342858Y-80301885D01*
X150342858Y-80301885D02*
X150628572Y-80301885D01*
X150628572Y-80301885D02*
X150742858Y-80359028D01*
X150742858Y-80359028D02*
X150800000Y-80416171D01*
X150800000Y-80416171D02*
X150857143Y-80530457D01*
X150857143Y-80530457D02*
X150857143Y-80816171D01*
X150857143Y-80816171D02*
X150800000Y-80930457D01*
X150800000Y-80930457D02*
X150742858Y-80987600D01*
X150742858Y-80987600D02*
X150628572Y-81044742D01*
X150628572Y-81044742D02*
X150342858Y-81044742D01*
X150342858Y-81044742D02*
X150228572Y-80987600D01*
X150228572Y-80987600D02*
X150171429Y-80930457D01*
X151600000Y-79844742D02*
X151714286Y-79844742D01*
X151714286Y-79844742D02*
X151828572Y-79901885D01*
X151828572Y-79901885D02*
X151885715Y-79959028D01*
X151885715Y-79959028D02*
X151942857Y-80073314D01*
X151942857Y-80073314D02*
X152000000Y-80301885D01*
X152000000Y-80301885D02*
X152000000Y-80587600D01*
X152000000Y-80587600D02*
X151942857Y-80816171D01*
X151942857Y-80816171D02*
X151885715Y-80930457D01*
X151885715Y-80930457D02*
X151828572Y-80987600D01*
X151828572Y-80987600D02*
X151714286Y-81044742D01*
X151714286Y-81044742D02*
X151600000Y-81044742D01*
X151600000Y-81044742D02*
X151485715Y-80987600D01*
X151485715Y-80987600D02*
X151428572Y-80930457D01*
X151428572Y-80930457D02*
X151371429Y-80816171D01*
X151371429Y-80816171D02*
X151314286Y-80587600D01*
X151314286Y-80587600D02*
X151314286Y-80301885D01*
X151314286Y-80301885D02*
X151371429Y-80073314D01*
X151371429Y-80073314D02*
X151428572Y-79959028D01*
X151428572Y-79959028D02*
X151485715Y-79901885D01*
X151485715Y-79901885D02*
X151600000Y-79844742D01*
X152342857Y-79844742D02*
X152742857Y-81044742D01*
X152742857Y-81044742D02*
X153142857Y-79844742D01*
X153371428Y-80587600D02*
X153428571Y-80530457D01*
X153428571Y-80530457D02*
X153542857Y-80473314D01*
X153542857Y-80473314D02*
X153771428Y-80587600D01*
X153771428Y-80587600D02*
X153885714Y-80530457D01*
X153885714Y-80530457D02*
X153942857Y-80473314D01*
X155828572Y-80244742D02*
X155828572Y-81044742D01*
X155542857Y-79787600D02*
X155257143Y-80644742D01*
X155257143Y-80644742D02*
X156000000Y-80644742D01*
X156400000Y-80701885D02*
X156971429Y-80701885D01*
X156285714Y-81044742D02*
X156685714Y-79844742D01*
X156685714Y-79844742D02*
X157085714Y-81044742D01*
X70678571Y-53112100D02*
X70892857Y-53183528D01*
X70892857Y-53183528D02*
X71249999Y-53183528D01*
X71249999Y-53183528D02*
X71392857Y-53112100D01*
X71392857Y-53112100D02*
X71464285Y-53040671D01*
X71464285Y-53040671D02*
X71535714Y-52897814D01*
X71535714Y-52897814D02*
X71535714Y-52754957D01*
X71535714Y-52754957D02*
X71464285Y-52612100D01*
X71464285Y-52612100D02*
X71392857Y-52540671D01*
X71392857Y-52540671D02*
X71249999Y-52469242D01*
X71249999Y-52469242D02*
X70964285Y-52397814D01*
X70964285Y-52397814D02*
X70821428Y-52326385D01*
X70821428Y-52326385D02*
X70749999Y-52254957D01*
X70749999Y-52254957D02*
X70678571Y-52112100D01*
X70678571Y-52112100D02*
X70678571Y-51969242D01*
X70678571Y-51969242D02*
X70749999Y-51826385D01*
X70749999Y-51826385D02*
X70821428Y-51754957D01*
X70821428Y-51754957D02*
X70964285Y-51683528D01*
X70964285Y-51683528D02*
X71321428Y-51683528D01*
X71321428Y-51683528D02*
X71535714Y-51754957D01*
X72035713Y-51683528D02*
X72392856Y-53183528D01*
X72392856Y-53183528D02*
X72678570Y-52112100D01*
X72678570Y-52112100D02*
X72964285Y-53183528D01*
X72964285Y-53183528D02*
X73321428Y-51683528D01*
X73892856Y-53183528D02*
X73892856Y-51683528D01*
X74392857Y-51683528D02*
X75250000Y-51683528D01*
X74821428Y-53183528D02*
X74821428Y-51683528D01*
X76607142Y-53040671D02*
X76535714Y-53112100D01*
X76535714Y-53112100D02*
X76321428Y-53183528D01*
X76321428Y-53183528D02*
X76178571Y-53183528D01*
X76178571Y-53183528D02*
X75964285Y-53112100D01*
X75964285Y-53112100D02*
X75821428Y-52969242D01*
X75821428Y-52969242D02*
X75749999Y-52826385D01*
X75749999Y-52826385D02*
X75678571Y-52540671D01*
X75678571Y-52540671D02*
X75678571Y-52326385D01*
X75678571Y-52326385D02*
X75749999Y-52040671D01*
X75749999Y-52040671D02*
X75821428Y-51897814D01*
X75821428Y-51897814D02*
X75964285Y-51754957D01*
X75964285Y-51754957D02*
X76178571Y-51683528D01*
X76178571Y-51683528D02*
X76321428Y-51683528D01*
X76321428Y-51683528D02*
X76535714Y-51754957D01*
X76535714Y-51754957D02*
X76607142Y-51826385D01*
X77249999Y-53183528D02*
X77249999Y-51683528D01*
X77249999Y-52397814D02*
X78107142Y-52397814D01*
X78107142Y-53183528D02*
X78107142Y-51683528D01*
X78821428Y-52397814D02*
X79321428Y-52397814D01*
X79535714Y-53183528D02*
X78821428Y-53183528D01*
X78821428Y-53183528D02*
X78821428Y-51683528D01*
X78821428Y-51683528D02*
X79535714Y-51683528D01*
X80178571Y-53183528D02*
X80178571Y-51683528D01*
X80178571Y-51683528D02*
X80535714Y-51683528D01*
X80535714Y-51683528D02*
X80750000Y-51754957D01*
X80750000Y-51754957D02*
X80892857Y-51897814D01*
X80892857Y-51897814D02*
X80964286Y-52040671D01*
X80964286Y-52040671D02*
X81035714Y-52326385D01*
X81035714Y-52326385D02*
X81035714Y-52540671D01*
X81035714Y-52540671D02*
X80964286Y-52826385D01*
X80964286Y-52826385D02*
X80892857Y-52969242D01*
X80892857Y-52969242D02*
X80750000Y-53112100D01*
X80750000Y-53112100D02*
X80535714Y-53183528D01*
X80535714Y-53183528D02*
X80178571Y-53183528D01*
X82750000Y-53112100D02*
X82964286Y-53183528D01*
X82964286Y-53183528D02*
X83321428Y-53183528D01*
X83321428Y-53183528D02*
X83464286Y-53112100D01*
X83464286Y-53112100D02*
X83535714Y-53040671D01*
X83535714Y-53040671D02*
X83607143Y-52897814D01*
X83607143Y-52897814D02*
X83607143Y-52754957D01*
X83607143Y-52754957D02*
X83535714Y-52612100D01*
X83535714Y-52612100D02*
X83464286Y-52540671D01*
X83464286Y-52540671D02*
X83321428Y-52469242D01*
X83321428Y-52469242D02*
X83035714Y-52397814D01*
X83035714Y-52397814D02*
X82892857Y-52326385D01*
X82892857Y-52326385D02*
X82821428Y-52254957D01*
X82821428Y-52254957D02*
X82750000Y-52112100D01*
X82750000Y-52112100D02*
X82750000Y-51969242D01*
X82750000Y-51969242D02*
X82821428Y-51826385D01*
X82821428Y-51826385D02*
X82892857Y-51754957D01*
X82892857Y-51754957D02*
X83035714Y-51683528D01*
X83035714Y-51683528D02*
X83392857Y-51683528D01*
X83392857Y-51683528D02*
X83607143Y-51754957D01*
X84249999Y-53183528D02*
X84249999Y-51683528D01*
X84964285Y-53183528D02*
X84964285Y-51683528D01*
X84964285Y-51683528D02*
X85321428Y-51683528D01*
X85321428Y-51683528D02*
X85535714Y-51754957D01*
X85535714Y-51754957D02*
X85678571Y-51897814D01*
X85678571Y-51897814D02*
X85750000Y-52040671D01*
X85750000Y-52040671D02*
X85821428Y-52326385D01*
X85821428Y-52326385D02*
X85821428Y-52540671D01*
X85821428Y-52540671D02*
X85750000Y-52826385D01*
X85750000Y-52826385D02*
X85678571Y-52969242D01*
X85678571Y-52969242D02*
X85535714Y-53112100D01*
X85535714Y-53112100D02*
X85321428Y-53183528D01*
X85321428Y-53183528D02*
X84964285Y-53183528D01*
X86464285Y-52397814D02*
X86964285Y-52397814D01*
X87178571Y-53183528D02*
X86464285Y-53183528D01*
X86464285Y-53183528D02*
X86464285Y-51683528D01*
X86464285Y-51683528D02*
X87178571Y-51683528D01*
X89464285Y-52397814D02*
X89678571Y-52469242D01*
X89678571Y-52469242D02*
X89750000Y-52540671D01*
X89750000Y-52540671D02*
X89821428Y-52683528D01*
X89821428Y-52683528D02*
X89821428Y-52897814D01*
X89821428Y-52897814D02*
X89750000Y-53040671D01*
X89750000Y-53040671D02*
X89678571Y-53112100D01*
X89678571Y-53112100D02*
X89535714Y-53183528D01*
X89535714Y-53183528D02*
X88964285Y-53183528D01*
X88964285Y-53183528D02*
X88964285Y-51683528D01*
X88964285Y-51683528D02*
X89464285Y-51683528D01*
X89464285Y-51683528D02*
X89607143Y-51754957D01*
X89607143Y-51754957D02*
X89678571Y-51826385D01*
X89678571Y-51826385D02*
X89750000Y-51969242D01*
X89750000Y-51969242D02*
X89750000Y-52112100D01*
X89750000Y-52112100D02*
X89678571Y-52254957D01*
X89678571Y-52254957D02*
X89607143Y-52326385D01*
X89607143Y-52326385D02*
X89464285Y-52397814D01*
X89464285Y-52397814D02*
X88964285Y-52397814D01*
X90464285Y-52397814D02*
X90964285Y-52397814D01*
X91178571Y-53183528D02*
X90464285Y-53183528D01*
X90464285Y-53183528D02*
X90464285Y-51683528D01*
X90464285Y-51683528D02*
X91178571Y-51683528D01*
X92535714Y-53183528D02*
X91821428Y-53183528D01*
X91821428Y-53183528D02*
X91821428Y-51683528D01*
X93321429Y-51683528D02*
X93607143Y-51683528D01*
X93607143Y-51683528D02*
X93750000Y-51754957D01*
X93750000Y-51754957D02*
X93892857Y-51897814D01*
X93892857Y-51897814D02*
X93964286Y-52183528D01*
X93964286Y-52183528D02*
X93964286Y-52683528D01*
X93964286Y-52683528D02*
X93892857Y-52969242D01*
X93892857Y-52969242D02*
X93750000Y-53112100D01*
X93750000Y-53112100D02*
X93607143Y-53183528D01*
X93607143Y-53183528D02*
X93321429Y-53183528D01*
X93321429Y-53183528D02*
X93178572Y-53112100D01*
X93178572Y-53112100D02*
X93035714Y-52969242D01*
X93035714Y-52969242D02*
X92964286Y-52683528D01*
X92964286Y-52683528D02*
X92964286Y-52183528D01*
X92964286Y-52183528D02*
X93035714Y-51897814D01*
X93035714Y-51897814D02*
X93178572Y-51754957D01*
X93178572Y-51754957D02*
X93321429Y-51683528D01*
X94464286Y-51683528D02*
X94821429Y-53183528D01*
X94821429Y-53183528D02*
X95107143Y-52112100D01*
X95107143Y-52112100D02*
X95392858Y-53183528D01*
X95392858Y-53183528D02*
X95750001Y-51683528D01*
X97250001Y-51683528D02*
X98107144Y-51683528D01*
X97678572Y-53183528D02*
X97678572Y-51683528D01*
X98607143Y-53183528D02*
X98607143Y-51683528D01*
X98607143Y-52397814D02*
X99464286Y-52397814D01*
X99464286Y-53183528D02*
X99464286Y-51683528D01*
X100178572Y-52397814D02*
X100678572Y-52397814D01*
X100892858Y-53183528D02*
X100178572Y-53183528D01*
X100178572Y-53183528D02*
X100178572Y-51683528D01*
X100178572Y-51683528D02*
X100892858Y-51683528D01*
X103464287Y-51754957D02*
X103321430Y-51683528D01*
X103321430Y-51683528D02*
X103107144Y-51683528D01*
X103107144Y-51683528D02*
X102892858Y-51754957D01*
X102892858Y-51754957D02*
X102750001Y-51897814D01*
X102750001Y-51897814D02*
X102678572Y-52040671D01*
X102678572Y-52040671D02*
X102607144Y-52326385D01*
X102607144Y-52326385D02*
X102607144Y-52540671D01*
X102607144Y-52540671D02*
X102678572Y-52826385D01*
X102678572Y-52826385D02*
X102750001Y-52969242D01*
X102750001Y-52969242D02*
X102892858Y-53112100D01*
X102892858Y-53112100D02*
X103107144Y-53183528D01*
X103107144Y-53183528D02*
X103250001Y-53183528D01*
X103250001Y-53183528D02*
X103464287Y-53112100D01*
X103464287Y-53112100D02*
X103535715Y-53040671D01*
X103535715Y-53040671D02*
X103535715Y-52540671D01*
X103535715Y-52540671D02*
X103250001Y-52540671D01*
X104107144Y-52754957D02*
X104821430Y-52754957D01*
X103964287Y-53183528D02*
X104464287Y-51683528D01*
X104464287Y-51683528D02*
X104964287Y-53183528D01*
X105464286Y-53183528D02*
X105464286Y-51683528D01*
X105464286Y-51683528D02*
X106035715Y-51683528D01*
X106035715Y-51683528D02*
X106178572Y-51754957D01*
X106178572Y-51754957D02*
X106250001Y-51826385D01*
X106250001Y-51826385D02*
X106321429Y-51969242D01*
X106321429Y-51969242D02*
X106321429Y-52183528D01*
X106321429Y-52183528D02*
X106250001Y-52326385D01*
X106250001Y-52326385D02*
X106178572Y-52397814D01*
X106178572Y-52397814D02*
X106035715Y-52469242D01*
X106035715Y-52469242D02*
X105464286Y-52469242D01*
X108107143Y-52612100D02*
X109250001Y-52612100D01*
X111107143Y-53183528D02*
X111107143Y-51683528D01*
X111107143Y-52397814D02*
X111964286Y-52397814D01*
X111964286Y-53183528D02*
X111964286Y-51683528D01*
X112607144Y-52754957D02*
X113321430Y-52754957D01*
X112464287Y-53183528D02*
X112964287Y-51683528D01*
X112964287Y-51683528D02*
X113464287Y-53183528D01*
X113821429Y-51683528D02*
X114821429Y-51683528D01*
X114821429Y-51683528D02*
X113821429Y-53183528D01*
X113821429Y-53183528D02*
X114821429Y-53183528D01*
X115321429Y-52754957D02*
X116035715Y-52754957D01*
X115178572Y-53183528D02*
X115678572Y-51683528D01*
X115678572Y-51683528D02*
X116178572Y-53183528D01*
X117535714Y-53183528D02*
X117035714Y-52469242D01*
X116678571Y-53183528D02*
X116678571Y-51683528D01*
X116678571Y-51683528D02*
X117250000Y-51683528D01*
X117250000Y-51683528D02*
X117392857Y-51754957D01*
X117392857Y-51754957D02*
X117464286Y-51826385D01*
X117464286Y-51826385D02*
X117535714Y-51969242D01*
X117535714Y-51969242D02*
X117535714Y-52183528D01*
X117535714Y-52183528D02*
X117464286Y-52326385D01*
X117464286Y-52326385D02*
X117392857Y-52397814D01*
X117392857Y-52397814D02*
X117250000Y-52469242D01*
X117250000Y-52469242D02*
X116678571Y-52469242D01*
X118178571Y-53183528D02*
X118178571Y-51683528D01*
X118178571Y-51683528D02*
X118535714Y-51683528D01*
X118535714Y-51683528D02*
X118750000Y-51754957D01*
X118750000Y-51754957D02*
X118892857Y-51897814D01*
X118892857Y-51897814D02*
X118964286Y-52040671D01*
X118964286Y-52040671D02*
X119035714Y-52326385D01*
X119035714Y-52326385D02*
X119035714Y-52540671D01*
X119035714Y-52540671D02*
X118964286Y-52826385D01*
X118964286Y-52826385D02*
X118892857Y-52969242D01*
X118892857Y-52969242D02*
X118750000Y-53112100D01*
X118750000Y-53112100D02*
X118535714Y-53183528D01*
X118535714Y-53183528D02*
X118178571Y-53183528D01*
X119964286Y-51683528D02*
X120250000Y-51683528D01*
X120250000Y-51683528D02*
X120392857Y-51754957D01*
X120392857Y-51754957D02*
X120535714Y-51897814D01*
X120535714Y-51897814D02*
X120607143Y-52183528D01*
X120607143Y-52183528D02*
X120607143Y-52683528D01*
X120607143Y-52683528D02*
X120535714Y-52969242D01*
X120535714Y-52969242D02*
X120392857Y-53112100D01*
X120392857Y-53112100D02*
X120250000Y-53183528D01*
X120250000Y-53183528D02*
X119964286Y-53183528D01*
X119964286Y-53183528D02*
X119821429Y-53112100D01*
X119821429Y-53112100D02*
X119678571Y-52969242D01*
X119678571Y-52969242D02*
X119607143Y-52683528D01*
X119607143Y-52683528D02*
X119607143Y-52183528D01*
X119607143Y-52183528D02*
X119678571Y-51897814D01*
X119678571Y-51897814D02*
X119821429Y-51754957D01*
X119821429Y-51754957D02*
X119964286Y-51683528D01*
X121250000Y-51683528D02*
X121250000Y-52897814D01*
X121250000Y-52897814D02*
X121321429Y-53040671D01*
X121321429Y-53040671D02*
X121392858Y-53112100D01*
X121392858Y-53112100D02*
X121535715Y-53183528D01*
X121535715Y-53183528D02*
X121821429Y-53183528D01*
X121821429Y-53183528D02*
X121964286Y-53112100D01*
X121964286Y-53112100D02*
X122035715Y-53040671D01*
X122035715Y-53040671D02*
X122107143Y-52897814D01*
X122107143Y-52897814D02*
X122107143Y-51683528D01*
X122750001Y-53112100D02*
X122964287Y-53183528D01*
X122964287Y-53183528D02*
X123321429Y-53183528D01*
X123321429Y-53183528D02*
X123464287Y-53112100D01*
X123464287Y-53112100D02*
X123535715Y-53040671D01*
X123535715Y-53040671D02*
X123607144Y-52897814D01*
X123607144Y-52897814D02*
X123607144Y-52754957D01*
X123607144Y-52754957D02*
X123535715Y-52612100D01*
X123535715Y-52612100D02*
X123464287Y-52540671D01*
X123464287Y-52540671D02*
X123321429Y-52469242D01*
X123321429Y-52469242D02*
X123035715Y-52397814D01*
X123035715Y-52397814D02*
X122892858Y-52326385D01*
X122892858Y-52326385D02*
X122821429Y-52254957D01*
X122821429Y-52254957D02*
X122750001Y-52112100D01*
X122750001Y-52112100D02*
X122750001Y-51969242D01*
X122750001Y-51969242D02*
X122821429Y-51826385D01*
X122821429Y-51826385D02*
X122892858Y-51754957D01*
X122892858Y-51754957D02*
X123035715Y-51683528D01*
X123035715Y-51683528D02*
X123392858Y-51683528D01*
X123392858Y-51683528D02*
X123607144Y-51754957D01*
X126107143Y-53183528D02*
X125392857Y-53183528D01*
X125392857Y-53183528D02*
X125392857Y-51683528D01*
X126607143Y-53183528D02*
X126607143Y-51683528D01*
X127107144Y-51683528D02*
X127607144Y-53183528D01*
X127607144Y-53183528D02*
X128107144Y-51683528D01*
X128607143Y-52397814D02*
X129107143Y-52397814D01*
X129321429Y-53183528D02*
X128607143Y-53183528D01*
X128607143Y-53183528D02*
X128607143Y-51683528D01*
X128607143Y-51683528D02*
X129321429Y-51683528D01*
%TO.C,C6*%
D12*
X85140580Y-36490000D02*
X84859420Y-36490000D01*
X85140580Y-37510000D02*
X84859420Y-37510000D01*
%TO.C,D8*%
X153015000Y-57765000D02*
X153015000Y-59235000D01*
X153015000Y-59235000D02*
X155300000Y-59235000D01*
X155300000Y-57765000D02*
X153015000Y-57765000D01*
%TO.C,R14*%
X58237258Y-42477500D02*
X57762742Y-42477500D01*
X58237258Y-43522500D02*
X57762742Y-43522500D01*
%TO.C,TP7*%
X115700000Y-58000000D02*
G75*
G02*
X114300000Y-58000000I-700000J0D01*
G01*
X114300000Y-58000000D02*
G75*
G02*
X115700000Y-58000000I700000J0D01*
G01*
%TO.C,TP1*%
X55700000Y-38000000D02*
G75*
G02*
X54300000Y-38000000I-700000J0D01*
G01*
X54300000Y-38000000D02*
G75*
G02*
X55700000Y-38000000I700000J0D01*
G01*
%TO.C,Q2*%
X78240000Y-63440000D02*
X79760000Y-63440000D01*
X78240000Y-64440000D02*
X78240000Y-63440000D01*
X78240000Y-66560000D02*
X78240000Y-65560000D01*
X79760000Y-63440000D02*
X79760000Y-63490000D01*
X79760000Y-64610000D02*
X79760000Y-65390000D01*
X79760000Y-66510000D02*
X79760000Y-66560000D01*
X79760000Y-66560000D02*
X78240000Y-66560000D01*
X80300000Y-65380000D02*
X80060000Y-65050000D01*
X80540000Y-65050000D01*
X80300000Y-65380000D01*
G36*
X80300000Y-65380000D02*
G01*
X80060000Y-65050000D01*
X80540000Y-65050000D01*
X80300000Y-65380000D01*
G37*
%TO.C,C5*%
X93140580Y-46490000D02*
X92859420Y-46490000D01*
X93140580Y-47510000D02*
X92859420Y-47510000D01*
%TO.C,D2*%
X71140000Y-64000000D02*
X71140000Y-66000000D01*
X71140000Y-64000000D02*
X75150000Y-64000000D01*
X71140000Y-66000000D02*
X75150000Y-66000000D01*
%TO.C,TP12*%
X143700000Y-58000000D02*
G75*
G02*
X142300000Y-58000000I-700000J0D01*
G01*
X142300000Y-58000000D02*
G75*
G02*
X143700000Y-58000000I700000J0D01*
G01*
%TO.C,Q5*%
X58240000Y-37440000D02*
X59760000Y-37440000D01*
X58240000Y-38440000D02*
X58240000Y-37440000D01*
X58240000Y-40560000D02*
X58240000Y-39560000D01*
X59760000Y-37440000D02*
X59760000Y-37490000D01*
X59760000Y-38610000D02*
X59760000Y-39390000D01*
X59760000Y-40510000D02*
X59760000Y-40560000D01*
X59760000Y-40560000D02*
X58240000Y-40560000D01*
X60300000Y-39380000D02*
X60060000Y-39050000D01*
X60540000Y-39050000D01*
X60300000Y-39380000D01*
G36*
X60300000Y-39380000D02*
G01*
X60060000Y-39050000D01*
X60540000Y-39050000D01*
X60300000Y-39380000D01*
G37*
%TO.C,R7*%
X115262742Y-60977500D02*
X115737258Y-60977500D01*
X115262742Y-62022500D02*
X115737258Y-62022500D01*
%TO.C,D6*%
X86015000Y-57765000D02*
X86015000Y-59235000D01*
X86015000Y-59235000D02*
X88300000Y-59235000D01*
X88300000Y-57765000D02*
X86015000Y-57765000D01*
%TO.C,R13*%
X69262742Y-41477500D02*
X69737258Y-41477500D01*
X69262742Y-42522500D02*
X69737258Y-42522500D01*
%TO.C,J6*%
X104620000Y-31620000D02*
X106000000Y-31620000D01*
X104620000Y-33000000D02*
X104620000Y-31620000D01*
X104620000Y-34270000D02*
X104620000Y-44540000D01*
X104620000Y-34270000D02*
X107380000Y-34270000D01*
X104620000Y-44540000D02*
X107380000Y-44540000D01*
X107380000Y-34270000D02*
X107380000Y-44540000D01*
%TO.C,R12*%
X153977500Y-62737258D02*
X153977500Y-62262742D01*
X155022500Y-62737258D02*
X155022500Y-62262742D01*
%TO.C,R10*%
X88262742Y-60977500D02*
X88737258Y-60977500D01*
X88262742Y-62022500D02*
X88737258Y-62022500D01*
%TO.C,K1*%
X32910000Y-68360000D02*
X35100000Y-68360000D01*
X32910000Y-70700000D02*
X32910000Y-68360000D01*
X33150000Y-68600000D02*
X33150000Y-97600000D01*
X33150000Y-97600000D02*
X45850000Y-97600000D01*
X39150000Y-70400000D02*
X39150000Y-71600000D01*
X39150000Y-71200000D02*
X39850000Y-70800000D01*
X39150000Y-71600000D02*
X39850000Y-71600000D01*
X39850000Y-70400000D02*
X39150000Y-70400000D01*
X39850000Y-71600000D02*
X39850000Y-70400000D01*
X45850000Y-68600000D02*
X33150000Y-68600000D01*
X45850000Y-97600000D02*
X45850000Y-68600000D01*
%TO.C,J5*%
X135880000Y-100930000D02*
X141200000Y-100930000D01*
X135880000Y-117170000D02*
X135880000Y-100930000D01*
X141800000Y-100930000D02*
X166120000Y-100930000D01*
X166120000Y-100930000D02*
X166120000Y-117170000D01*
X166120000Y-117170000D02*
X135880000Y-117170000D01*
X141500000Y-100930000D02*
X141060000Y-100320000D01*
X141940000Y-100320000D01*
X141500000Y-100930000D01*
G36*
X141500000Y-100930000D02*
G01*
X141060000Y-100320000D01*
X141940000Y-100320000D01*
X141500000Y-100930000D01*
G37*
%TO.C,Q1*%
X45240000Y-62440000D02*
X46760000Y-62440000D01*
X45240000Y-63440000D02*
X45240000Y-62440000D01*
X45240000Y-65560000D02*
X45240000Y-64560000D01*
X46760000Y-62440000D02*
X46760000Y-62490000D01*
X46760000Y-63610000D02*
X46760000Y-64390000D01*
X46760000Y-65510000D02*
X46760000Y-65560000D01*
X46760000Y-65560000D02*
X45240000Y-65560000D01*
X47300000Y-64380000D02*
X47060000Y-64050000D01*
X47540000Y-64050000D01*
X47300000Y-64380000D01*
G36*
X47300000Y-64380000D02*
G01*
X47060000Y-64050000D01*
X47540000Y-64050000D01*
X47300000Y-64380000D01*
G37*
%TO.C,TP11*%
X110700000Y-59000000D02*
G75*
G02*
X109300000Y-59000000I-700000J0D01*
G01*
X109300000Y-59000000D02*
G75*
G02*
X110700000Y-59000000I700000J0D01*
G01*
%TO.C,J2*%
X33880000Y-100930000D02*
X39200000Y-100930000D01*
X33880000Y-117170000D02*
X33880000Y-100930000D01*
X39800000Y-100930000D02*
X64120000Y-100930000D01*
X64120000Y-100930000D02*
X64120000Y-117170000D01*
X64120000Y-117170000D02*
X33880000Y-117170000D01*
X39500000Y-100930000D02*
X39060000Y-100320000D01*
X39940000Y-100320000D01*
X39500000Y-100930000D01*
G36*
X39500000Y-100930000D02*
G01*
X39060000Y-100320000D01*
X39940000Y-100320000D01*
X39500000Y-100930000D01*
G37*
%TO.C,R4*%
X150977500Y-65237258D02*
X150977500Y-64762742D01*
X152022500Y-65237258D02*
X152022500Y-64762742D01*
%TO.C,K4*%
X134910000Y-68360000D02*
X137100000Y-68360000D01*
X134910000Y-70700000D02*
X134910000Y-68360000D01*
X135150000Y-68600000D02*
X135150000Y-97600000D01*
X135150000Y-97600000D02*
X147850000Y-97600000D01*
X141150000Y-70400000D02*
X141150000Y-71600000D01*
X141150000Y-71200000D02*
X141850000Y-70800000D01*
X141150000Y-71600000D02*
X141850000Y-71600000D01*
X141850000Y-70400000D02*
X141150000Y-70400000D01*
X141850000Y-71600000D02*
X141850000Y-70400000D01*
X147850000Y-68600000D02*
X135150000Y-68600000D01*
X147850000Y-97600000D02*
X147850000Y-68600000D01*
%TO.C,C1*%
X63265000Y-37261252D02*
X63265000Y-36738748D01*
X64735000Y-37261252D02*
X64735000Y-36738748D01*
%TO.C,R5*%
X47262742Y-59977500D02*
X47737258Y-59977500D01*
X47262742Y-61022500D02*
X47737258Y-61022500D01*
%TO.C,R1*%
X51737258Y-63477500D02*
X51262742Y-63477500D01*
X51737258Y-64522500D02*
X51262742Y-64522500D01*
%TO.C,U1*%
X88615000Y-42310000D02*
X88615000Y-37690000D01*
X95385000Y-37690000D02*
X95385000Y-42310000D01*
X89070000Y-43860000D02*
X89310000Y-44190000D01*
X88830000Y-44190000D01*
X89070000Y-43860000D01*
G36*
X89310000Y-44190000D02*
G01*
X88830000Y-44190000D01*
X89070000Y-43860000D01*
X89310000Y-44190000D01*
G37*
%TO.C,TP4*%
X85200000Y-41000000D02*
G75*
G02*
X83800000Y-41000000I-700000J0D01*
G01*
X83800000Y-41000000D02*
G75*
G02*
X85200000Y-41000000I700000J0D01*
G01*
%TO.C,K2*%
X66910000Y-68360000D02*
X69100000Y-68360000D01*
X66910000Y-70700000D02*
X66910000Y-68360000D01*
X67150000Y-68600000D02*
X67150000Y-97600000D01*
X67150000Y-97600000D02*
X79850000Y-97600000D01*
X73150000Y-70400000D02*
X73150000Y-71600000D01*
X73150000Y-71200000D02*
X73850000Y-70800000D01*
X73150000Y-71600000D02*
X73850000Y-71600000D01*
X73850000Y-70400000D02*
X73150000Y-70400000D01*
X73850000Y-71600000D02*
X73850000Y-70400000D01*
X79850000Y-68600000D02*
X67150000Y-68600000D01*
X79850000Y-97600000D02*
X79850000Y-68600000D01*
%TO.C,R8*%
X149977500Y-60737258D02*
X149977500Y-60262742D01*
X151022500Y-60737258D02*
X151022500Y-60262742D01*
%TO.C,TP8*%
X148700000Y-57000000D02*
G75*
G02*
X147300000Y-57000000I-700000J0D01*
G01*
X147300000Y-57000000D02*
G75*
G02*
X148700000Y-57000000I700000J0D01*
G01*
%TO.C,D4*%
X139140000Y-64000000D02*
X139140000Y-66000000D01*
X139140000Y-64000000D02*
X143150000Y-64000000D01*
X139140000Y-66000000D02*
X143150000Y-66000000D01*
%TO.C,R11*%
X120262742Y-58977500D02*
X120737258Y-58977500D01*
X120262742Y-60022500D02*
X120737258Y-60022500D01*
%TO.C,R9*%
X55737258Y-60977500D02*
X55262742Y-60977500D01*
X55737258Y-62022500D02*
X55262742Y-62022500D01*
%TO.C,D9*%
X72265000Y-39515000D02*
X72265000Y-41800000D01*
X73735000Y-39515000D02*
X72265000Y-39515000D01*
X73735000Y-41800000D02*
X73735000Y-39515000D01*
%TO.C,D7*%
X123765000Y-57015000D02*
X123765000Y-59300000D01*
X125235000Y-57015000D02*
X123765000Y-57015000D01*
X125235000Y-59300000D02*
X125235000Y-57015000D01*
%TO.C,J7*%
X120620000Y-31620000D02*
X122000000Y-31620000D01*
X120620000Y-33000000D02*
X120620000Y-31620000D01*
X120620000Y-34270000D02*
X120620000Y-42000000D01*
X120620000Y-34270000D02*
X123380000Y-34270000D01*
X120620000Y-42000000D02*
X123380000Y-42000000D01*
X123380000Y-34270000D02*
X123380000Y-42000000D01*
%TO.C,R15*%
X94237258Y-32477500D02*
X93762742Y-32477500D01*
X94237258Y-33522500D02*
X93762742Y-33522500D01*
%TO.C,J3*%
X67880000Y-100930000D02*
X73200000Y-100930000D01*
X67880000Y-117170000D02*
X67880000Y-100930000D01*
X73800000Y-100930000D02*
X98120000Y-100930000D01*
X98120000Y-100930000D02*
X98120000Y-117170000D01*
X98120000Y-117170000D02*
X67880000Y-117170000D01*
X73500000Y-100930000D02*
X73060000Y-100320000D01*
X73940000Y-100320000D01*
X73500000Y-100930000D01*
G36*
X73500000Y-100930000D02*
G01*
X73060000Y-100320000D01*
X73940000Y-100320000D01*
X73500000Y-100930000D01*
G37*
%TO.C,TP10*%
X76700000Y-59000000D02*
G75*
G02*
X75300000Y-59000000I-700000J0D01*
G01*
X75300000Y-59000000D02*
G75*
G02*
X76700000Y-59000000I700000J0D01*
G01*
%TO.C,D5*%
X51015000Y-57765000D02*
X51015000Y-59235000D01*
X51015000Y-59235000D02*
X53300000Y-59235000D01*
X53300000Y-57765000D02*
X51015000Y-57765000D01*
%TO.C,J4*%
X101880000Y-100930000D02*
X107200000Y-100930000D01*
X101880000Y-117170000D02*
X101880000Y-100930000D01*
X107800000Y-100930000D02*
X132120000Y-100930000D01*
X132120000Y-100930000D02*
X132120000Y-117170000D01*
X132120000Y-117170000D02*
X101880000Y-117170000D01*
X107500000Y-100930000D02*
X107060000Y-100320000D01*
X107940000Y-100320000D01*
X107500000Y-100930000D01*
G36*
X107500000Y-100930000D02*
G01*
X107060000Y-100320000D01*
X107940000Y-100320000D01*
X107500000Y-100930000D01*
G37*
%TO.C,Q4*%
X145440000Y-61240000D02*
X145490000Y-61240000D01*
X145440000Y-62760000D02*
X145440000Y-61240000D01*
X146440000Y-62760000D02*
X145440000Y-62760000D01*
X146610000Y-61240000D02*
X147390000Y-61240000D01*
X148510000Y-61240000D02*
X148560000Y-61240000D01*
X148560000Y-61240000D02*
X148560000Y-62760000D01*
X148560000Y-62760000D02*
X147560000Y-62760000D01*
X147380000Y-60700000D02*
X147050000Y-60940000D01*
X147050000Y-60460000D01*
X147380000Y-60700000D01*
G36*
X147380000Y-60700000D02*
G01*
X147050000Y-60940000D01*
X147050000Y-60460000D01*
X147380000Y-60700000D01*
G37*
%TO.C,TP5*%
X47700000Y-57000000D02*
G75*
G02*
X46300000Y-57000000I-700000J0D01*
G01*
X46300000Y-57000000D02*
G75*
G02*
X47700000Y-57000000I700000J0D01*
G01*
%TO.C,TP3*%
X81200000Y-40000000D02*
G75*
G02*
X79800000Y-40000000I-700000J0D01*
G01*
X79800000Y-40000000D02*
G75*
G02*
X81200000Y-40000000I700000J0D01*
G01*
%TO.C,TP6*%
X80700000Y-58000000D02*
G75*
G02*
X79300000Y-58000000I-700000J0D01*
G01*
X79300000Y-58000000D02*
G75*
G02*
X80700000Y-58000000I700000J0D01*
G01*
%TO.C,R16*%
X73762742Y-36477500D02*
X74237258Y-36477500D01*
X73762742Y-37522500D02*
X74237258Y-37522500D01*
%TO.C,D3*%
X105140000Y-64000000D02*
X105140000Y-66000000D01*
X105140000Y-64000000D02*
X109150000Y-64000000D01*
X105140000Y-66000000D02*
X109150000Y-66000000D01*
%TO.C,K3*%
X100910000Y-68360000D02*
X103100000Y-68360000D01*
X100910000Y-70700000D02*
X100910000Y-68360000D01*
X101150000Y-68600000D02*
X101150000Y-97600000D01*
X101150000Y-97600000D02*
X113850000Y-97600000D01*
X107150000Y-70400000D02*
X107150000Y-71600000D01*
X107150000Y-71200000D02*
X107850000Y-70800000D01*
X107150000Y-71600000D02*
X107850000Y-71600000D01*
X107850000Y-70400000D02*
X107150000Y-70400000D01*
X107850000Y-71600000D02*
X107850000Y-70400000D01*
X113850000Y-68600000D02*
X101150000Y-68600000D01*
X113850000Y-97600000D02*
X113850000Y-68600000D01*
%TO.C,R6*%
X80262742Y-60977500D02*
X80737258Y-60977500D01*
X80262742Y-62022500D02*
X80737258Y-62022500D01*
%TO.C,C4*%
X84859420Y-43490000D02*
X85140580Y-43490000D01*
X84859420Y-44510000D02*
X85140580Y-44510000D01*
%TO.C,C3*%
X77765000Y-35261252D02*
X77765000Y-34738748D01*
X79235000Y-35261252D02*
X79235000Y-34738748D01*
%TO.C,R2*%
X84737258Y-63477500D02*
X84262742Y-63477500D01*
X84737258Y-64522500D02*
X84262742Y-64522500D01*
%TO.C,TP2*%
X67700000Y-39000000D02*
G75*
G02*
X66300000Y-39000000I-700000J0D01*
G01*
X66300000Y-39000000D02*
G75*
G02*
X67700000Y-39000000I700000J0D01*
G01*
%TO.C,TP9*%
X42700000Y-59000000D02*
G75*
G02*
X41300000Y-59000000I-700000J0D01*
G01*
X41300000Y-59000000D02*
G75*
G02*
X42700000Y-59000000I700000J0D01*
G01*
%TO.C,R3*%
X118977500Y-62762742D02*
X118977500Y-63237258D01*
X120022500Y-62762742D02*
X120022500Y-63237258D01*
%TO.C,C2*%
X69765000Y-37261252D02*
X69765000Y-36738748D01*
X71235000Y-37261252D02*
X71235000Y-36738748D01*
%TO.C,D1*%
X37140000Y-64000000D02*
X37140000Y-66000000D01*
X37140000Y-64000000D02*
X41150000Y-64000000D01*
X37140000Y-66000000D02*
X41150000Y-66000000D01*
%TO.C,Q3*%
X113240000Y-63440000D02*
X114760000Y-63440000D01*
X113240000Y-64440000D02*
X113240000Y-63440000D01*
X113240000Y-66560000D02*
X113240000Y-65560000D01*
X114760000Y-63440000D02*
X114760000Y-63490000D01*
X114760000Y-64610000D02*
X114760000Y-65390000D01*
X114760000Y-66510000D02*
X114760000Y-66560000D01*
X114760000Y-66560000D02*
X113240000Y-66560000D01*
X115300000Y-65380000D02*
X115060000Y-65050000D01*
X115540000Y-65050000D01*
X115300000Y-65380000D01*
G36*
X115300000Y-65380000D02*
G01*
X115060000Y-65050000D01*
X115540000Y-65050000D01*
X115300000Y-65380000D01*
G37*
%TD*%
%LPC*%
D13*
%TO.C,C6*%
X85775000Y-37000000D03*
X84225000Y-37000000D03*
%TD*%
D14*
%TO.C,D8*%
X153712500Y-58500000D03*
X155287500Y-58500000D03*
%TD*%
D15*
%TO.C,R14*%
X58825000Y-43000000D03*
X57175000Y-43000000D03*
%TD*%
D16*
%TO.C,D12*%
X111000000Y-41350000D03*
X111000000Y-40650000D03*
%TD*%
D17*
%TO.C,TP7*%
X115000000Y-58000000D03*
%TD*%
%TO.C,TP1*%
X55000000Y-38000000D03*
%TD*%
D18*
%TO.C,Q2*%
X79937500Y-65950000D03*
X79937500Y-64050000D03*
X78062500Y-65000000D03*
%TD*%
D19*
%TO.C,H1*%
X35000000Y-35000000D03*
%TD*%
D13*
%TO.C,C5*%
X93775000Y-47000000D03*
X92225000Y-47000000D03*
%TD*%
D20*
%TO.C,D2*%
X71850000Y-65000000D03*
X75150000Y-65000000D03*
%TD*%
D17*
%TO.C,TP12*%
X143000000Y-58000000D03*
%TD*%
D18*
%TO.C,Q5*%
X59937500Y-39950000D03*
X59937500Y-38050000D03*
X58062500Y-39000000D03*
%TD*%
D21*
%TO.C,R7*%
X114675000Y-61500000D03*
X116325000Y-61500000D03*
%TD*%
D14*
%TO.C,D6*%
X86712500Y-58500000D03*
X88287500Y-58500000D03*
%TD*%
D21*
%TO.C,R13*%
X68675000Y-42000000D03*
X70325000Y-42000000D03*
%TD*%
D22*
%TO.C,J6*%
X106000000Y-33000000D03*
D23*
X106000000Y-35540000D03*
X106000000Y-38080000D03*
X106000000Y-40620000D03*
X106000000Y-43160000D03*
%TD*%
D24*
%TO.C,R12*%
X154500000Y-63325000D03*
X154500000Y-61675000D03*
%TD*%
D21*
%TO.C,R10*%
X87675000Y-61500000D03*
X89325000Y-61500000D03*
%TD*%
D25*
%TO.C,K1*%
X35750000Y-91000000D03*
X43250000Y-91000000D03*
X35750000Y-86000000D03*
X43250000Y-86000000D03*
X35750000Y-96000000D03*
X43250000Y-96000000D03*
D26*
X35750000Y-71000000D03*
D25*
X43250000Y-71000000D03*
%TD*%
D27*
%TO.C,D10*%
X55000000Y-34650000D03*
X55000000Y-35350000D03*
%TD*%
D28*
%TO.C,J5*%
X141500000Y-105000000D03*
D29*
X151000000Y-105000000D03*
X160500000Y-105000000D03*
%TD*%
D19*
%TO.C,H3*%
X62500000Y-62000000D03*
%TD*%
D18*
%TO.C,Q1*%
X46937500Y-64950000D03*
X46937500Y-63050000D03*
X45062500Y-64000000D03*
%TD*%
D17*
%TO.C,TP11*%
X110000000Y-59000000D03*
%TD*%
D28*
%TO.C,J2*%
X39500000Y-105000000D03*
D29*
X49000000Y-105000000D03*
X58500000Y-105000000D03*
%TD*%
D24*
%TO.C,R4*%
X151500000Y-65825000D03*
X151500000Y-64175000D03*
%TD*%
D25*
%TO.C,K4*%
X137750000Y-91000000D03*
X145250000Y-91000000D03*
X137750000Y-86000000D03*
X145250000Y-86000000D03*
X137750000Y-96000000D03*
X145250000Y-96000000D03*
D26*
X137750000Y-71000000D03*
D25*
X145250000Y-71000000D03*
%TD*%
D30*
%TO.C,C1*%
X64000000Y-37950000D03*
X64000000Y-36050000D03*
%TD*%
D21*
%TO.C,R5*%
X46675000Y-60500000D03*
X48325000Y-60500000D03*
%TD*%
D15*
%TO.C,R1*%
X52325000Y-64000000D03*
X50675000Y-64000000D03*
%TD*%
D31*
%TO.C,U1*%
X89075000Y-42862500D03*
X89725000Y-42862500D03*
X90375000Y-42862500D03*
X91025000Y-42862500D03*
X91675000Y-42862500D03*
X92325000Y-42862500D03*
X92975000Y-42862500D03*
X93625000Y-42862500D03*
X94275000Y-42862500D03*
X94925000Y-42862500D03*
X94925000Y-37137500D03*
X94275000Y-37137500D03*
X93625000Y-37137500D03*
X92975000Y-37137500D03*
X92325000Y-37137500D03*
X91675000Y-37137500D03*
X91025000Y-37137500D03*
X90375000Y-37137500D03*
X89725000Y-37137500D03*
X89075000Y-37137500D03*
%TD*%
D17*
%TO.C,TP4*%
X84500000Y-41000000D03*
%TD*%
D25*
%TO.C,K2*%
X69750000Y-91000000D03*
X77250000Y-91000000D03*
X69750000Y-86000000D03*
X77250000Y-86000000D03*
X69750000Y-96000000D03*
X77250000Y-96000000D03*
D26*
X69750000Y-71000000D03*
D25*
X77250000Y-71000000D03*
%TD*%
D24*
%TO.C,R8*%
X150500000Y-61325000D03*
X150500000Y-59675000D03*
%TD*%
D17*
%TO.C,TP8*%
X148000000Y-57000000D03*
%TD*%
D20*
%TO.C,D4*%
X139850000Y-65000000D03*
X143150000Y-65000000D03*
%TD*%
D21*
%TO.C,R11*%
X119675000Y-59500000D03*
X121325000Y-59500000D03*
%TD*%
D15*
%TO.C,R9*%
X56325000Y-61500000D03*
X54675000Y-61500000D03*
%TD*%
D32*
%TO.C,D9*%
X73000000Y-40212500D03*
X73000000Y-41787500D03*
%TD*%
%TO.C,D7*%
X124500000Y-57712500D03*
X124500000Y-59287500D03*
%TD*%
D16*
%TO.C,D13*%
X111000000Y-38350000D03*
X111000000Y-37650000D03*
%TD*%
D22*
%TO.C,J7*%
X122000000Y-33000000D03*
D23*
X122000000Y-35540000D03*
X122000000Y-38080000D03*
X122000000Y-40620000D03*
%TD*%
D15*
%TO.C,R15*%
X94825000Y-33000000D03*
X93175000Y-33000000D03*
%TD*%
D28*
%TO.C,J3*%
X73500000Y-105000000D03*
D29*
X83000000Y-105000000D03*
X92500000Y-105000000D03*
%TD*%
D19*
%TO.C,H2*%
X165000000Y-35000000D03*
%TD*%
D16*
%TO.C,D14*%
X109000000Y-38350000D03*
X109000000Y-37650000D03*
%TD*%
D17*
%TO.C,TP10*%
X76000000Y-59000000D03*
%TD*%
D19*
%TO.C,H4*%
X130500000Y-62000000D03*
%TD*%
D16*
%TO.C,D16*%
X125000000Y-38350000D03*
X125000000Y-37650000D03*
%TD*%
D14*
%TO.C,D5*%
X51712500Y-58500000D03*
X53287500Y-58500000D03*
%TD*%
D28*
%TO.C,J4*%
X107500000Y-105000000D03*
D29*
X117000000Y-105000000D03*
X126500000Y-105000000D03*
%TD*%
D33*
%TO.C,Q4*%
X147950000Y-61062500D03*
X146050000Y-61062500D03*
X147000000Y-62937500D03*
%TD*%
D17*
%TO.C,TP5*%
X47000000Y-57000000D03*
%TD*%
%TO.C,TP3*%
X80500000Y-40000000D03*
%TD*%
%TO.C,TP6*%
X80000000Y-58000000D03*
%TD*%
D21*
%TO.C,R16*%
X73175000Y-37000000D03*
X74825000Y-37000000D03*
%TD*%
D20*
%TO.C,D3*%
X105850000Y-65000000D03*
X109150000Y-65000000D03*
%TD*%
D25*
%TO.C,K3*%
X103750000Y-91000000D03*
X111250000Y-91000000D03*
X103750000Y-86000000D03*
X111250000Y-86000000D03*
X103750000Y-96000000D03*
X111250000Y-96000000D03*
D26*
X103750000Y-71000000D03*
D25*
X111250000Y-71000000D03*
%TD*%
D34*
%TO.C,D11*%
X88650000Y-47000000D03*
X89350000Y-47000000D03*
%TD*%
D35*
%TO.C,J1*%
X44460000Y-37000000D03*
D36*
X49540000Y-37000000D03*
%TD*%
D21*
%TO.C,R6*%
X79675000Y-61500000D03*
X81325000Y-61500000D03*
%TD*%
D37*
%TO.C,C4*%
X84225000Y-44000000D03*
X85775000Y-44000000D03*
%TD*%
D30*
%TO.C,C3*%
X78500000Y-35950000D03*
X78500000Y-34050000D03*
%TD*%
D16*
%TO.C,D15*%
X127000000Y-37350000D03*
X127000000Y-36650000D03*
%TD*%
D15*
%TO.C,R2*%
X85325000Y-64000000D03*
X83675000Y-64000000D03*
%TD*%
D17*
%TO.C,TP2*%
X67000000Y-39000000D03*
%TD*%
%TO.C,TP9*%
X42000000Y-59000000D03*
%TD*%
D38*
%TO.C,R3*%
X119500000Y-62175000D03*
X119500000Y-63825000D03*
%TD*%
D30*
%TO.C,C2*%
X70500000Y-37950000D03*
X70500000Y-36050000D03*
%TD*%
D20*
%TO.C,D1*%
X37850000Y-65000000D03*
X41150000Y-65000000D03*
%TD*%
D18*
%TO.C,Q3*%
X114937500Y-65950000D03*
X114937500Y-64050000D03*
X113062500Y-65000000D03*
%TD*%
%LPD*%
M02*
