%TF.GenerationSoftware,KiCad,Pcbnew,10.0.5-10.0.5~ubuntu24.04.1*%
%TF.CreationDate,2026-09-02T12:33:48-06:00*%
%TF.ProjectId,quad_relay_controller,71756164-5f72-4656-9c61-795f636f6e74,rev?*%
%TF.SameCoordinates,Original*%
%TF.FileFunction,Soldermask,Top*%
%TF.FilePolarity,Negative*%
%FSLAX46Y46*%
G04 Gerber Fmt 4.6, Leading zero omitted, Abs format (unit mm)*
G04 Created by KiCad (PCBNEW 10.0.5-10.0.5~ubuntu24.04.1) date 2026-09-02 12:33:48*
%MOMM*%
%LPD*%
G01*
G04 APERTURE LIST*
G04 Aperture macros list*
%AMRoundRect*
0 Rectangle with rounded corners*
0 $1 Rounding radius*
0 $2 $3 $4 $5 $6 $7 $8 $9 X,Y pos of 4 corners*
0 Add a 4 corners polygon primitive as box body*
4,1,4,$2,$3,$4,$5,$6,$7,$8,$9,$2,$3,0*
0 Add four circle primitives for the rounded corners*
1,1,$1+$1,$2,$3*
1,1,$1+$1,$4,$5*
1,1,$1+$1,$6,$7*
1,1,$1+$1,$8,$9*
0 Add four rect primitives between the rounded corners*
20,1,$1+$1,$2,$3,$4,$5,0*
20,1,$1+$1,$4,$5,$6,$7,0*
20,1,$1+$1,$6,$7,$8,$9,0*
20,1,$1+$1,$8,$9,$2,$3,0*%
G04 Aperture macros list end*
%ADD10RoundRect,0.225000X0.225000X0.250000X-0.225000X0.250000X-0.225000X-0.250000X0.225000X-0.250000X0*%
%ADD11RoundRect,0.218750X-0.218750X-0.256250X0.218750X-0.256250X0.218750X0.256250X-0.218750X0.256250X0*%
%ADD12RoundRect,0.200000X0.200000X0.275000X-0.200000X0.275000X-0.200000X-0.275000X0.200000X-0.275000X0*%
%ADD13RoundRect,0.050010X0.199990X-0.099990X0.199990X0.099990X-0.199990X0.099990X-0.199990X-0.099990X0*%
%ADD14C,1.000000*%
%ADD15RoundRect,0.150000X0.587500X0.150000X-0.587500X0.150000X-0.587500X-0.150000X0.587500X-0.150000X0*%
%ADD16C,3.200000*%
%ADD17RoundRect,0.225000X-0.225000X-0.375000X0.225000X-0.375000X0.225000X0.375000X-0.225000X0.375000X0*%
%ADD18RoundRect,0.200000X-0.200000X-0.275000X0.200000X-0.275000X0.200000X0.275000X-0.200000X0.275000X0*%
%ADD19R,1.700000X1.700000*%
%ADD20C,1.700000*%
%ADD21RoundRect,0.200000X0.275000X-0.200000X0.275000X0.200000X-0.275000X0.200000X-0.275000X-0.200000X0*%
%ADD22C,2.000000*%
%ADD23R,2.000000X2.000000*%
%ADD24RoundRect,0.050010X-0.199990X0.099990X-0.199990X-0.099990X0.199990X-0.099990X0.199990X0.099990X0*%
%ADD25RoundRect,0.250001X-1.399999X-3.049999X1.399999X-3.049999X1.399999X3.049999X-1.399999X3.049999X0*%
%ADD26O,3.300000X6.600000*%
%ADD27RoundRect,0.250000X0.475000X-0.250000X0.475000X0.250000X-0.475000X0.250000X-0.475000X-0.250000X0*%
%ADD28RoundRect,0.100000X0.100000X-0.637500X0.100000X0.637500X-0.100000X0.637500X-0.100000X-0.637500X0*%
%ADD29RoundRect,0.218750X-0.256250X0.218750X-0.256250X-0.218750X0.256250X-0.218750X0.256250X0.218750X0*%
%ADD30RoundRect,0.150000X-0.150000X0.587500X-0.150000X-0.587500X0.150000X-0.587500X0.150000X0.587500X0*%
%ADD31RoundRect,0.050010X-0.099990X-0.199990X0.099990X-0.199990X0.099990X0.199990X-0.099990X0.199990X0*%
%ADD32R,2.600000X2.600000*%
%ADD33C,2.600000*%
%ADD34RoundRect,0.225000X-0.225000X-0.250000X0.225000X-0.250000X0.225000X0.250000X-0.225000X0.250000X0*%
%ADD35RoundRect,0.200000X-0.275000X0.200000X-0.275000X-0.200000X0.275000X-0.200000X0.275000X0.200000X0*%
G04 APERTURE END LIST*
D10*
%TO.C,C6*%
X85775000Y-37000000D03*
X84225000Y-37000000D03*
%TD*%
D11*
%TO.C,D8*%
X153712500Y-58500000D03*
X155287500Y-58500000D03*
%TD*%
D12*
%TO.C,R14*%
X58825000Y-43000000D03*
X57175000Y-43000000D03*
%TD*%
D13*
%TO.C,D12*%
X111000000Y-41350000D03*
X111000000Y-40650000D03*
%TD*%
D14*
%TO.C,TP7*%
X115000000Y-58000000D03*
%TD*%
%TO.C,TP1*%
X55000000Y-38000000D03*
%TD*%
D15*
%TO.C,Q2*%
X79937500Y-65950000D03*
X79937500Y-64050000D03*
X78062500Y-65000000D03*
%TD*%
D16*
%TO.C,H1*%
X35000000Y-35000000D03*
%TD*%
D10*
%TO.C,C5*%
X93775000Y-47000000D03*
X92225000Y-47000000D03*
%TD*%
D17*
%TO.C,D2*%
X71850000Y-65000000D03*
X75150000Y-65000000D03*
%TD*%
D14*
%TO.C,TP12*%
X143000000Y-58000000D03*
%TD*%
D15*
%TO.C,Q5*%
X59937500Y-39950000D03*
X59937500Y-38050000D03*
X58062500Y-39000000D03*
%TD*%
D18*
%TO.C,R7*%
X114675000Y-61500000D03*
X116325000Y-61500000D03*
%TD*%
D11*
%TO.C,D6*%
X86712500Y-58500000D03*
X88287500Y-58500000D03*
%TD*%
D18*
%TO.C,R13*%
X68675000Y-42000000D03*
X70325000Y-42000000D03*
%TD*%
D19*
%TO.C,J6*%
X106000000Y-33000000D03*
D20*
X106000000Y-35540000D03*
X106000000Y-38080000D03*
X106000000Y-40620000D03*
X106000000Y-43160000D03*
%TD*%
D21*
%TO.C,R12*%
X154500000Y-63325000D03*
X154500000Y-61675000D03*
%TD*%
D18*
%TO.C,R10*%
X87675000Y-61500000D03*
X89325000Y-61500000D03*
%TD*%
D22*
%TO.C,K1*%
X35750000Y-91000000D03*
X43250000Y-91000000D03*
X35750000Y-86000000D03*
X43250000Y-86000000D03*
X35750000Y-96000000D03*
X43250000Y-96000000D03*
D23*
X35750000Y-71000000D03*
D22*
X43250000Y-71000000D03*
%TD*%
D24*
%TO.C,D10*%
X55000000Y-34650000D03*
X55000000Y-35350000D03*
%TD*%
D25*
%TO.C,J5*%
X141500000Y-105000000D03*
D26*
X151000000Y-105000000D03*
X160500000Y-105000000D03*
%TD*%
D16*
%TO.C,H3*%
X62500000Y-62000000D03*
%TD*%
D15*
%TO.C,Q1*%
X46937500Y-64950000D03*
X46937500Y-63050000D03*
X45062500Y-64000000D03*
%TD*%
D14*
%TO.C,TP11*%
X110000000Y-59000000D03*
%TD*%
D25*
%TO.C,J2*%
X39500000Y-105000000D03*
D26*
X49000000Y-105000000D03*
X58500000Y-105000000D03*
%TD*%
D21*
%TO.C,R4*%
X151500000Y-65825000D03*
X151500000Y-64175000D03*
%TD*%
D22*
%TO.C,K4*%
X137750000Y-91000000D03*
X145250000Y-91000000D03*
X137750000Y-86000000D03*
X145250000Y-86000000D03*
X137750000Y-96000000D03*
X145250000Y-96000000D03*
D23*
X137750000Y-71000000D03*
D22*
X145250000Y-71000000D03*
%TD*%
D27*
%TO.C,C1*%
X64000000Y-37950000D03*
X64000000Y-36050000D03*
%TD*%
D18*
%TO.C,R5*%
X46675000Y-60500000D03*
X48325000Y-60500000D03*
%TD*%
D12*
%TO.C,R1*%
X52325000Y-64000000D03*
X50675000Y-64000000D03*
%TD*%
D28*
%TO.C,U1*%
X89075000Y-42862500D03*
X89725000Y-42862500D03*
X90375000Y-42862500D03*
X91025000Y-42862500D03*
X91675000Y-42862500D03*
X92325000Y-42862500D03*
X92975000Y-42862500D03*
X93625000Y-42862500D03*
X94275000Y-42862500D03*
X94925000Y-42862500D03*
X94925000Y-37137500D03*
X94275000Y-37137500D03*
X93625000Y-37137500D03*
X92975000Y-37137500D03*
X92325000Y-37137500D03*
X91675000Y-37137500D03*
X91025000Y-37137500D03*
X90375000Y-37137500D03*
X89725000Y-37137500D03*
X89075000Y-37137500D03*
%TD*%
D14*
%TO.C,TP4*%
X84500000Y-41000000D03*
%TD*%
D22*
%TO.C,K2*%
X69750000Y-91000000D03*
X77250000Y-91000000D03*
X69750000Y-86000000D03*
X77250000Y-86000000D03*
X69750000Y-96000000D03*
X77250000Y-96000000D03*
D23*
X69750000Y-71000000D03*
D22*
X77250000Y-71000000D03*
%TD*%
D21*
%TO.C,R8*%
X150500000Y-61325000D03*
X150500000Y-59675000D03*
%TD*%
D14*
%TO.C,TP8*%
X148000000Y-57000000D03*
%TD*%
D17*
%TO.C,D4*%
X139850000Y-65000000D03*
X143150000Y-65000000D03*
%TD*%
D18*
%TO.C,R11*%
X119675000Y-59500000D03*
X121325000Y-59500000D03*
%TD*%
D12*
%TO.C,R9*%
X56325000Y-61500000D03*
X54675000Y-61500000D03*
%TD*%
D29*
%TO.C,D9*%
X73000000Y-40212500D03*
X73000000Y-41787500D03*
%TD*%
%TO.C,D7*%
X124500000Y-57712500D03*
X124500000Y-59287500D03*
%TD*%
D13*
%TO.C,D13*%
X111000000Y-38350000D03*
X111000000Y-37650000D03*
%TD*%
D19*
%TO.C,J7*%
X122000000Y-33000000D03*
D20*
X122000000Y-35540000D03*
X122000000Y-38080000D03*
X122000000Y-40620000D03*
%TD*%
D12*
%TO.C,R15*%
X94825000Y-33000000D03*
X93175000Y-33000000D03*
%TD*%
D25*
%TO.C,J3*%
X73500000Y-105000000D03*
D26*
X83000000Y-105000000D03*
X92500000Y-105000000D03*
%TD*%
D16*
%TO.C,H2*%
X165000000Y-35000000D03*
%TD*%
D13*
%TO.C,D14*%
X109000000Y-38350000D03*
X109000000Y-37650000D03*
%TD*%
D14*
%TO.C,TP10*%
X76000000Y-59000000D03*
%TD*%
D16*
%TO.C,H4*%
X130500000Y-62000000D03*
%TD*%
D13*
%TO.C,D16*%
X125000000Y-38350000D03*
X125000000Y-37650000D03*
%TD*%
D11*
%TO.C,D5*%
X51712500Y-58500000D03*
X53287500Y-58500000D03*
%TD*%
D25*
%TO.C,J4*%
X107500000Y-105000000D03*
D26*
X117000000Y-105000000D03*
X126500000Y-105000000D03*
%TD*%
D30*
%TO.C,Q4*%
X147950000Y-61062500D03*
X146050000Y-61062500D03*
X147000000Y-62937500D03*
%TD*%
D14*
%TO.C,TP5*%
X47000000Y-57000000D03*
%TD*%
%TO.C,TP3*%
X80500000Y-40000000D03*
%TD*%
%TO.C,TP6*%
X80000000Y-58000000D03*
%TD*%
D18*
%TO.C,R16*%
X73175000Y-37000000D03*
X74825000Y-37000000D03*
%TD*%
D17*
%TO.C,D3*%
X105850000Y-65000000D03*
X109150000Y-65000000D03*
%TD*%
D22*
%TO.C,K3*%
X103750000Y-91000000D03*
X111250000Y-91000000D03*
X103750000Y-86000000D03*
X111250000Y-86000000D03*
X103750000Y-96000000D03*
X111250000Y-96000000D03*
D23*
X103750000Y-71000000D03*
D22*
X111250000Y-71000000D03*
%TD*%
D31*
%TO.C,D11*%
X88650000Y-47000000D03*
X89350000Y-47000000D03*
%TD*%
D32*
%TO.C,J1*%
X44460000Y-37000000D03*
D33*
X49540000Y-37000000D03*
%TD*%
D18*
%TO.C,R6*%
X79675000Y-61500000D03*
X81325000Y-61500000D03*
%TD*%
D34*
%TO.C,C4*%
X84225000Y-44000000D03*
X85775000Y-44000000D03*
%TD*%
D27*
%TO.C,C3*%
X78500000Y-35950000D03*
X78500000Y-34050000D03*
%TD*%
D13*
%TO.C,D15*%
X127000000Y-37350000D03*
X127000000Y-36650000D03*
%TD*%
D12*
%TO.C,R2*%
X85325000Y-64000000D03*
X83675000Y-64000000D03*
%TD*%
D14*
%TO.C,TP2*%
X67000000Y-39000000D03*
%TD*%
%TO.C,TP9*%
X42000000Y-59000000D03*
%TD*%
D35*
%TO.C,R3*%
X119500000Y-62175000D03*
X119500000Y-63825000D03*
%TD*%
D27*
%TO.C,C2*%
X70500000Y-37950000D03*
X70500000Y-36050000D03*
%TD*%
D17*
%TO.C,D1*%
X37850000Y-65000000D03*
X41150000Y-65000000D03*
%TD*%
D15*
%TO.C,Q3*%
X114937500Y-65950000D03*
X114937500Y-64050000D03*
X113062500Y-65000000D03*
%TD*%
M02*
